<?xml version="1.0" encoding="utf-8"?>
<!-- Generator: Adobe Illustrator 16.0.0, SVG Export Plug-In . SVG Version: 6.00 Build 0)  -->
<!DOCTYPE svg PUBLIC "-//W3C//DTD SVG 1.1//EN" "http://www.w3.org/Graphics/SVG/1.1/DTD/svg11.dtd">
<svg version="1.1" id="圖層_1" xmlns="http://www.w3.org/2000/svg" xmlns:xlink="http://www.w3.org/1999/xlink" x="0px" y="0px"
	 width="553.421px" height="456.834px" viewBox="0 0 553.421 456.834" enable-background="new 0 0 553.421 456.834"
	 xml:space="preserve">
<g>
	<path fill="#FFFFFF" d="M526.903,456.669c-0.714,0-1.399-0.28-1.908-0.783c-0.512-0.505-0.802-1.193-0.807-1.914l-1.672-275.967
		c-0.023-3.59,1.679-7.021,4.553-9.177l0.268-0.2L379.907,24.336l-64.266,39.247l0.374,4.859c0.281,3.638-1.218,7.217-4.006,9.572
		c-2.05,1.73-4.663,2.682-7.356,2.682c-0.927,0-1.852-0.112-2.749-0.337l-3.156-0.789l-92.471,58.32l-1.861,51.188
		c-0.15,4.115-2.521,7.84-6.188,9.72c-1.596,0.818-3.39,1.25-5.187,1.25c-2.257,0-4.442-0.66-6.317-1.91l-19.058-12.707
		l-80.918,51.162l-5.661,10.969c-1.699,3.292-4.905,5.556-8.575,6.057c-0.515,0.071-1.035,0.107-1.55,0.107
		c-3.149,0-6.188-1.326-8.334-3.64l-6.8-7.323l-29.212,17.602l4.205,3.68c2.482,2.173,3.898,5.311,3.888,8.606l-1.152,181.459
		c-0.003,0.72-0.291,1.409-0.801,1.917c-0.509,0.505-1.197,0.787-1.914,0.787c-0.003,0-10.157-0.033-10.157-0.033
		c-1.499-0.004-2.71-1.224-2.706-2.724l1.146-179.547l-7.09-6.205c-2.727-2.385-6.429-6.575-6.109-10.183
		c0.32-3.61,4.628-6.269,7.73-8.135l37.049-22.326c1.766-1.062,3.792-1.623,5.86-1.623c3.172,0,6.218,1.322,8.358,3.629l5.059,5.447
		l3.445-6.678c0.926-1.796,2.32-3.318,4.031-4.399l84.184-53.226c1.822-1.15,3.926-1.76,6.084-1.76c2.257,0,4.44,0.661,6.315,1.91
		l15.08,10.054l1.668-45.903c0.137-3.763,2.121-7.208,5.304-9.214l95.86-60.458c1.82-1.147,3.924-1.751,6.087-1.751
		c0.67,0,1.34,0.058,1.998,0.176l-0.126-1.646c-0.329-4.293,1.748-8.35,5.42-10.591l69.242-42.285
		c1.791-1.093,4.369-2.532,6.46-2.532c2.993,0,5.294,2.016,7.438,4.114l153.253,149.991c2.377,2.327,3.616,5.565,3.397,8.883
		c-0.217,3.318-1.869,6.368-4.531,8.361l-2.484,1.863l1.66,273.855c0.008,1.501-1.199,2.722-2.698,2.731
		C537.068,456.608,526.909,456.669,526.903,456.669z"/>
	<g>
		<path fill="#FFFFFF" d="M14.814,456.834l-2.394-0.041c0.826-47.96,2.762-172.414,1.943-179.658L2.526,264.995
			c-1.953-1.632-2.682-5.514-2.499-8.601c0.176-2.972,1.16-5.255,2.7-6.264l51.422-31.179c2.576-1.69,6.076-1.33,8.284,0.878
			c2.554,3.57,5.312,6.018,6.052,5.853l5.333-7.127c0.503-0.693,1.142-1.282,1.887-1.739l88.115-54.006
			c2.155-1.321,4.921-1.291,7.047,0.075l13.181,8.474l1.772-37.98c0.045-1.408,0.625-4.25,1.277-5.642
			c1.351-2.887,3.654-4.655,5.728-6.004l94.339-61.398c1.222-0.801,2.456-1.175,4.256-1.29l3.334-0.1l0.483-4.528
			c0.234-1.963,1.31-3.697,2.951-4.772l77.517-48.026c4.017-2.529,9.38-2.053,13.034,1.163l162.043,157.882
			c4,4.417,2.859,9.75,0.475,13.285l-7.631,8.473l1.692,273.454l-2.395,0.015l-1.698-274.382l8.15-9.031
			c0.807-1.217,3.484-5.951-0.317-10.152L387.114,4.537c-2.772-2.438-7.056-2.83-10.139-0.889l-77.499,48.015
			c-1.023,0.67-1.709,1.778-1.858,3.022l-0.703,6.589l-5.382,0.162c-1.348,0.087-2.188,0.332-3.06,0.903l-94.342,61.401
			c-1.881,1.223-3.772,2.676-4.864,5.012c-0.499,1.065-1.016,3.562-1.053,4.721l-1.967,42.146l-16.674-10.72
			c-1.358-0.873-3.124-0.892-4.5-0.048l-88.116,54.006c-0.476,0.291-0.883,0.668-1.211,1.12l-5.308,7.086
			c-0.476,0.654-1.183,1-1.995,1.015c-2.867-0.017-6.721-5.14-7.833-6.709c-1.28-1.256-3.515-1.486-5.183-0.393L4.004,252.155
			c-0.838,0.55-1.459,2.237-1.586,4.38c-0.169,2.851,0.578,5.734,1.736,6.708l12.163,12.474
			C16.817,276.13,17.912,277.049,14.814,456.834z"/>
	</g>
</g>
</svg>
