<?xml version="1.0" encoding="utf-8"?>
<!-- Generator: Adobe Illustrator 16.0.0, SVG Export Plug-In . SVG Version: 6.00 Build 0)  -->
<!DOCTYPE svg PUBLIC "-//W3C//DTD SVG 1.1//EN" "http://www.w3.org/Graphics/SVG/1.1/DTD/svg11.dtd">
<svg version="1.1" id="圖層_1" xmlns="http://www.w3.org/2000/svg" xmlns:xlink="http://www.w3.org/1999/xlink" x="0px" y="0px"
	 width="150px" height="150px" viewBox="0 0 150 150" enable-background="new 0 0 150 150" xml:space="preserve">
<path fill-rule="evenodd" clip-rule="evenodd" fill="#FFFFFF" d="M62.916,75.364v44.988c0,0.646,0.523,1.17,1.166,1.17H80.79
	c0.648,0,1.172-0.525,1.172-1.17V74.634h12.116c0.602,0,1.108-0.465,1.164-1.07l1.161-13.778c0.058-0.685-0.479-1.267-1.175-1.267
	H81.962v-9.774c0-2.292,1.86-4.146,4.149-4.146h9.334c0.642,0,1.168-0.529,1.168-1.176V29.65c0-0.648-0.526-1.172-1.168-1.172
	H79.669c-9.255,0-16.753,7.505-16.753,16.759v13.281h-8.354c-0.653,0-1.176,0.522-1.176,1.17v13.774c0,0.646,0.522,1.17,1.176,1.17
	h8.354V75.364z"/>
</svg>
