<?xml version="1.0" encoding="utf-8"?>
<!-- Generator: Adobe Illustrator 16.0.0, SVG Export Plug-In . SVG Version: 6.00 Build 0)  -->
<!DOCTYPE svg PUBLIC "-//W3C//DTD SVG 1.1//EN" "http://www.w3.org/Graphics/SVG/1.1/DTD/svg11.dtd">
<svg version="1.1" id="圖層_1" xmlns="http://www.w3.org/2000/svg" xmlns:xlink="http://www.w3.org/1999/xlink" x="0px" y="0px"
	 width="162.375px" height="134.036px" viewBox="0 0 162.375 134.036" enable-background="new 0 0 162.375 134.036"
	 xml:space="preserve">
<g>
	<path fill="#FFFFFF" d="M154.595,133.988c-0.209,0-0.411-0.083-0.56-0.23c-0.15-0.148-0.235-0.35-0.237-0.561l-0.49-80.97
		c-0.007-1.053,0.492-2.06,1.335-2.692l0.079-0.059L111.466,7.14L92.609,18.655l0.11,1.426c0.083,1.068-0.357,2.118-1.175,2.809
		c-0.602,0.507-1.368,0.787-2.158,0.787c-0.272,0-0.543-0.033-0.807-0.099l-0.926-0.232L60.521,40.458l-0.546,15.019
		c-0.044,1.208-0.74,2.3-1.815,2.852c-0.469,0.239-0.995,0.367-1.522,0.367c-0.662,0-1.303-0.194-1.853-0.561l-5.592-3.728
		L25.452,69.417l-1.661,3.218c-0.499,0.966-1.439,1.629-2.516,1.776c-0.151,0.021-0.303,0.032-0.455,0.032
		c-0.924,0-1.815-0.389-2.445-1.068l-1.995-2.148l-8.571,5.165l1.234,1.08c0.729,0.638,1.144,1.558,1.141,2.525l-0.338,53.241
		c0,0.211-0.085,0.413-0.235,0.562c-0.15,0.148-0.352,0.231-0.562,0.231c-0.001,0-2.98-0.009-2.98-0.009
		c-0.44-0.001-0.795-0.359-0.794-0.8l0.336-52.679l-2.08-1.82c-0.8-0.7-1.886-1.929-1.792-2.988c0.094-1.06,1.358-1.839,2.268-2.387
		l10.871-6.55c0.518-0.312,1.112-0.477,1.719-0.477c0.931,0,1.824,0.388,2.452,1.065l1.484,1.598l1.011-1.959
		c0.272-0.527,0.681-0.974,1.183-1.291l24.699-15.617c0.535-0.337,1.152-0.516,1.785-0.516c0.663,0,1.303,0.193,1.853,0.56
		l4.425,2.95l0.49-13.468c0.04-1.104,0.622-2.115,1.556-2.704L85.66,19.2c0.534-0.336,1.151-0.514,1.786-0.514
		c0.197,0,0.393,0.017,0.586,0.052l-0.037-0.483c-0.096-1.26,0.513-2.45,1.59-3.108l20.316-12.406
		c0.525-0.321,1.282-0.743,1.896-0.743c0.878,0,1.553,0.591,2.182,1.207l44.965,44.008c0.697,0.683,1.061,1.633,0.997,2.606
		c-0.063,0.974-0.548,1.868-1.33,2.454l-0.729,0.546l0.487,80.35c0.002,0.44-0.352,0.799-0.792,0.801
		C157.577,133.97,154.596,133.988,154.595,133.988z"/>
	<g>
		<path fill="#FFFFFF" d="M51.399,87.299c-0.577,0.648-1.201,1.225-1.874,1.729c0.792,0.721,1.417,1.537,1.945,2.474
			c0.457-0.601,0.888-1.297,1.225-1.969c0.24-0.457,0.432-0.913,0.576-1.345c1.465,0.913,2.114,1.465,2.114,1.705
			c0,0.168-0.145,0.265-0.865,0.241c-0.817,0.721-1.921,1.417-2.834,1.85c0.168,0.336,0.288,0.672,0.408,1.033
			c2.378,0.576,3.723,1.537,3.723,2.617c0,0.769-0.457,1.321-1.081,1.321c-0.457,0-0.625-0.144-0.937-0.84
			c-0.48-1.129-0.937-1.849-1.537-2.498c0.24,0.961,0.36,2.017,0.36,3.146c0,1.657-0.336,2.786-1.081,3.434
			c-0.504,0.48-1.225,0.697-2.138,0.697c-0.336,0-0.432-0.096-0.504-0.48c-0.216-1.033-0.456-1.225-2.017-1.657
			c-0.12-0.024-0.12-0.313,0-0.313c1.561,0.144,2.113,0.216,2.69,0.216c0.456,0,0.576-0.072,0.672-0.36
			c0.192-0.48,0.264-1.273,0.264-2.738v-0.144c-1.874,1.321-4.371,2.449-6.628,2.881c-0.12,0.024-0.168-0.216-0.072-0.264
			c2.666-1.321,4.899-3.002,6.581-4.899c-0.024-0.337-0.096-0.697-0.168-1.033c-1.897,1.272-3.627,2.017-5.957,2.569
			c-0.12,0.024-0.192-0.216-0.096-0.264c2.353-1.273,3.818-2.426,5.452-4.204c-0.144-0.313-0.313-0.6-0.504-0.888
			c-1.345,0.913-2.954,1.585-4.899,2.065c-0.12,0.024-0.192-0.216-0.096-0.264c2.162-1.153,3.531-2.306,4.587-3.818h-2.738
			c-0.457,0-0.913,0.048-1.537,0.144l-0.264-0.889c0.672,0.144,1.177,0.192,1.681,0.192h4.803c0.312-0.721,0.528-1.321,0.721-1.969
			c0.144-0.553,0.264-1.129,0.384-1.825c2.354,0.816,2.762,1.009,2.762,1.272c0,0.289-0.096,0.336-1.033,0.504
			c-1.081,1.153-1.513,1.562-2.162,2.018h1.345c0.816-1.009,1.104-1.201,1.272-1.201c0.216,0,0.457,0.192,1.177,0.841
			c0.289,0.288,0.48,0.504,0.48,0.672c0,0.168-0.072,0.241-0.312,0.241H51.399z M48.782,80.622c0-0.433-0.048-0.961-0.12-1.609
			c2.858,0.264,3.098,0.504,3.098,0.744c0,0.193-0.24,0.361-0.72,0.577v1.801h1.32c0.793-1.008,1.082-1.201,1.25-1.201
			c0.216,0,0.48,0.192,1.273,0.841c0.336,0.288,0.528,0.504,0.528,0.672c0,0.167-0.072,0.24-0.313,0.24h-8.574
			c-0.456,0-0.912,0.048-1.537,0.145l-0.264-0.889c0.672,0.144,1.177,0.192,1.681,0.192h2.378V80.622z M47.917,86.482
			c-0.672,0-0.888-0.264-0.912-1.129c-0.096-0.985-0.192-1.369-0.553-2.186c-0.048-0.12,0.024-0.192,0.144-0.144
			c1.633,0.552,2.45,1.273,2.45,2.186C49.045,85.93,48.565,86.482,47.917,86.482z M62.111,89.58c0.984-0.96,1.177-1.105,1.369-1.105
			c0.24,0,0.432,0.145,1.369,0.913c0.432,0.361,0.576,0.529,0.576,0.721c0,0.313-0.264,0.528-0.888,0.769
			c-0.817,1.945-1.85,3.626-3.146,5.067c1.441,1.081,3.242,1.897,5.355,2.354c0.121,0.024,0.096,0.192-0.024,0.24
			c-0.672,0.313-0.888,0.673-1.225,1.73c-0.096,0.36-0.192,0.48-0.36,0.48c-0.096,0-0.528-0.216-1.033-0.48
			c-1.489-0.745-2.858-1.825-3.963-3.098c-1.849,1.633-4.13,2.882-6.917,3.794c-0.12,0.048-0.216-0.24-0.12-0.288
			c2.377-1.297,4.443-2.978,6.028-4.875c-1.105-1.729-1.777-3.674-2.209-5.668c-0.337,0.024-0.673,0.072-1.081,0.192l-0.264-0.937
			c0.672,0.145,1.201,0.192,1.705,0.192H62.111z M65.665,84.969c0,0.384,0.12,0.456,0.457,0.6c0.192,0.097,0.336,0.385,0.336,0.721
			c0,0.456-0.24,0.792-0.72,1.033c-0.433,0.216-1.105,0.312-1.97,0.312c-2.089,0-2.689-0.432-2.689-2.042
			c0-0.6,0.024-0.936,0.024-2.089v-2.306h-2.209c0,0.265,0,0.505-0.024,0.745c-0.048,1.753-0.264,2.954-0.745,3.938
			c-0.528,1.033-1.417,1.801-2.833,2.666c-0.096,0.072-0.264-0.097-0.192-0.192c0.673-0.888,1.105-1.753,1.345-2.834
			c0.216-0.888,0.288-1.921,0.288-3.218c0-0.913-0.024-1.562-0.145-2.762c1.201,0.48,1.369,0.552,2.426,1.105h1.945
			c0.769-0.889,0.889-1.009,1.129-1.009c0.216,0,0.408,0.072,1.128,0.697c0.36,0.312,0.528,0.504,0.528,0.696
			c0,0.24-0.168,0.433-0.576,0.696v3.579c0,0.336,0.144,0.457,0.648,0.457c0.385,0,0.577-0.072,0.793-0.385
			c0.192-0.336,0.408-0.912,0.769-2.017c0.048-0.121,0.288-0.121,0.288,0V84.969z M57.355,90.132
			c0.552,1.682,1.441,3.242,2.642,4.539c1.008-1.441,1.777-2.978,2.186-4.539H57.355z"/>
		<path fill="#FFFFFF" d="M71.884,80.934h-0.072c-0.336,0-0.696,0.048-1.153,0.144l-0.264-0.889
			c0.577,0.145,1.009,0.192,1.441,0.192h4.275c0.889-1.057,1.177-1.249,1.345-1.249c0.216,0,0.48,0.192,1.393,0.864
			c0.409,0.336,0.601,0.528,0.601,0.696s-0.072,0.24-0.312,0.24h-1.345v6.845c0,4.611,0.048,10.351,0.048,12.248
			c0,0.697-0.432,1.033-1.225,1.033c-0.384,0-0.913-0.096-0.913-0.937c0-0.528,0.096-2.138,0.096-5.308
			c-0.841,0.816-2.113,1.706-3.482,2.378c-0.072,0.625-0.24,0.865-0.528,0.865c-0.336,0-0.552-0.48-1.249-2.642
			c0.433-0.072,0.889-0.144,1.345-0.217V80.934z M73.83,85.113h1.969v-4.179H73.83V85.113z M73.83,89.46h1.969v-3.794H73.83V89.46z
			 M73.83,94.744c0.672-0.192,1.321-0.408,1.969-0.672v-4.059H73.83V94.744z M79.762,87.539c1.081-1.345,1.849-2.569,2.474-3.843
			c0.288-0.625,0.552-1.225,0.769-1.873c1.801,0.744,2.257,1.009,2.257,1.273c0,0.312-0.192,0.384-0.888,0.384
			c-1.033,1.489-2.258,2.858-3.627,3.987c0.984-0.048,1.945-0.144,2.906-0.289c-0.12-0.552-0.288-0.96-0.577-1.465
			c-0.048-0.096,0.048-0.192,0.145-0.145c1.537,0.745,2.354,1.634,2.354,2.57c0,0.672-0.384,1.153-0.937,1.153
			c-0.504,0-0.72-0.313-0.816-1.009c-0.024-0.168-0.024-0.312-0.048-0.457c-1.273,0.528-3.026,1.129-4.083,1.369
			c-0.048,0.433-0.192,0.601-0.408,0.601c-0.264,0-0.36-0.288-0.889-2.282c0.36,0.024,0.648,0.024,0.816,0.024H79.762z
			 M80.842,80.646c0.192-0.577,0.36-1.153,0.457-1.681c1.801,0.576,2.401,0.864,2.401,1.128c0,0.241-0.168,0.336-0.864,0.433
			c-0.817,0.961-1.297,1.465-2.234,2.258c0.552,0.408,0.865,0.888,0.865,1.44c0,0.625-0.36,1.057-0.913,1.057
			c-0.408,0-0.601-0.192-0.817-0.841c-0.384-1.225-0.648-1.681-1.249-2.33c-0.072-0.096-0.024-0.216,0.096-0.192
			c0.577,0.144,1.081,0.336,1.489,0.553C80.362,81.871,80.626,81.246,80.842,80.646z M82.691,94.864
			c0.096-0.889,0.145-1.994,0.145-3.386c0-0.72,0-0.985-0.048-1.561c2.522,0.192,2.762,0.264,2.762,0.6
			c0,0.241-0.168,0.409-0.649,0.577c-0.024,0.841-0.048,1.537-0.072,2.137c-0.096,2.042-0.265,2.858-0.696,3.915
			c-0.841,1.921-2.594,3.242-5.116,3.939c-0.12,0.024-0.216-0.168-0.12-0.241c1.321-0.768,2.209-1.633,2.906-2.882
			c0.408-0.72,0.672-1.489,0.816-2.545h-1.537v0.552c0,0.601-0.36,0.865-1.129,0.865c-0.552,0-0.84-0.216-0.84-0.744
			c0-0.265,0.072-1.225,0.072-2.858c0-0.84-0.024-1.705-0.096-2.714c2.042,0.168,2.546,0.289,2.546,0.648
			c0,0.192-0.12,0.313-0.552,0.504v3.194H82.691z M87.495,80.838c0.241-0.601,0.433-1.249,0.577-1.897
			c1.825,0.6,2.378,0.864,2.378,1.128s-0.168,0.336-0.865,0.433c-0.769,0.864-1.297,1.345-2.306,2.161
			c0.648,0.409,1.009,0.938,1.009,1.514c0,0.625-0.36,1.057-0.889,1.057c-0.408,0-0.624-0.216-0.816-0.816
			c-0.313-1.033-0.721-1.754-1.345-2.306c-0.096-0.072,0-0.216,0.12-0.192c0.528,0.12,1.009,0.265,1.417,0.457
			C87.039,81.895,87.279,81.39,87.495,80.838z M89.2,83.6c0.288-0.601,0.528-1.201,0.769-1.874c1.537,0.577,2.257,0.96,2.257,1.273
			c0,0.288-0.192,0.36-0.889,0.36c-0.864,1.297-2.545,3.098-3.771,4.035c1.057-0.024,2.138-0.096,3.194-0.216
			c-0.168-0.625-0.385-1.081-0.696-1.585c-0.072-0.096,0.024-0.192,0.144-0.144c1.657,0.769,2.594,1.753,2.594,2.762
			c0,0.648-0.408,1.129-0.985,1.129c-0.504,0-0.769-0.336-0.865-1.057c-0.024-0.144-0.048-0.288-0.072-0.409
			C89.536,88.379,88,88.883,87.015,89.1c-0.048,0.408-0.168,0.576-0.384,0.576c-0.264,0-0.408-0.36-0.913-2.258
			c0.36,0.024,0.696,0.024,1.009,0.024C87.807,86.098,88.576,84.873,89.2,83.6z M88.312,95.417c0.024,2.425,0.072,4.083,0.072,4.755
			c0,0.625-0.384,0.865-1.249,0.865c-0.625,0-0.889-0.216-0.889-0.792c0-0.625,0.072-2.498,0.072-6.269
			c0-2.354-0.024-3.074-0.12-4.107c2.498,0.289,2.737,0.361,2.737,0.721c0,0.216-0.168,0.408-0.648,0.624v3.651h1.801v-2.786
			c0-0.385-0.024-0.648-0.096-1.633c2.018,0.168,2.546,0.288,2.546,0.648c0,0.191-0.12,0.288-0.601,0.504v0.72
			c0,1.921,0.048,3.362,0.048,3.795c0,0.672-0.312,0.936-1.104,0.936c-0.577,0-0.792-0.192-0.792-0.696v-0.936H88.312z"/>
		<path fill="#FFFFFF" d="M101.832,87.467c0.792-0.913,0.985-1.057,1.177-1.057c0.24,0,0.432,0.144,1.225,0.817
			c0.336,0.288,0.48,0.456,0.48,0.648c0,0.241-0.192,0.457-0.625,0.673c-0.48,3.002-1.128,5.212-2.161,7.037
			c0.264,0.313,0.552,0.577,0.864,0.817c1.874,1.441,4.491,1.969,8.982,1.969c2.426,0,3.698-0.072,7.493-0.48
			c0.12-0.024,0.096,0.168,0,0.216c-0.769,0.432-0.961,0.793-1.057,1.753c-0.024,0.289-0.12,0.433-0.721,0.504
			c-0.865,0.096-3.05,0.168-4.467,0.168c-5.596,0-8.382-0.721-10.615-2.738c-0.409-0.384-0.769-0.769-1.105-1.201
			c-1.081,1.513-2.522,2.786-4.491,4.083c-0.096,0.072-0.288-0.144-0.216-0.24c1.681-1.753,2.882-3.458,3.723-5.428
			c-0.48-0.937-0.937-2.089-1.417-3.578c-0.12-0.385-0.168-0.457-0.384-0.648c-0.12-0.072-0.192-0.192-0.192-0.265
			c0-0.144,0.552-0.384,0.937-0.384c0.144,0,0.24,0.072,0.24,0.192c0,0.072-0.144,0.384-0.144,0.48c0,0.192,0.167,0.672,0.384,1.225
			c0.288,0.648,0.6,1.321,0.984,1.921c0.601-1.705,0.961-3.603,1.201-5.908h-1.801c-0.072,0.144-0.168,0.312-0.264,0.48
			c-0.337,0.528-0.504,0.648-0.913,0.648c-0.697,0-1.297-0.36-1.297-0.793c0-0.12,0.048-0.312,0.216-0.624
			c1.489-2.498,2.089-3.771,3.05-6.341h-2.137c-0.697,0-1.104,0.049-1.513,0.145l-0.216-0.913c0.48,0.144,0.913,0.192,1.681,0.216
			h2.137c0.841-0.96,1.033-1.105,1.225-1.105c0.24,0,0.408,0.145,1.225,0.913c0.336,0.336,0.48,0.528,0.48,0.72
			c0,0.265-0.144,0.385-0.792,0.672c-1.273,2.955-1.681,3.843-2.546,5.404H101.832z M111.51,88.475c0,0.841,0.024,1.658,0.024,2.499
			h3.002c0.961-1.129,1.249-1.321,1.417-1.321c0.216,0,0.48,0.191,1.441,0.937c0.408,0.336,0.6,0.528,0.6,0.696
			c0,0.169-0.072,0.241-0.312,0.241h-6.148c0.024,0.865,0.024,1.705,0.048,2.57h3.627c1.081-1.249,1.369-1.441,1.537-1.441
			c0.216,0,0.48,0.192,1.513,1.008c0.457,0.36,0.648,0.576,0.648,0.745c0,0.168-0.072,0.24-0.312,0.24h-7.013
			c0.024,1.009,0.024,1.778,0.024,2.258c0,0.697-0.408,0.985-1.249,0.985c-0.769,0-1.009-0.192-1.009-0.985
			c0-0.432,0.024-1.153,0.024-2.258h-3.867c-0.456,0-0.913,0.048-1.513,0.144l-0.264-0.888c0.696,0.144,1.201,0.192,1.729,0.192
			h3.938c0-0.865,0.024-1.705,0.024-2.57h-2.858c-0.433,0-0.841,0.048-1.417,0.144l-0.264-0.888
			c0.672,0.144,1.177,0.192,1.681,0.192h2.882c0-0.841,0.024-1.681,0.024-2.499h-2.69c-0.408,0-0.792,0.049-1.321,0.169
			l-0.264-0.889c0.625,0.12,1.081,0.168,1.537,0.168h2.738v-2.594h-3.699c-0.48,0-0.96,0.048-1.585,0.144l-0.265-0.888
			c0.745,0.144,1.297,0.192,1.85,0.192h3.699v-2.522h-2.474c-0.457,0-0.889,0.048-1.489,0.192l-0.264-0.937
			c0.673,0.144,1.201,0.192,1.705,0.192h2.498c0-1.057-0.048-1.849-0.096-2.69c2.402,0.264,2.81,0.36,2.81,0.768
			c0,0.193-0.096,0.289-0.672,0.577v1.345h2.834c0.816-1.009,1.008-1.153,1.201-1.153c0.24,0,0.432,0.144,1.272,0.889
			c0.361,0.336,0.505,0.504,0.505,0.696c0,0.168-0.072,0.24-0.769,0.817v1.825h0.216c0.625-0.984,0.913-1.177,1.081-1.177
			c0.216,0,0.408,0.192,1.009,0.816c0.216,0.24,0.408,0.504,0.408,0.672c0,0.168-0.072,0.24-0.313,0.24h-2.401
			c0.024,1.513,0.072,2.57,0.072,2.978c0,0.648-0.384,0.961-1.081,0.961c-0.672,0-0.937-0.241-0.96-0.793H111.51z M111.486,84.777
			h3.074v-2.522h-3.074V84.777z M114.561,85.329h-3.074c0,0.865,0,1.729,0.024,2.594h3.05V85.329z"/>
		<path fill="#FFFFFF" d="M129.617,83.96c1.033-1.273,1.321-1.465,1.489-1.465c0.216,0,0.48,0.192,1.537,1.033
			c0.457,0.36,0.648,0.576,0.648,0.745c0,0.168-0.072,0.24-0.312,0.24h-7.589c-0.48,0-0.984,0.048-1.633,0.144l-0.265-0.889
			c0.769,0.144,1.345,0.192,1.921,0.192H129.617z M126.639,99.354v0.745c0,0.625-0.432,0.937-1.225,0.937
			c-0.696,0-1.008-0.24-1.008-0.816c0-0.745,0.072-1.514,0.072-4.588c0-1.128-0.024-2.257-0.144-3.41
			c1.201,0.504,1.369,0.576,2.546,1.201h2.401c0.841-1.009,1.033-1.153,1.225-1.153c0.24,0,0.432,0.144,1.297,0.841
			c0.384,0.336,0.528,0.504,0.528,0.696c0,0.24-0.168,0.432-0.696,0.792v0.792c0,2.065,0.096,3.482,0.096,3.938
			c0,0.624-0.432,0.937-1.297,0.937c-0.648,0-0.96-0.216-0.96-0.745v-0.168H126.639z M128.488,80.718
			c1.056-1.249,1.345-1.441,1.513-1.441c0.216,0,0.48,0.192,1.489,1.009c0.432,0.36,0.624,0.576,0.624,0.744
			c0,0.167-0.072,0.24-0.312,0.24h-5.62c-0.432,0-0.84,0.048-1.417,0.144l-0.264-0.888c0.673,0.144,1.177,0.192,1.681,0.192H128.488
			z M128.704,87.154c0.913-1.177,1.201-1.369,1.369-1.369c0.216,0,0.48,0.192,1.393,0.96c0.409,0.336,0.601,0.553,0.601,0.721
			s-0.072,0.24-0.312,0.24h-5.524c-0.433,0-0.889,0.048-1.465,0.144l-0.264-0.889c0.697,0.145,1.201,0.192,1.729,0.192H128.704z
			 M128.68,90.253c0.913-1.177,1.2-1.37,1.369-1.37c0.216,0,0.48,0.192,1.417,0.96c0.409,0.336,0.601,0.553,0.601,0.721
			c0,0.168-0.072,0.241-0.312,0.241h-5.524c-0.433,0-0.865,0.048-1.441,0.144l-0.264-0.889c0.672,0.144,1.201,0.193,1.705,0.193
			H128.68z M129.473,93.975h-2.834v4.828h2.834V93.975z M140.712,89.628c0.985-0.961,1.177-1.105,1.369-1.105
			c0.24,0,0.456,0.144,1.441,0.937c0.456,0.36,0.6,0.528,0.6,0.72c0,0.289-0.264,0.505-0.889,0.745
			c-0.888,1.921-1.921,3.554-3.194,4.923c1.585,1.081,3.507,1.802,5.764,2.162c0.12,0.024,0.12,0.216,0,0.24
			c-0.816,0.24-1.128,0.697-1.393,1.826c-0.072,0.36-0.168,0.504-0.336,0.504c-0.12,0-0.48-0.144-0.913-0.336
			c-1.706-0.648-3.242-1.754-4.467-3.123c-1.873,1.585-4.203,2.763-7.084,3.627c-0.12,0.024-0.241-0.265-0.12-0.313
			c2.33-1.081,4.467-2.762,6.124-4.683c-1.129-1.706-1.85-3.603-2.377-5.572h-0.384c-0.409,0-0.841,0.048-1.393,0.192l-0.264-0.937
			c0.696,0.144,1.225,0.192,1.753,0.192H140.712z M144.939,84.921c0,0.36,0.096,0.456,0.48,0.6c0.192,0.072,0.336,0.36,0.336,0.721
			c0,0.504-0.312,0.889-0.96,1.105c-0.553,0.192-1.321,0.288-2.33,0.288c-2.114,0-2.858-0.528-2.858-2.042
			c0-0.936,0.024-1.176,0.024-2.113v-2.45h-2.81v0.457c-0.024,1.921-0.24,3.242-0.769,4.275c-0.648,1.176-1.753,1.969-3.603,2.882
			c-0.096,0.048-0.313-0.096-0.216-0.169c1.105-1.08,1.729-2.041,2.041-3.337c0.217-0.817,0.289-1.753,0.289-2.906
			c0-0.961-0.048-1.657-0.168-2.882c1.201,0.504,1.417,0.576,2.498,1.129h2.642c0.769-0.889,0.913-1.009,1.177-1.009
			c0.216,0,0.432,0.096,1.225,0.768c0.289,0.241,0.48,0.504,0.48,0.625c0,0.241-0.168,0.433-0.625,0.697v3.723
			c0,0.384,0.168,0.456,0.937,0.456c0.576,0,0.889-0.024,1.128-0.288c0.289-0.288,0.48-0.889,0.792-2.137
			c0.024-0.121,0.289-0.121,0.289,0V84.921z M135.692,90.18c0.649,1.609,1.562,3.194,2.834,4.419
			c1.033-1.417,1.825-2.93,2.257-4.419H135.692z"/>
	</g>
	<g>
		<path fill="#FFFFFF" d="M51.905,118.082c0,0.556-0.301,0.833-0.902,0.833c-0.585,0-0.887-0.278-0.887-0.833v-4.526l-3.987-6.128
			c-0.095-0.146-0.143-0.31-0.143-0.457c0-0.474,0.458-0.866,0.981-0.866c0.285,0,0.506,0.114,0.665,0.359l3.418,5.393l3.355-5.393
			c0.174-0.261,0.396-0.376,0.68-0.376c0.475,0,0.965,0.359,0.965,0.882c0,0.18-0.047,0.294-0.142,0.457l-4.004,6.111V118.082z"/>
		<path fill="#FFFFFF" d="M66.088,118.082c0,0.556-0.3,0.833-0.902,0.833c-0.585,0-0.886-0.278-0.886-0.833v-11.144
			c0-0.556,0.301-0.85,0.886-0.85c0.602,0,0.902,0.294,0.902,0.85V118.082z"/>
		<path fill="#FFFFFF" d="M88.662,116.742c0,0.343,0.158,0.506,0.475,0.506h5.602c0.554,0,0.823,0.278,0.823,0.785
			c0,0.489-0.269,0.768-0.823,0.768h-5.888c-1.487,0-1.978-0.506-1.978-1.879v-9.984c0-0.556,0.301-0.85,0.886-0.85
			c0.618,0,0.902,0.294,0.902,0.85V116.742z"/>
		<path fill="#FFFFFF" d="M105.424,118.082c0,0.556-0.3,0.833-0.902,0.833c-0.585,0-0.886-0.278-0.886-0.833v-11.144
			c0-0.556,0.3-0.85,0.886-0.85c0.602,0,0.902,0.294,0.902,0.85V118.082z"/>
		<path fill="#FFFFFF" d="M116.616,115.01l-1.298,3.398c-0.142,0.36-0.411,0.523-0.744,0.523c-0.458,0-0.934-0.277-0.934-0.769
			c0-0.129,0.032-0.261,0.095-0.424l4.289-10.768c0.237-0.588,0.554-0.882,1.076-0.882c0.57,0,0.902,0.294,1.14,0.882l4.193,10.751
			c0.064,0.131,0.08,0.246,0.08,0.36c0,0.458-0.38,0.833-0.95,0.833c-0.348,0-0.632-0.147-0.775-0.523l-1.266-3.382H116.616z
			 M121.015,113.539l-0.997-2.696c-0.363-0.964-0.681-1.96-0.918-2.827c-0.253,0.85-0.554,1.83-0.934,2.827l-1.012,2.696H121.015z"
			/>
		<path fill="#FFFFFF" d="M142.604,117.788c0,0.751-0.284,1.127-0.854,1.127c-0.712,0-0.917-0.393-1.345-1.03l-4.795-7.254
			c-0.443-0.67-0.934-1.602-1.345-2.402c0.032,0.866,0.126,1.88,0.142,2.746l0.079,7.108c0,0.556-0.301,0.833-0.886,0.833
			c-0.569,0-0.838-0.278-0.838-0.833V107.2c0-0.735,0.332-1.111,0.997-1.111c0.711,0,1.028,0.441,1.408,1.012l4.716,7.141
			c0.459,0.686,0.934,1.732,1.266,2.451c-0.08-0.785-0.174-1.879-0.19-2.728l-0.079-7.027c0-0.556,0.285-0.85,0.854-0.85
			c0.585,0,0.87,0.294,0.87,0.85V117.788z"/>
	</g>
	<g>
		<path fill="#FFFFFF" d="M13.819,127.952c0-2.151,0.96-3.153,2.094-3.153c0.58,0,1.018,0.315,1.308,0.662l-0.455,0.48
			c-0.224-0.281-0.472-0.472-0.828-0.472c-0.695,0-1.324,0.745-1.324,2.458c0,1.738,0.588,2.483,1.35,2.483
			c0.355,0,0.637-0.183,0.902-0.538l0.455,0.463c-0.389,0.48-0.853,0.745-1.432,0.745C14.754,131.082,13.819,130.113,13.819,127.952
			z"/>
		<path fill="#FFFFFF" d="M20.391,128.739c0-1.589,0.786-2.359,1.705-2.359c0.919,0,1.706,0.77,1.706,2.359
			c0,1.573-0.787,2.343-1.706,2.343C21.177,131.082,20.391,130.312,20.391,128.739z M23.022,128.739
			c0-1.125-0.389-1.738-0.927-1.738c-0.546,0-0.927,0.613-0.927,1.738c0,1.118,0.381,1.713,0.927,1.713
			C22.634,130.452,23.022,129.857,23.022,128.739z"/>
		<path fill="#FFFFFF" d="M27.203,126.479h0.613l0.058,0.621h0.033c0.348-0.405,0.753-0.72,1.283-0.72
			c0.812,0,1.143,0.554,1.143,1.623v2.979H29.57v-2.897c0-0.728-0.166-1.06-0.654-1.06c-0.347,0-0.628,0.224-0.951,0.67v3.286
			h-0.762V126.479z"/>
		<path fill="#FFFFFF" d="M33.684,130.469l0.373-0.497c0.406,0.315,0.745,0.538,1.299,0.538c0.571,0,0.853-0.322,0.853-0.703
			c0-0.472-0.497-0.662-1.001-0.861c-0.596-0.24-1.308-0.538-1.308-1.308c0-0.712,0.563-1.266,1.523-1.266
			c0.571,0,1.001,0.224,1.357,0.497l-0.365,0.489c-0.314-0.232-0.579-0.397-0.984-0.397c-0.555,0-0.803,0.307-0.803,0.645
			c0,0.439,0.463,0.58,0.968,0.778c0.621,0.248,1.349,0.521,1.349,1.375c0,0.728-0.571,1.333-1.614,1.333
			C34.677,131.09,34.123,130.825,33.684,130.469z"/>
		<path fill="#FFFFFF" d="M41.216,129.442v-2.351h-0.927v-0.571l0.96-0.042l0.091-1.266h0.629v1.266h1.572v0.613h-1.572v2.367
			c0,0.646,0.215,1.019,0.827,1.019c0.249,0,0.48-0.058,0.712-0.173l0.157,0.554c-0.322,0.141-0.703,0.224-1.043,0.224
			C41.563,131.082,41.216,130.428,41.216,129.442z"/>
		<path fill="#FFFFFF" d="M47.423,126.479h0.612l0.058,0.927h0.033c0.373-0.604,0.869-1.026,1.482-1.026
			c0.314,0,0.48,0.05,0.712,0.141l-0.174,0.654c-0.215-0.1-0.355-0.124-0.596-0.124c-0.513,0-0.977,0.307-1.366,1.101v2.831h-0.761
			V126.479z"/>
		<path fill="#FFFFFF" d="M53.574,129.458v-2.979h0.761v2.881c0,0.728,0.149,1.076,0.646,1.076c0.348,0,0.612-0.224,0.936-0.67
			v-3.287h0.761v4.503h-0.612l-0.058-0.621h-0.033c-0.348,0.405-0.728,0.72-1.258,0.72
			C53.905,131.082,53.574,130.527,53.574,129.458z"/>
		<path fill="#FFFFFF" d="M60.236,128.739c0-1.506,0.935-2.367,2.012-2.367c0.538,0,0.91,0.232,1.208,0.521l-0.389,0.488
			c-0.224-0.231-0.464-0.389-0.778-0.389c-0.736,0-1.274,0.711-1.274,1.746c0,1.035,0.513,1.722,1.258,1.722
			c0.365,0,0.695-0.174,0.944-0.431l0.323,0.506c-0.364,0.355-0.836,0.554-1.341,0.554C61.097,131.09,60.236,130.22,60.236,128.739z
			"/>
		<path fill="#FFFFFF" d="M67.702,129.442v-2.351h-0.927v-0.571l0.96-0.042l0.091-1.266h0.629v1.266h1.573v0.613h-1.573v2.367
			c0,0.646,0.216,1.019,0.828,1.019c0.249,0,0.48-0.058,0.712-0.173l0.157,0.554c-0.323,0.141-0.704,0.224-1.043,0.224
			C68.05,131.082,67.702,130.428,67.702,129.442z"/>
		<path fill="#FFFFFF" d="M75.094,127.092h-1.523v-0.613h2.284v4.503h-0.761V127.092z M74.862,125.056
			c0-0.298,0.224-0.505,0.53-0.505c0.307,0,0.53,0.207,0.53,0.505s-0.223,0.497-0.53,0.497
			C75.085,125.552,74.862,125.354,74.862,125.056z"/>
		<path fill="#FFFFFF" d="M79.985,128.739c0-1.589,0.786-2.359,1.705-2.359s1.704,0.77,1.704,2.359c0,1.573-0.785,2.343-1.704,2.343
			S79.985,130.312,79.985,128.739z M82.618,128.739c0-1.125-0.389-1.738-0.927-1.738c-0.546,0-0.927,0.613-0.927,1.738
			c0,1.118,0.381,1.713,0.927,1.713C82.229,130.452,82.618,129.857,82.618,128.739z"/>
		<path fill="#FFFFFF" d="M86.797,126.479h0.613l0.058,0.621h0.034c0.347-0.405,0.753-0.72,1.283-0.72
			c0.811,0,1.143,0.554,1.143,1.623v2.979h-0.762v-2.897c0-0.728-0.166-1.06-0.654-1.06c-0.348,0-0.629,0.224-0.952,0.67v3.286
			h-0.762V126.479z"/>
		<path fill="#FFFFFF" d="M99.899,127.952c0-2.151,0.96-3.153,2.095-3.153c0.579,0,1.018,0.315,1.308,0.662l-0.456,0.48
			c-0.223-0.281-0.472-0.472-0.827-0.472c-0.695,0-1.325,0.745-1.325,2.458c0,1.738,0.588,2.483,1.349,2.483
			c0.356,0,0.638-0.183,0.902-0.538l0.456,0.463c-0.389,0.48-0.853,0.745-1.432,0.745
			C100.835,131.082,99.899,130.113,99.899,127.952z"/>
		<path fill="#FFFFFF" d="M106.472,128.739c0-1.589,0.787-2.359,1.705-2.359c0.919,0,1.705,0.77,1.705,2.359
			c0,1.573-0.786,2.343-1.705,2.343C107.259,131.082,106.472,130.312,106.472,128.739z M109.104,128.739
			c0-1.125-0.389-1.738-0.927-1.738c-0.546,0-0.927,0.613-0.927,1.738c0,1.118,0.381,1.713,0.927,1.713
			C108.715,130.452,109.104,129.857,109.104,128.739z"/>
		<path fill="#FFFFFF" d="M114.243,130.51c0-0.339,0.256-0.579,0.555-0.579c0.298,0,0.554,0.24,0.554,0.579
			c0,0.356-0.256,0.572-0.554,0.572C114.5,131.082,114.243,130.866,114.243,130.51z"/>
		<path fill="#FFFFFF" d="M120.667,132.107c0.514-0.231,0.836-0.613,0.844-1.109c-0.025,0.008-0.058,0.008-0.083,0.008
			c-0.299,0-0.563-0.207-0.563-0.546s0.264-0.53,0.563-0.53c0.405,0,0.646,0.34,0.646,0.886c0,0.794-0.464,1.423-1.201,1.738
			L120.667,132.107z"/>
		<path fill="#FFFFFF" d="M133.414,124.898h0.77v5.43h2.152v0.654h-2.922V124.898z"/>
		<path fill="#FFFFFF" d="M140.54,129.442v-2.351h-0.927v-0.571l0.96-0.042l0.091-1.266h0.629v1.266h1.573v0.613h-1.573v2.367
			c0,0.646,0.215,1.019,0.828,1.019c0.249,0,0.48-0.058,0.711-0.173l0.158,0.554c-0.323,0.141-0.704,0.224-1.043,0.224
			C140.888,131.082,140.54,130.428,140.54,129.442z"/>
		<path fill="#FFFFFF" d="M146.218,128.739c0-1.515,0.711-2.359,1.539-2.359c0.373,0,0.629,0.149,0.911,0.488l-0.025-0.786v-1.457
			h0.762v6.357h-0.638l-0.065-0.53h-0.017c-0.256,0.381-0.572,0.646-1.002,0.646C146.805,131.098,146.218,130.304,146.218,128.739z
			 M148.643,129.848v-2.4c-0.24-0.348-0.463-0.438-0.72-0.438c-0.497,0-0.927,0.662-0.927,1.729c0,1.109,0.314,1.713,0.861,1.713
			C148.138,130.452,148.386,130.287,148.643,129.848z"/>
	</g>
	<g>
		<path fill="#FFFFFF" d="M4.346,134.036l-0.703-0.012c0.243-14.071,0.811-50.586,0.57-52.711L0.741,77.75
			c-0.573-0.479-0.787-1.618-0.733-2.523c0.052-0.872,0.34-1.542,0.792-1.838l15.087-9.147c0.756-0.496,1.782-0.39,2.431,0.257
			c0.749,1.047,1.558,1.766,1.776,1.717l1.565-2.091c0.147-0.204,0.334-0.376,0.553-0.511l25.854-15.845
			c0.632-0.388,1.444-0.378,2.067,0.022L54,50.277l0.52-11.144c0.013-0.413,0.184-1.247,0.375-1.655
			c0.396-0.847,1.072-1.366,1.68-1.762l27.679-18.015c0.359-0.234,0.721-0.345,1.249-0.378l0.979-0.03l0.142-1.329
			c0.069-0.576,0.384-1.084,0.866-1.4l22.744-14.091c1.178-0.742,2.752-0.602,3.824,0.341l47.543,46.323
			c1.173,1.296,0.839,2.86,0.14,3.897l-2.239,2.486l0.496,80.232l-0.703,0.004l-0.498-80.505l2.391-2.649
			c0.237-0.357,1.022-1.746-0.093-2.979L113.58,1.331c-0.813-0.715-2.07-0.83-2.975-0.26L87.867,15.158
			c-0.3,0.197-0.501,0.522-0.545,0.887l-0.207,1.933l-1.579,0.047c-0.395,0.026-0.642,0.098-0.897,0.266l-27.68,18.015
			c-0.552,0.358-1.107,0.785-1.427,1.47c-0.146,0.312-0.298,1.045-0.309,1.385l-0.577,12.366l-4.893-3.145
			c-0.398-0.256-0.916-0.262-1.32-0.014L22.579,64.213c-0.14,0.086-0.259,0.196-0.355,0.329l-1.557,2.079
			c-0.14,0.192-0.347,0.293-0.585,0.298c-0.841-0.005-1.972-1.508-2.298-1.969c-0.375-0.368-1.031-0.436-1.521-0.115L1.175,73.983
			c-0.246,0.162-0.428,0.656-0.465,1.285c-0.05,0.836,0.169,1.682,0.509,1.968l3.568,3.66C4.934,81.017,5.255,81.287,4.346,134.036z
			"/>
	</g>
</g>
</svg>
