<?xml version="1.0" encoding="utf-8"?>
<!-- Generator: Adobe Illustrator 16.0.0, SVG Export Plug-In . SVG Version: 6.00 Build 0)  -->
<!DOCTYPE svg PUBLIC "-//W3C//DTD SVG 1.1//EN" "http://www.w3.org/Graphics/SVG/1.1/DTD/svg11.dtd">
<svg version="1.1" id="圖層_1" xmlns="http://www.w3.org/2000/svg" xmlns:xlink="http://www.w3.org/1999/xlink" x="0px" y="0px"
	 width="154.848px" height="17.142px" viewBox="0 0 154.848 17.142" enable-background="new 0 0 154.848 17.142"
	 xml:space="preserve">
<g>
	<g>
		<g>
			<line fill="none" stroke="#F2F2F2" stroke-width="2" stroke-miterlimit="10" x1="154.848" y1="2.771" x2="92.14" y2="2.771"/>
			<line fill="none" stroke="#F2F2F2" stroke-width="2" stroke-miterlimit="10" x1="154.848" y1="13.937" x2="92.14" y2="13.937"/>
		</g>
	</g>
	<g>
		<path fill="#F2F2F2" d="M15.713,16.948L15.689,4.6L9.563,14.89H8.45L2.324,4.673v12.275H0V0h1.985l7.07,11.912L16.028,0h1.985
			l0.024,16.948H15.713z"/>
		<path fill="#F2F2F2" d="M35.421,14.842v2.106H23.122V0h11.96v2.106h-9.54v5.206h8.499V9.37h-8.499v5.472H35.421z"/>
		<path fill="#F2F2F2" d="M53.919,0v16.948h-1.985L41.765,4.31v12.639h-2.421V0h1.985l10.169,12.638V0H53.919z"/>
		<path fill="#F2F2F2" d="M60.747,15.205c-1.259-1.292-1.889-3.148-1.889-5.569V0h2.421v9.54c0,3.632,1.589,5.447,4.77,5.447
			c1.549,0,2.736-0.448,3.559-1.344c0.823-0.896,1.235-2.264,1.235-4.104V0h2.349v9.636c0,2.438-0.629,4.298-1.889,5.581
			c-1.259,1.283-3.019,1.925-5.278,1.925S62.006,16.497,60.747,15.205z"/>
	</g>
</g>
</svg>
