<?xml version="1.0" encoding="utf-8"?>
<!-- Generator: Adobe Illustrator 16.0.0, SVG Export Plug-In . SVG Version: 6.00 Build 0)  -->
<!DOCTYPE svg PUBLIC "-//W3C//DTD SVG 1.1//EN" "http://www.w3.org/Graphics/SVG/1.1/DTD/svg11.dtd">
<svg version="1.1" id="圖層_1" xmlns="http://www.w3.org/2000/svg" xmlns:xlink="http://www.w3.org/1999/xlink" x="0px" y="0px"
	 width="146.372px" height="45.922px" viewBox="0 0 146.372 45.922" enable-background="new 0 0 146.372 45.922"
	 xml:space="preserve">
<line fill="none" stroke="#F2F2F2" stroke-width="2" stroke-miterlimit="10" x1="145.665" y1="45.047" x2="101.323" y2="0.707"/>
<line fill="none" stroke="#F2F2F2" stroke-width="2" stroke-miterlimit="10" x1="145.665" y1="0.875" x2="101.323" y2="45.215"/>
<g>
	<path fill="#F2F2F2" d="M15.713,30.338l-0.024-12.347l-6.125,10.29H8.45L2.324,18.063v12.275H0V13.391h1.985l7.07,11.912
		l6.973-11.912h1.985l0.024,16.947H15.713z"/>
	<path fill="#F2F2F2" d="M35.421,28.232v2.106H23.122V13.391h11.96v2.106h-9.54v5.206h8.499v2.058h-8.499v5.472L35.421,28.232
		L35.421,28.232z"/>
	<path fill="#F2F2F2" d="M53.919,13.391v16.947h-1.985L41.765,17.7v12.638h-2.421V13.391h1.985L51.498,26.03V13.391H53.919z"/>
	<path fill="#F2F2F2" d="M60.747,28.596c-1.259-1.291-1.889-3.147-1.889-5.569v-9.636h2.421v9.539c0,3.632,1.589,5.447,4.77,5.447
		c1.549,0,2.736-0.447,3.559-1.344c0.823-0.896,1.235-2.264,1.235-4.104v-9.539h2.349v9.636c0,2.438-0.629,4.297-1.889,5.581
		c-1.259,1.283-3.019,1.926-5.278,1.926C63.766,30.534,62.006,29.887,60.747,28.596z"/>
</g>
</svg>
