<?xml version="1.0" encoding="utf-8"?>
<!-- Generator: Adobe Illustrator 24.1.3, SVG Export Plug-In . SVG Version: 6.00 Build 0)  -->
<svg version="1.1" id="圖層_1" xmlns="http://www.w3.org/2000/svg" xmlns:xlink="http://www.w3.org/1999/xlink" x="0px" y="0px"
	 viewBox="0 0 667 436.4" style="enable-background:new 0 0 667 436.4;" xml:space="preserve">
<style type="text/css">
	.st0{fill:#231815;}
	.st1{fill-rule:evenodd;clip-rule:evenodd;fill:#CA0915;}
	.st2{fill:#FFFFFF;}
	.st3{fill:none;stroke:#231815;stroke-width:0.25;stroke-miterlimit:10;}
</style>
<g>
	<g>
		<path class="st0" d="M142.5,344.3l1.7,4.8h-0.4c-4.3-4.3-9.4-6.5-15.3-6.5c-6.1,0-10.9,1.8-14.7,5.4c-3.7,3.6-5.6,8-5.6,13.1
			c0,3.2,0.8,6.8,2.5,10.9c1.7,4.1,4.3,7.5,7.9,10.2c3.6,2.7,7.9,4,13.1,4c3.4,0,6.6-0.6,9.8-1.7c3.2-1.1,5.6-2.5,7.2-4.3l0.4,0.1
			l-3.1,4.8c-5,1.1-8.3,1.7-9.8,1.9c-1.5,0.2-3.5,0.3-6.1,0.3c-9.4,0-16-2.1-20-6.5c-4-4.3-6.1-9.5-6.1-15.6c0-4.1,1-8,3.1-11.8
			c2.1-3.8,5-6.7,8.9-8.9c3.9-2.2,8.3-3.2,13.4-3.2c2.5,0,4.7,0.2,6.5,0.7c1.9,0.5,3.4,0.9,4.5,1.4l2,0.8
			C142.5,344.2,142.5,344.3,142.5,344.3z"/>
		<path class="st0" d="M175.7,341.4c6.3,0,11.4,1.9,15.4,5.7s6,8.5,6,14.3c0,7.3-2.3,13.5-6.9,18.5c-4.6,5-10.7,7.5-18.3,7.5
			c-6.2,0-11.2-2-15.1-6.1s-5.9-8.9-5.9-14.5c0-3.8,1-7.7,2.8-11.8c1.9-4,4.8-7.3,8.5-9.8C166,342.6,170.5,341.4,175.7,341.4z
			 M175.6,385c3.1,0,6.1-0.8,9.1-2.5s5.4-3.9,7-6.8c1.7-2.9,2.5-5.9,2.5-8.9c0-4.3-1.2-8.3-3.4-11.8c-2.3-3.5-5.3-6.3-9-8.3
			c-3.7-2-7.1-3-10.2-3c-4.4,0-8.4,1.7-12,5c-3.6,3.3-5.4,7.4-5.4,12.4c0,6.3,2.2,11.8,6.6,16.7C165.2,382.6,170.1,385,175.6,385z"
			/>
		<path class="st0" d="M242.3,342h7v0.5c-2.4,0.1-3.6,1.4-3.6,3.7c0,0.5,0.1,1.2,0.2,2.1l4.7,33.8c0.3,1.7,0.6,2.8,1,3.2
			c0.3,0.5,1.1,0.8,2.2,0.8v0.5h-10.1v-0.5c1.3,0.1,2-0.6,2-1.9c0-0.3-0.1-0.9-0.2-1.8l-4.5-32.8l-16,36.9h-0.3l-16.1-36.8
			l-4.5,32.9c-0.1,0.5-0.1,1.1-0.1,1.7c0,1.2,0.7,1.7,2.1,1.7v0.5h-6.8v-0.5c1,0,1.7-0.1,2-0.3c0.3-0.3,0.6-0.7,0.7-1.2
			c0.1-0.6,0.3-1.2,0.3-1.9l5.1-36c-0.8-2-1.7-3.2-2.5-3.6c-0.8-0.4-1.7-0.6-2.4-0.6v-0.5h8.4l15.7,36.5L242.3,342z"/>
		<path class="st0" d="M268,342v0.5c-0.6-0.1-1.2,0-1.9,0.3c-0.7,0.3-1.2,0.6-1.2,1c-0.1,0.5-0.2,1.6-0.2,3.3v34.2
			c0,1.9,0.1,3,0.2,3.4c0.1,0.4,0.4,0.8,0.9,1c0.4,0.3,1.2,0.4,2.3,0.4v0.5h-11.9v-0.5c1.5,0,2.4-0.3,2.8-0.9
			c0.3-0.6,0.6-1.9,0.6-3.9v-33.8c0-2.1-0.2-3.5-0.6-4.1c-0.4-0.6-1.3-1-2.8-0.9V342H268z"/>
		<path class="st0" d="M309.1,342h8.6v0.5c-1.3,0.1-2.2,0.3-2.8,0.8c-0.5,0.5-0.8,1.6-0.8,3.2v40.6l-35.6-37.9v33
			c0,1,0.1,1.9,0.3,2.3c0.1,0.5,0.4,0.8,0.7,1c0.3,0.2,1,0.3,2.3,0.6v0.5h-8.5v-0.5c1.5,0,2.5-0.3,2.9-0.8c0.3-0.6,0.6-1.9,0.6-3.9
			v-30.2c0-2.6-0.3-4.8-1.1-6.5s-2.4-2.5-5.1-2.3V342h8.4l33.5,35.6v-31.5c0-1.7-0.3-2.8-0.9-3.1s-1.4-0.6-2.3-0.6L309.1,342
			L309.1,342z"/>
		<path class="st0" d="M365.9,386.2v0.5h-18c-3.4,0-6.5-0.3-9.1-1.1c-2.6-0.8-5.2-2.1-7.9-4.3c-2.7-2.1-4.9-4.7-6.5-7.8
			c-1.7-3.1-2.5-6.3-2.5-9.6c0-3.6,1-7.1,3.2-10.6c2.1-3.5,5.1-6.4,8.9-8.6s8.2-3.3,13.1-3.3c4.4,0,9,1,13.9,2.9l1.9,5.2h-0.4
			c-1.6-2-3.6-3.6-6.4-4.9s-5.7-1.9-9-1.9c-5.8,0-10.5,2.1-14.1,6.5c-3.6,4.3-5.5,9.7-5.5,16.1c0,2.7,0.3,5,0.9,7.2s1.7,4.1,3.4,6.2
			c1.7,2.1,3.4,3.5,5.4,4.5s4.1,1.7,6.4,2c2.3,0.3,4.3,0.6,5.6,0.5l2.4-0.1c2.7-0.1,4.4-0.3,5.1-0.8c0.7-0.4,1-1.4,1-3.1v-6.7
			c0-1.3-0.3-2.2-0.8-2.6c-0.6-0.4-1.3-0.6-2.3-0.6v-0.5H366v0.5c-1.3,0-2.1,0.3-2.6,0.8c-0.4,0.5-0.6,1.4-0.6,2.9v6.9
			c0,1.4,0.2,2.4,0.6,3c0.3,0.6,1,0.9,2.1,0.9L365.9,386.2L365.9,386.2z"/>
		<path class="st0" d="M408.7,342.6l2.1,5.6l-0.3,0.1c0,0-0.6-0.6-1.7-1.8c-1.1-1.2-2.4-2.1-3.9-2.7s-3.1-1-4.9-1
			c-3,0-5.4,0.9-7.2,2.6c-1.8,1.7-2.7,3.9-2.7,6.3c0,1.7,0.4,3,1.2,4.3c0.8,1.2,2.6,2.3,5.2,3.4c4.5,1.5,7.7,2.7,9.4,3.5
			c1.7,0.8,3.3,2.1,4.9,3.9c1.6,1.9,2.3,4.3,2.3,7.2c0,1.2-0.1,2.3-0.4,3.4c-0.3,1.1-0.8,2.1-1.4,3.2c-0.6,1-1.4,1.9-2.3,2.8
			s-1.8,1.4-2.7,1.9s-2.3,0.8-4.3,1c-1.9,0.2-3.2,0.3-3.9,0.3h-11.9v-13h0.5c0.1,4.3,1,7.3,3,9c2,1.7,5,2.5,9.2,2.5
			c3.8,0,6.7-0.9,8.7-2.7c2-1.8,3-3.9,3-6.5c0-1.5-0.3-2.8-1-3.9c-0.7-1.1-1.7-2-2.9-2.8c-1.2-0.8-3.6-1.8-7-3
			c-3.4-1.2-5.8-2.3-7.2-3.2s-2.5-2.3-3.4-4.1c-1-1.8-1.4-3.6-1.4-5.5c0-3.4,1.2-6.3,3.6-8.7c2.3-2.3,5.5-3.5,9.4-3.5
			c1.5,0,3.1,0.1,4.8,0.5C407.5,342.3,408.5,342.5,408.7,342.6C408.6,342.6,408.7,342.6,408.7,342.6z"/>
		<path class="st0" d="M441.7,341.4c6.3,0,11.4,1.9,15.4,5.7s6,8.5,6,14.3c0,7.3-2.3,13.5-6.9,18.5c-4.6,5-10.7,7.5-18.3,7.5
			c-6.2,0-11.2-2-15.1-6.1s-5.9-8.9-5.9-14.5c0-3.8,1-7.7,2.8-11.8c1.9-4,4.8-7.3,8.5-9.8C431.9,342.6,436.5,341.4,441.7,341.4z
			 M441.5,385c3.1,0,6.1-0.8,9.1-2.5s5.4-3.9,7-6.8c1.7-2.9,2.5-5.9,2.5-8.9c0-4.3-1.2-8.3-3.4-11.8c-2.3-3.5-5.3-6.3-9-8.3
			c-3.7-2-7.1-3-10.2-3c-4.4,0-8.4,1.7-12,5c-3.6,3.4-5.4,7.4-5.4,12.4c0,6.3,2.2,11.8,6.6,16.7C431.1,382.6,436,385,441.5,385z"/>
		<path class="st0" d="M492.1,341.4c6.3,0,11.4,1.9,15.4,5.7s6,8.5,6,14.3c0,7.3-2.3,13.5-6.9,18.5c-4.6,5-10.7,7.5-18.3,7.5
			c-6.2,0-11.2-2-15.1-6.1s-5.9-8.9-5.9-14.5c0-3.8,1-7.7,2.8-11.8c1.9-4,4.8-7.3,8.5-9.8C482.3,342.6,486.9,341.4,492.1,341.4z
			 M491.9,385c3.1,0,6.1-0.8,9.1-2.5s5.4-3.9,7-6.8c1.7-2.9,2.5-5.9,2.5-8.9c0-4.3-1.2-8.3-3.4-11.8c-2.3-3.5-5.3-6.3-9-8.3
			c-3.7-2-7.1-3-10.2-3c-4.4,0-8.4,1.7-12,5c-3.6,3.4-5.4,7.4-5.4,12.4c0,6.3,2.2,11.8,6.6,16.7S486.5,385,491.9,385z"/>
		<path class="st0" d="M554.5,342h8.6v0.5c-1.3,0.1-2.2,0.3-2.8,0.8c-0.5,0.5-0.8,1.6-0.8,3.2v40.6L524,349.3v33
			c0,1,0.1,1.9,0.3,2.3c0.2,0.5,0.4,0.8,0.7,1s1,0.3,2.3,0.6v0.5h-8.5v-0.5c1.5,0,2.5-0.3,2.9-0.8c0.3-0.6,0.6-1.9,0.6-3.9v-30.2
			c0-2.6-0.3-4.8-1.1-6.5c-0.8-1.7-2.4-2.5-5.1-2.3V342h8.4l33.5,35.6v-31.5c0-1.7-0.3-2.8-0.9-3.1c-0.6-0.3-1.4-0.6-2.3-0.6
			L554.5,342L554.5,342z"/>
	</g>
	<g id="XMLID_2319_">
		<g id="XMLID_2331_">
			<g id="XMLID_2351_">
				<g id="XMLID_2361_">
					<path id="XMLID_2366_" class="st1" d="M253.1,49.1c25.2-0.3,43.1,6.5,57.7,16.8c5.6,4,11.5,8.3,15.8,13.6
						c1.4,1.6,2.8,3.1,4.2,4.7c2.8,3.6,5.5,7.4,7.9,11.4c0.9,1.5,2.2,3.3,2.8,5c0,0,0,0-0.1,0c-5.2-3.8-10.5-7.7-15.7-11.5
						c-3.1-2.2-4.1-4.4-8.5-5.5c-3.7-0.9-8.9,0.2-12.3,0.9c-1.3,0.3-2.6,0.3-3.7,0.8c-0.5,0.3-0.4,0.8-0.8,1.2c0,0-0.1,0-0.1,0
						c-0.2,0.1-2.1,1-2.2,1.1c-0.7,0-1.4,0-2.1,0c-0.5,0.2-1,0.4-1.6,0.7c-0.4,0.1-1-0.2-1.5-0.1c-0.9,0.3-1.7,1.2-2.8,1.4
						c-0.8,0.2-1.4-0.2-2.2-0.1c-1.4,0.2-2.9,0.3-4.2,0.8c-0.7,0.5-1.4,1-2.2,1.5c-0.9,0.6-1.8,0.9-2.6,1.5c-1,0.8-2,2-3.4,2.3
						c-0.8,0.1-1.7,0.1-2.5,0.2c-0.8-1.7-3-1.2-4.8-1.6c-1.3-0.3-2.4-0.9-3.9-1.2c-1.1,0-2.2-0.1-3.3-0.1c-0.8,0-1.7,0-2.5-0.1
						c-0.7,0.2-1.4,0.6-2.3,0.7c-1.8,0.3-3.3,0.1-4.6,0.7c-1.4,0.6-2.2,1.8-3.9,2.2c-1.4,0.3-2.7-0.4-3.8-0.3
						c-2.3,0.3-4.3,2-6.1,2.8c-1.3,0.4-2.6,0.8-3.9,1.3c-0.6,0.3-1.1,0.7-1.7,1c-0.4,0-0.8,0-1.1,0c-0.6,0.6-1.1,1.2-1.7,1.7
						c-1.1,0.8-2.2,1.6-3.3,2.4c-1.8,0.7-4.6-1.7-5.7-2.1c-0.6-0.2-1.3-0.6-2.2-0.4c-0.6,0.1-2.1,0.4-2.8,0.1
						c-0.5-0.3-1-0.6-1.5-0.9c-1,0-2-0.1-3-0.1c-0.4-0.4-0.7-0.8-1.1-1.2c-1.5-0.7-2.9-1.4-4.4-2.2c-1.2-0.4-2.8-0.2-4.3-0.5
						c-2.1-0.4-3.5-1.3-5.3-1.9c-1-0.3-1.8-0.1-2.6-0.7c-0.5-1.2-4.2-4.9-5.4-5.2c-1.7,0-3.4,0-5.1,0.1c-2.2,1-4.3,1.9-6.5,2.9
						c-0.3,0.3-0.6,0.5-1,0.8c2.9-5.4,7.3-9.7,11-14.3c2.1-2.7,4.8-5.1,7.5-7.3c2.3-1.9,4.6-3.9,7-5.7c7.8-5.6,16.7-10.2,26.9-13.4
						c5-1.6,10.3-2.5,16-3.6c2.3-0.2,4.6-0.4,6.9-0.7C251.5,49.2,252.3,49.1,253.1,49.1z"/>
					<path id="XMLID_2364_" class="st1" d="M313.2,85.5c3.5-0.1,5.9,1.1,7.8,2.6c0.4,0.5,0.9,1,1.3,1.6c2,1.5,4.1,3,6.1,4.5
						c5,3.7,10.1,7.4,15.1,11.1c0.2,0.6,0.5,1.2,0.7,1.8c0.9,2.2,1.8,4.4,2.6,6.7c2.8,8.1,5,17.5,5,28.3c-2-0.2-4.5,0.2-6.6-0.2
						c-2.4-0.5-4.7-1.1-7-1.6c-1.1,0-2.2,0-3.3,0c-4,0-8.1-0.1-12.1-0.1c-2.3-0.5-4.7-1.1-7-1.6c-1.9-0.8-3.5-2.4-5.7-2.9
						c-2.7-0.7-6-0.1-8.7-0.5c-0.7-0.1-1.3-0.1-2-0.2c-1-0.4-1.9-1.4-2.9-1.9c-1.7-0.7-3.5-1.4-5.2-2.1c-3.5-1.5-6.1-3.4-10.5-4.2
						c-2.9-0.5-6.6,1.5-8.5,2.4c-1,0.3-1.9,0.6-2.9,0.9c-3.6,1.5-7.5,3-11.4,4.3c-1.5,0.7-3.1,1.4-4.6,2.1c-1.3-0.1-2.6-0.9-3.6-1.5
						c-1-0.5-2-0.9-3-1.4c-2.2-1.4-3.5-3.3-6.5-4c-1.5-0.4-4.1-0.4-5.7-0.1c-1.1,0.3-2.7,0.8-4.4,0.5c-4-0.7-8-0.7-11.8-1.5
						c-1.7-0.4-3.4-1.1-4.9-1.4c-1-0.2-2.4,0.4-3.4,0.1c-0.7-0.3-1.4-0.6-2.2-0.8c-1.1-0.3-2.4-0.4-3.3-1c-3.5-2.2-5.2-5-9.4-6.7
						c-0.9-0.3-1.8-0.5-2.7-0.8c-1.4-0.1-2.8-0.2-4.3-0.3c-0.8-0.4-1.6-0.9-2.3-1.3c-0.9-0.4-2.1-0.4-2.8-0.9
						c-1.7-1.1-2.9-2.4-5.3-3c-2.1-0.5-4.5,0.4-6.6,0c-1.7-0.3-3.6-0.8-5.1-1.4c0.6-1.8,1.6-3.5,2.2-5c0.9-2,1.8-3.9,2.8-5.9
						c0.6-0.5,1.2-1,1.9-1.5c2.1-1.6,3.2-3,5.9-4.2c2-0.9,3.2-1.8,6.2-1.8c0.5,0,1,0,1.5,0c0.9,0.3,3,2.4,3.6,3.2
						c0.7,0.9,1.1,2.1,2.4,2.5c0.7,0.1,1.4,0.1,2,0.2c1.8,0.6,3.4,1.5,5.6,1.9c1.4,0.3,2.9,0,4,0.4c1.2,0.6,2.5,1.2,3.7,1.9
						c0.5,0.5,0.9,1,1.4,1.6c1.1,0,2.2,0.1,3.4,0.1c0.5,0.3,1,0.6,1.5,0.9c1.6,0.5,3.6-0.3,4.9,0.2c1.1,0.6,2.2,1.2,3.2,1.9
						c0.7,0.1,1.4,0.2,2,0.2c0.6,0,1.2,0,1.9,0.1c1.2-0.8,2.4-1.7,3.7-2.5c0.5-0.5,1-1.1,1.5-1.6c0.3,0,0.6,0,0.9,0
						c0.7-0.4,1.3-0.8,2-1.2c1.3-0.4,2.6-0.8,3.9-1.3c1.7-0.8,3.2-2.1,5.3-2.5c1.2-0.3,2.5,0.6,3.9,0.2c1-0.3,1.9-0.6,2.9-1
						c0.9-0.5,1.3-1.4,2.6-1.7c1.1-0.1,2.1-0.1,3.2-0.2c2-0.3,4.7-1.1,7.3-0.5c2.2,0.5,4.2,1.6,6.6,1.4c1.7,2,4.7,1.6,7.1,0.5
						c0.9-0.7,1.7-1.4,2.6-2.1c0.8-0.6,1.7-0.9,2.5-1.4c0.8-0.5,1.5-1,2.3-1.5c1.6-0.6,3.5,0.1,5.4-0.4c1.1-0.3,2.1-1.1,2.9-1.4
						c0.5,0,1,0,1.6,0.1c0.4-0.2,0.7-0.4,1.1-0.6c0.9,0,1.7,0,2.6,0c0.4-0.3,0.9-0.6,1.3-0.9c0.7-0.2,1.3-0.4,2-0.6
						c0.2-0.4,0.4-0.8,0.6-1.1c2.1-0.4,4.3-0.8,6.4-1.1C310.3,85.9,311.8,85.7,313.2,85.5z"/>
					<path id="XMLID_2362_" class="st1" d="M165.8,113c1.9,0.5,3.7,1.2,6,1.5c1.7,0.2,3.9-0.6,5.7-0.1c2.1,0.5,3.3,1.9,4.9,2.9
						c0.9,0.5,2.1,0.5,3.1,1c0.7,0.4,1.4,0.8,2.1,1.3c1.4,0.5,2.9,0.2,4.6,0.4c1.1,0.2,2.2,0.5,3.1,0.9c3.1,1.3,4.8,3.7,7.4,5.5
						c1.4,1,3,1.3,4.9,1.9c0.8,0.3,1.5,0.6,2.3,0.9c1.2,0.3,2.5-0.1,3.6,0c0.6,0.2,1.3,0.4,1.9,0.7c1.5,0.3,2.9,0.6,4.4,0.9
						c3.6,0.7,7.4,0.7,11.2,1.3c1.6,0.3,3.1-0.3,4.2-0.5c1.5-0.4,3.8-0.3,5.2,0.1c1.9,0.5,2.9,2,4.4,3c1.9,1.4,5.9,3.4,8.6,3.9
						c1.6,0.3,4.1-1.7,5.5-2.2c4.1-1.4,8-3,11.8-4.5c0.9-0.3,1.7-0.5,2.6-0.8c1.8-0.7,4.9-2.7,7.7-2.2c3.8,0.7,6.2,2.5,9.2,3.8
						c1.8,0.8,3.7,1.5,5.5,2.3c0.9,0.5,1.9,1.6,2.8,2c0.7,0.1,1.3,0.1,2,0.2c1.3,0.1,2.5,0.3,3.8,0.4c1.7,0,3.4,0.1,5.1,0.1
						c2.1,0.4,3.6,2,5.2,2.8c2.1,0.5,4.2,1,6.3,1.5c3.5,0.9,8.6,0.4,12.8,0.4c1.3,0,2.7,0,4,0c2.4,0.5,4.9,1.2,7.5,1.6
						c2.2,0.4,4.6-0.3,6.5,0.2c0.2,15.8-3.6,28.4-8.4,39.3c-11.5,26.3-33.1,44.6-62.3,53.3c-16.4,4.9-38.3,3.8-53.6-1.1
						c-29.9-9.4-51.4-30.8-61.9-59.7C159.3,157.9,158.7,131.1,165.8,113z"/>
				</g>
				<path id="XMLID_2360_" class="st2" d="M264.9,123.3c-0.1,0.1-0.2,0.2-0.3,0.2c-0.1,0-0.1,0-0.1-0.1c0,0-0.1,0-0.1,0
					c-0.1,0-0.1-0.1-0.1-0.1c0-0.1,0.1-0.1,0.1-0.1c0,0,0,0,0-0.1c0,0-0.1,0-0.1,0c0,0-0.1,0,0-0.1c0-0.1,0.1-0.1,0.1-0.1
					c0,0,0-0.1,0-0.1c0,0,0,0-0.1,0c0,0-0.1,0-0.1,0c0,0,0,0,0-0.1c0-0.1,0.1-0.1,0.1-0.2c0-0.1,0-0.1,0-0.1c0,0-0.1,0.1-0.2,0.1
					l0,0c-0.1,0.1-0.2,0.1-0.1,0c0-0.1,0-0.2,0-0.2c0,0,0-0.1,0-0.1c0,0-0.1,0-0.1,0.1c-0.1,0.1-0.2,0.2-0.3,0.3
					c-0.1,0.1-0.1,0.1-0.1,0c0-0.1,0.1-0.2,0.1-0.3c0-0.1,0-0.2,0-0.2c0,0,0-0.1,0-0.1c0,0,0,0,0,0c0,0-0.1,0-0.1,0.1
					c0,0.1-0.1,0.1-0.1,0.2c0,0.1,0,0.1-0.1,0.1c0,0,0,0,0-0.1c0-0.1,0-0.2,0-0.2c0-0.1-0.1-0.1-0.1-0.1c0,0,0,0,0,0
					c0,0-0.1,0.2-0.1,0.3l-0.1,0.3c0,0.1-0.1,0.3-0.1,0.4l-0.2,0.6c0,0.1-0.1,0.3-0.1,0.4c0,0.1,0,0.2,0,0.3c0,0.1,0,0.2-0.1,0.2
					c0,0-0.1,0.1-0.2,0.1c0,0-0.1,0.1-0.1,0.1c0,0-0.1,0.1-0.1,0.2c0,0.1-0.1,0.1-0.1,0.1c0,0,0,0,0,0s0.1,0,0.2,0
					c0.1,0,0.2,0,0.2,0c0,0,0.1,0.1,0.1,0.1c0,0,0,0.1,0.1,0.2c0,0.1,0.1,0.2,0.1,0.3c0.1,0.1,0.2,0.2,0.2,0.3
					c0.1,0.1,0.2,0.2,0.3,0.2l0,0c0.1,0.1,0.3,0.1,0.4,0.2c0.1,0,0.3,0.1,0.4,0.1c0.1,0,0.2,0,0.2,0c0,0,0.1,0,0.1,0
					c0,0,0.1,0,0.1,0c0,0,0.1,0,0.3,0c0.1,0,0.2,0.1,0.3,0.2c0,0.1,0.1,0.2,0.2,0.4l0.1,0.1c0,0.1,0.1,0.2,0.1,0.3
					c0,0,0.1,0,0.1,0.1c0,0,0.1,0,0.1,0c0,0,0.1,0,0.1,0c0,0,0.1,0,0.1,0c0,0,0.1,0,0.1,0c0,0,0.1,0,0.1,0c0,0,0.1,0,0.1,0
					c0,0,0.1,0,0.1,0c0,0,0.1,0,0.1-0.1c0,0,0,0,0.1,0c0,0,0.1,0,0.1,0c0,0,0.1,0,0.1,0c0,0,0,0,0,0c0,0,0,0,0.1,0
					c0,0,0.1,0,0.1-0.1c0,0,0,0,0.1,0c0,0,0.1,0,0.1,0c0,0,0.1,0,0.1,0c0,0,0,0,0-0.1c0,0,0,0,0,0c0,0,0,0,0.1,0l0,0c0,0,0,0,0,0
					c0,0,0,0,0,0c0,0,0,0,0.1,0c0,0,0,0,0-0.1c0,0-0.1-0.1-0.2-0.1l-0.6-0.3c-0.1-0.1-0.3-0.1-0.4-0.2l-0.1-0.1
					c-0.1-0.1-0.2-0.1-0.3-0.2c-0.1,0-0.2-0.1-0.3-0.2l0,0c-0.1-0.1-0.2-0.2-0.3-0.3c-0.1-0.1-0.2-0.2-0.3-0.2
					c-0.1-0.1-0.2-0.1-0.2-0.1c0,0,0.1,0,0.2,0c0.1,0,0.2,0.1,0.3,0.1c0.1,0,0.2,0,0.2,0c0,0,0.1,0,0.1,0c0,0,0,0,0,0c0,0,0,0,0-0.1
					c0,0,0-0.1,0-0.1c0,0,0,0,0.1,0c0.1,0,0.1,0,0.1,0c0,0,0,0,0,0c0,0,0,0,0,0c0,0,0,0,0,0c0,0,0.1,0,0.1-0.1c0,0,0-0.1-0.1-0.1
					c0,0-0.2-0.1-0.3-0.1c-0.1,0-0.1,0,0,0h0.1c0.1,0,0.3,0,0.3,0c0,0,0.1,0,0.1,0c0,0,0-0.1,0-0.1c0,0,0,0,0-0.1c0,0,0.1,0,0.1,0
					c0,0,0,0,0,0c0,0-0.1,0-0.3,0H265c-0.1,0-0.1,0,0,0l0.2,0c0.1,0,0.3,0,0.3,0c0,0,0.1,0,0.1-0.1c0,0,0.1-0.1,0.1-0.1
					c0,0,0-0.1-0.1-0.1c-0.1,0-0.2,0-0.4,0l-0.2,0c-0.1,0-0.1,0,0,0l0.4,0c0.1,0,0.3-0.1,0.3-0.1c0,0,0.1,0,0.1-0.1
					c0,0,0.1-0.1,0.1-0.1c0,0-0.1,0-0.2,0c-0.1,0-0.3,0-0.4,0l-0.1,0c-0.1,0-0.1,0,0,0l0.3,0c0.1,0,0.3-0.1,0.3-0.1
					c0,0,0.1-0.1,0.2-0.1c0.1,0,0.1-0.1,0.1-0.1c0,0,0,0,0,0c0,0-0.1,0-0.2,0c-0.1,0-0.3,0.1-0.4,0.1l-0.1,0c-0.1,0-0.1,0,0,0
					l0.3-0.1c0.1,0,0.3-0.1,0.3-0.1c0,0,0.1-0.1,0.2-0.1c0.1,0,0.1-0.1,0.1-0.1c0,0-0.1,0-0.2,0l-0.3,0.1c-0.1,0-0.1,0,0,0l0.4-0.2
					c0.1,0,0.2-0.1,0.3-0.1c0,0,0.1-0.1,0.1-0.1c0,0,0-0.1,0-0.1c0,0,0,0-0.1,0c0,0-0.1,0-0.2,0c-0.1,0-0.1,0,0-0.1
					c0-0.1,0.1-0.1,0.1-0.1c0,0,0-0.1,0-0.1c0,0,0-0.1,0-0.1c0,0-0.1,0-0.2,0.1c-0.1,0.1-0.2,0.2-0.3,0.2c-0.1,0.1-0.1,0.1,0,0
					c0.1-0.1,0.2-0.2,0.2-0.2c0-0.1,0.1-0.1,0.1-0.2c0,0,0-0.1,0-0.1c0,0,0,0,0,0c0,0-0.1,0.1-0.2,0.1l-0.2,0.2
					c-0.1,0.1-0.2,0.2-0.2,0.1c0,0,0-0.1,0-0.1c0-0.1,0.1-0.1,0.1-0.2c0,0,0-0.1,0-0.1c0,0,0,0,0-0.1c0,0-0.1,0.1-0.2,0.2l-0.1,0.1
					c-0.1,0.1-0.2,0.3-0.3,0.4L264.9,123.3L264.9,123.3z"/>
				<path id="XMLID_2359_" class="st2" d="M268.3,116.1c-0.1,0-0.1,0-0.1,0c0,0,0-0.1,0.1-0.2c0,0,0-0.1,0-0.1c0,0,0-0.1,0-0.1
					c0,0,0-0.1,0-0.2c0-0.1,0.1-0.1,0.1-0.2c0,0,0.1-0.1,0.2-0.1c0.1,0,0.1-0.1,0-0.2c0-0.1-0.2-0.2-0.2-0.3
					c-0.1-0.1-0.2-0.3-0.3-0.4l-0.3-0.3c-0.1-0.1-0.3-0.3-0.3-0.4l-0.1-0.1c-0.1-0.1-0.2-0.3-0.3-0.4c0-0.1-0.1-0.3-0.1-0.4
					c0-0.1,0-0.2,0-0.2c0-0.1,0.1-0.1,0.1-0.1c0.1,0,0.1,0,0.1,0.1c0,0,0,0,0-0.1c0-0.1,0-0.2-0.1-0.3c0-0.1,0-0.1,0-0.2
					c0,0,0-0.1,0.1-0.1c0,0,0.1,0,0.1,0c0,0,0.1,0.1,0.1,0.1c0,0,0.1,0.1,0.1,0c0,0,0-0.1,0-0.1c0,0,0-0.1,0-0.1c0,0,0,0,0.1,0
					c0,0,0.1,0.1,0.1,0.1c0,0.1,0.1,0.1,0.1,0c0,0,0-0.1,0.1-0.1c0,0,0,0,0.1,0c0,0,0.1,0,0.1,0.1c0,0.1,0.1,0.2,0.1,0.3
					c0,0,0,0,0.1,0c0-0.1,0-0.2,0.1-0.2c0-0.1,0.1-0.1,0.1-0.2c0,0,0,0,0.1-0.1c0,0,0.1,0,0.1,0.1c0,0,0,0.1,0.1,0.2c0,0,0,0,0,0
					c0,0,0-0.1,0.1-0.1c0,0,0.1,0,0.1,0c0,0,0.1,0,0.1,0.1c0,0,0,0.1,0,0.2c0,0.1,0.1,0.1,0.1,0.1c0,0,0.1-0.1,0.1-0.1
					c0,0,0,0,0.1,0c0,0,0.1,0.1,0.1,0.1c0,0,0,0.2,0,0.2c0,0.1,0,0.1,0.1,0c0.1-0.1,0.1-0.1,0.2-0.2c0.1,0,0.1,0,0.1,0
					c0,0,0,0.1,0,0.1c0,0.1,0,0.1,0,0.2c0,0.1,0,0.1,0,0.1c0,0,0.1-0.1,0.1-0.1c0,0,0.1,0,0.1,0c0,0,0,0.1,0.1,0.1c0,0,0,0.1,0,0.2
					c0,0.1,0,0.2,0.1,0.1c0.1,0,0.2,0,0.2,0c0,0,0.1,0,0.1,0.1c0,0,0,0.1,0,0.2c0,0,0,0.1,0,0.1c0,0,0.1,0,0.1,0c0,0,0,0,0.1,0
					c0,0,0,0.1,0,0.1c0,0-0.1,0.1-0.1,0.1c0,0,0,0.1,0,0.1c0,0,0,0.1,0,0.2c0,0.1,0,0.1,0,0.1c0,0,0-0.1,0.1-0.2
					c0-0.1,0.1-0.3,0.1-0.4c0-0.1,0.1-0.1,0.1-0.2c0,0,0.1-0.1,0.1-0.3l0.1-0.3c0-0.1,0.1-0.4,0.2-0.5l0-0.1c0-0.1,0.1-0.3,0.1-0.5
					c0-0.1,0.1-0.3,0.2-0.4v0c0.1-0.1,0.1-0.3,0.1-0.3c0,0,0,0,0,0.1c0,0,0,0.1-0.1,0.2c0,0.1-0.1,0.2-0.1,0.3
					c0,0.1-0.1,0.3-0.1,0.5l0,0.2c0,0.2,0,0.3,0,0.3c0,0,0,0,0,0c0,0,0,0.1,0,0.1c0,0,0,0.1,0,0.1c0,0,0,0,0,0.1c0,0,0,0,0,0
					c0,0,0,0,0.1,0c0,0,0,0.1,0,0.2c0,0,0,0.1,0,0.2c0,0,0,0.1,0,0.1c0,0,0.1,0,0.1,0c0,0,0,0.1,0,0.1c0,0,0,0.1,0,0.1c0,0,0,0,0,0
					c0,0,0,0.1,0,0.1c0,0.1,0,0.1,0,0.1c0,0,0,0,0.1,0.1c0,0,0,0.1,0,0.1c0,0-0.1,0.1-0.2,0.1c-0.1,0-0.1,0.1,0,0c0.1,0,0.2,0,0.2,0
					c0,0,0.1,0,0.1,0c0,0,0,0.1,0,0.1c0,0-0.1,0.1-0.1,0.1c-0.1,0-0.1,0.1-0.2,0.1c-0.1,0-0.2,0-0.2,0c0,0,0,0,0,0
					c0.1,0,0.2,0,0.2,0c0.1,0,0.2,0,0.2,0.1c0.1,0,0.1,0.1,0.1,0.1c0,0,0,0.1,0,0.1c0,0-0.1,0-0.1,0c0,0,0,0,0,0
					c0,0,0.1,0.1,0.1,0.1c0,0,0,0.1-0.1,0.1c0,0-0.1,0-0.1,0c0,0,0,0,0,0.1c0.1,0,0.1,0.1,0.1,0.1c0,0,0,0.1,0,0.1c0,0-0.1,0-0.1,0
					c0,0-0.1,0-0.1,0c0,0,0,0,0.1,0.1c0.1,0.1,0.1,0.1,0.1,0.2c0,0,0,0,0,0c0,0,0,0.1,0,0.1c0,0,0.1,0.1,0.2,0.2
					c0.1,0.1,0.2,0.2,0.3,0.3c0.1,0.1,0.3,0.2,0.3,0.2c0.1,0,0.1,0,0.2,0c0,0,0.1,0,0.1,0c0,0,0.2,0.1,0.3,0.1l0.4,0.1
					c0.2,0,0.4,0.1,0.5,0.1l0.2,0c0.2,0,0.4,0,0.5,0l0.1,0c0.2,0,0.3,0,0.3,0c0,0,0,0.1-0.1,0.1c0,0-0.1,0.1-0.1,0.1
					c-0.1,0-0.1,0-0.1,0c0,0,0,0,0.1,0.1c0.1,0,0.1,0.1,0.1,0.1c0,0-0.1,0.1-0.1,0.1c-0.1,0-0.2,0.1-0.3,0c-0.1,0-0.1,0-0.1,0
					c0,0,0,0,0,0.1c0,0,0.1,0.1,0.1,0.1c0,0,0,0,0,0.1c0,0,0,0-0.1,0.1c0,0-0.1,0-0.1,0c-0.1,0-0.1,0-0.1,0c0,0,0,0.1,0,0.1
					c0,0-0.1,0.1-0.1,0.1c-0.1,0-0.1,0-0.2,0c0,0-0.1,0-0.1,0c0,0,0,0.1-0.1,0.1c0,0-0.1,0-0.1,0c0,0-0.1,0-0.1,0c0,0,0,0-0.1,0
					c0,0,0,0,0,0s0,0-0.1,0.1c0,0-0.1,0-0.1,0c0,0-0.1,0-0.1,0c0,0-0.1,0-0.1,0c0,0-0.1,0.1-0.1,0.1c0,0-0.1,0-0.1,0
					c0,0-0.1-0.1-0.2-0.1c-0.1-0.1-0.2-0.3-0.2-0.4c-0.1-0.1-0.2-0.3-0.3-0.4c-0.1-0.1-0.2-0.1-0.2-0.1c0,0,0,0.1-0.1,0.1
					c0,0-0.1,0-0.1,0c-0.1,0-0.1,0-0.1,0c0,0,0,0,0,0.1c0,0,0,0-0.1,0c0,0-0.1,0-0.1,0c0,0,0,0,0,0c0,0,0.1,0,0.1,0c0,0,0.1,0,0,0
					c0,0-0.1,0-0.2,0c0,0-0.1-0.1-0.1-0.1c0-0.1-0.1-0.1-0.2-0.1c-0.1,0-0.2,0-0.3,0c-0.1,0-0.3-0.1-0.4-0.1c-0.1,0-0.3-0.1-0.4-0.2
					l0,0c-0.1-0.1-0.3-0.2-0.3-0.2c0,0-0.1-0.1-0.1-0.1c-0.1,0-0.1,0-0.2,0c0,0-0.1,0-0.2-0.1C268.5,116,268.4,116,268.3,116.1
					L268.3,116.1z"/>
				<path id="XMLID_2358_" class="st2" d="M237.2,123.9C237.1,123.9,237.1,123.9,237.2,123.9l0.1-0.2c0.1-0.1,0.2-0.2,0.3-0.3
					l0.3-0.3c0.1-0.1,0.2-0.2,0.3-0.3l0,0c0.1-0.1,0.2-0.2,0.2-0.3c0-0.1,0.1-0.2,0.1-0.3c0.1-0.1,0.2-0.1,0.3-0.2
					c0.1,0,0.2-0.1,0.3-0.1c0.1,0,0.2,0,0.3,0c0.1,0,0.2,0,0.3,0l0.1,0c0.1-0.1,0.2-0.2,0.2-0.3v-0.3c0-0.1,0-0.3,0-0.4l0.1-0.8
					c0-0.1,0-0.3,0.1-0.4l0.1-0.6c0-0.1,0.1-0.3,0.1-0.4l0.1-0.4c0-0.1,0.1-0.3,0.2-0.4l0.1-0.3c0-0.1,0.1-0.2,0.1-0.1
					c0,0,0,0.1,0,0.2c0,0.1,0,0.2,0,0.3c0,0.1,0,0.2,0.1,0.2c0,0,0,0.1,0,0.2v0c0,0.1,0,0.2,0,0.2c0,0,0.1,0.1,0.1,0.2c0,0,0,0,0,0
					c0,0,0,0,0,0c0,0,0.1,0,0.1,0c0,0.1,0.1,0.1,0.1,0.1c0,0,0,0.1,0,0.1c0,0.1,0,0.1,0.1,0.1c0,0,0,0.1,0,0.2c0,0.1,0,0.2,0,0.2
					c0,0,0.1,0,0.1,0.1c0,0,0,0.1,0,0.1c0,0,0,0.1,0,0.1c0,0,0.1,0.1,0,0.2c0,0.1,0,0.1,0,0.1c0,0,0.1,0.1,0.1,0.1c0,0,0,0.1,0,0.1
					c0,0,0,0,0,0.1c0,0,0,0.1,0,0.1c0,0.1,0,0.1,0,0.2c0,0,0,0.1,0,0.2c0,0.1,0,0.1,0,0.1c0,0,0.1,0,0,0.1c0,0.1,0,0.2,0,0.2
					c0,0,0,0.1,0,0.2c0,0.1,0.1,0.1,0.2,0.1l0.6,0.1c0.1,0,0.3,0,0.4,0c0.1,0,0.3,0,0.4,0l0.5,0c0.1,0,0.3,0,0.4,0.1
					c0.1,0,0.2,0.1,0.3,0.1c0,0,0.1,0.1,0.1,0.1c0,0,0,0.1,0,0.1c0.1,0,0,0.1,0,0.1c0,0,0,0,0,0.1c0,0,0,0.1-0.1,0.1l-0.1,0
					c-0.1,0-0.1,0,0,0l0.1,0c0.1,0,0.2,0.1,0.2,0.1c0,0,0,0.1,0,0.1c0,0-0.2,0-0.3,0l-0.1,0c-0.1,0-0.1,0,0,0.1l0.2,0.1
					c0.1,0,0.2,0.1,0.2,0.1c0,0,0,0.1-0.1,0.1c-0.1,0-0.2,0-0.3,0l-0.3,0c-0.1,0-0.1,0,0,0l0.3,0.1c0.1,0,0.2,0.1,0.2,0.1
					c0,0-0.1,0-0.2,0h0c-0.1,0-0.3,0-0.4-0.1l-0.8-0.3c-0.1,0-0.3-0.1-0.3-0.2l0,0c-0.1-0.1-0.2-0.1-0.3,0c-0.1,0-0.2,0.1-0.2,0.1
					c-0.1,0-0.1,0.1,0,0.1c0.1,0,0.1,0.1,0.2,0.1c0,0,0,0-0.1,0l-0.1,0c-0.1,0-0.2-0.1-0.3-0.1c-0.1,0-0.2,0-0.3,0l-0.1,0
					c-0.1,0-0.3,0-0.4,0.1c-0.1,0-0.3,0.1-0.4,0l-0.4,0c-0.1,0-0.3,0-0.4,0l-0.2,0c-0.1,0-0.3,0-0.4,0l-0.2,0c-0.1,0-0.3,0-0.4,0
					c-0.1,0-0.3,0-0.3,0c-0.1,0-0.2,0.1-0.3,0.1l-0.2,0.2c-0.1,0.1-0.2,0.2-0.3,0.3L237.2,123.9L237.2,123.9z"/>
				<path id="XMLID_2357_" class="st2" d="M210.7,144.4c-0.1,0-0.2,0-0.1-0.1c0,0,0.1-0.1,0.1-0.1c0,0,0.1-0.1,0.1-0.1
					c0,0,0-0.1,0-0.1c0,0,0.1-0.1,0.1-0.2c0-0.1,0.1-0.1,0.2-0.1c0,0,0.1,0,0.2-0.1c0.1,0,0.1-0.1,0.1-0.2c0-0.1-0.1-0.2-0.1-0.4
					c0-0.1-0.1-0.4-0.1-0.5l-0.1-0.4c-0.1-0.1-0.1-0.4-0.2-0.5l-0.1-0.2c-0.1-0.2-0.1-0.4-0.1-0.5c0-0.1,0-0.3,0.1-0.4
					c0-0.1,0.1-0.2,0.1-0.2c0,0,0.1,0,0.1,0c0,0,0.1,0.1,0.1,0.1c0,0,0,0,0-0.1c0-0.1,0-0.2,0-0.3c0-0.1,0.1-0.1,0.1-0.1
					c0,0,0.1-0.1,0.1-0.1c0,0,0.1,0,0.1,0.1c0,0,0.1,0.1,0.1,0.2c0,0.1,0,0.1,0.1,0.1c0,0,0.1-0.1,0.1-0.1c0,0,0.1-0.1,0.1-0.1
					c0,0,0.1,0,0.1,0.1c0,0,0,0.1,0,0.2c0,0.1,0,0.1,0.1,0c0,0,0.1-0.1,0.1-0.1c0,0,0.1,0,0.1,0c0,0,0.1,0.1,0,0.2
					c0,0.1,0,0.2,0,0.3c0,0.1,0,0.1,0,0c0,0,0.1-0.1,0.1-0.2c0,0,0.1-0.1,0.1-0.1c0,0,0.1,0,0.1,0c0,0,0.1,0,0.1,0.1
					c0,0,0,0.1,0,0.2c0,0,0,0,0,0c0,0,0.1,0,0.1-0.1c0,0,0.1,0,0.1,0c0,0,0.1,0.1,0.1,0.1c0,0,0,0.1,0,0.2c0,0.1,0,0.1,0.1,0.1
					c0,0,0.1-0.1,0.1-0.1c0,0,0.1,0,0.1,0c0,0,0,0.1,0,0.1c0,0.1,0,0.2,0,0.2c0,0.1,0,0.1,0.1,0.1c0.1,0,0.2-0.1,0.2-0.1
					c0.1,0,0.1,0,0.1,0c0,0,0,0.1,0,0.1c0,0-0.1,0.1-0.1,0.2c0,0.1,0,0.1,0,0.1c0,0,0.1,0,0.2,0c0,0,0.1,0,0.1,0c0,0,0,0.1,0,0.1
					c0,0,0,0.1-0.1,0.2c-0.1,0.1-0.1,0.2,0,0.2c0.1,0,0.2,0,0.2,0c0,0,0.1,0.1,0.1,0.1c0,0,0,0.1-0.1,0.1c-0.1,0-0.1,0.1,0,0.1
					c0.1,0,0.1,0,0.1,0c0,0,0.1,0,0.1,0.1c0,0,0,0.1-0.1,0.1c0,0-0.1,0.1-0.1,0.1c0,0-0.1,0.1-0.1,0.1c0,0,0,0.1-0.1,0.2
					c0,0.1,0,0.1,0,0.1c0,0,0.1-0.1,0.2-0.2c0.1-0.1,0.2-0.3,0.2-0.3c0.1-0.1,0.1-0.1,0.1-0.1c0,0,0.1-0.1,0.2-0.2l0.2-0.2
					c0.1-0.1,0.3-0.3,0.4-0.5l0.1-0.1c0.1-0.1,0.3-0.3,0.3-0.4c0.1-0.1,0.2-0.3,0.3-0.4l0,0c0.1-0.1,0.2-0.2,0.2-0.2c0,0,0,0,0,0
					c0,0-0.1,0.1-0.1,0.2c0,0-0.1,0.2-0.2,0.3c-0.1,0.1-0.2,0.3-0.3,0.4l-0.1,0.2c-0.1,0.1-0.2,0.2-0.1,0.2c0,0,0,0,0,0
					c0,0,0,0.1,0,0.1c0,0,0,0.1,0,0.1c0,0,0,0.1,0,0.1c0,0,0,0,0,0c0,0,0,0,0,0.1c0,0,0,0.1,0,0.1c0,0-0.1,0.1-0.1,0.1
					c0,0,0,0.1,0,0.1c0,0,0.1,0,0.1,0c0,0,0,0-0.1,0.1c0,0,0,0.1,0,0.1c0,0,0,0,0,0.1c0,0,0,0.1-0.1,0.1c0,0-0.1,0.1-0.1,0.1
					c0,0,0,0,0,0.1c0,0,0,0.1-0.1,0.1c0,0-0.1,0.1-0.3,0.1c-0.1,0-0.1,0-0.1,0c0.1,0,0.2,0,0.2,0.1c0,0,0.1,0,0.1,0.1
					c0,0,0,0.1-0.1,0.1c0,0-0.1,0-0.2,0.1c-0.1,0-0.2,0-0.2,0c-0.1,0-0.2,0-0.2,0c0,0,0,0,0,0c0.1,0,0.2,0.1,0.2,0.1
					c0.1,0,0.1,0.1,0.2,0.2c0,0,0.1,0.1,0,0.1c0,0,0,0.1-0.1,0.1s-0.1,0-0.1,0c0,0,0,0,0,0c0,0,0,0.1,0,0.1c0,0,0,0-0.1,0
					c0,0-0.1,0-0.1,0c0,0,0,0,0,0.1c0,0.1,0.1,0.1,0.1,0.2c0,0,0,0.1,0,0.1c0,0-0.1,0-0.1,0c0,0-0.1-0.1-0.1-0.1c0,0,0,0,0,0.1
					c0,0.1,0.1,0.2,0.1,0.2c0,0,0,0,0,0c0,0,0,0,0,0.1c0,0,0,0.2,0.1,0.3c0,0.1,0.1,0.3,0.2,0.4c0.1,0.1,0.2,0.3,0.2,0.3
					c0,0,0.1,0.1,0.1,0.1c0,0,0.1,0.1,0.1,0.1c0,0,0.1,0.1,0.3,0.2l0.3,0.2c0.1,0.1,0.4,0.2,0.5,0.3l0.2,0.1
					c0.1,0.1,0.4,0.2,0.5,0.2l0.1,0.1c0.1,0.1,0.3,0.1,0.3,0.2c0,0-0.1,0-0.1,0.1c0,0-0.2,0-0.2,0c0,0-0.1,0-0.1,0
					c0,0,0,0.1,0.1,0.1c0,0.1,0.1,0.1,0,0.1c0,0-0.1,0-0.2,0.1c-0.1,0-0.2,0-0.3-0.1c0,0-0.1-0.1-0.1-0.1c0,0,0,0,0,0.1
					c0,0,0,0.1,0,0.1c0,0,0,0.1,0,0.1c0,0-0.1,0-0.1,0c0,0-0.1,0-0.1-0.1c0,0-0.1,0-0.1,0c0,0-0.1,0-0.1,0.1c0,0-0.1,0-0.2,0
					c-0.1,0-0.1,0-0.2-0.1c0,0-0.1,0-0.1,0c0,0-0.1,0.1-0.1,0.1c0,0-0.1,0-0.1,0c0,0-0.1-0.1-0.1-0.1c0,0,0-0.1,0-0.1c0,0,0,0,0,0
					c0,0,0,0-0.1,0c0,0-0.1,0-0.1,0c0,0-0.1-0.1-0.1-0.1c0,0-0.1,0-0.1,0c0,0-0.1,0-0.1,0c0,0-0.1,0-0.1,0c0,0-0.1-0.1-0.1-0.2
					c0-0.1-0.1-0.3-0.1-0.4c0-0.1-0.1-0.3-0.2-0.5c-0.1-0.1-0.1-0.2-0.2-0.2c0,0-0.1,0-0.1,0c0,0-0.1,0-0.1,0c0,0-0.1-0.1-0.1-0.1
					c0,0,0,0-0.1,0c0,0,0,0-0.1,0c0,0-0.1,0-0.1,0c0,0,0,0,0,0.1c0,0,0.1,0.1,0.1,0.1c0,0,0,0,0,0c0,0-0.1,0-0.2-0.1
					c0,0-0.1-0.1-0.1-0.2c0-0.1-0.1-0.1-0.1-0.2c-0.1,0-0.2-0.1-0.3-0.2c-0.1-0.1-0.3-0.2-0.3-0.3c-0.1-0.1-0.2-0.3-0.3-0.4l0,0
					c-0.1-0.1-0.2-0.3-0.2-0.3c0,0-0.1-0.1-0.1-0.1c0,0-0.1-0.1-0.2-0.1c0,0-0.1-0.1-0.2-0.1C210.9,144.4,210.8,144.4,210.7,144.4
					L210.7,144.4z"/>
				<path id="XMLID_2356_" class="st2" d="M202.7,145.9c0-0.1,0-0.3,0-0.4c0-0.1-0.1-0.2-0.1-0.4c-0.1-0.2-0.1-0.5-0.1-0.8
					c0-0.1,0.1-0.2,0.1-0.4c0.1-0.2,0.1-0.4,0.2-0.6c0.1-0.1,0.2-0.3,0.2-0.4c0.1-0.2,0.2-0.3,0.3-0.5c0,0,0.2-0.3,0.2-0.1
					c0,0.2-0.1,0.3-0.1,0.5c0,0,0.1-0.1,0.1-0.1c0,0,0,0,0,0.1c0-0.1,0.1-0.1,0.2-0.2c0,0,0-0.1,0.1-0.1c0.1-0.1,0.1,0.2,0.1,0.2
					c0,0,0.1,0,0.1-0.1c0.1,0,0.1,0.2,0.1,0.2c0,0.1,0,0.1-0.1,0.2c0.1,0,0.1,0,0.2,0.1c0,0.1,0,0.2-0.1,0.3c0.1,0,0.2,0,0.2,0.1
					c0,0.1,0,0.2,0,0.3c0,0,0.1,0,0.1,0c0,0,0,0.1,0,0.2c0,0.1,0,0.1-0.1,0.1c0.1,0,0.1,0.1,0.2,0.1c0,0.1,0,0.1-0.1,0.2
					c0.1,0,0.1-0.1,0.1-0.2c0,0,0-0.1,0.1-0.1c0,0,0.1,0,0.1,0c0.1,0,0.1-0.1,0.2-0.1c0,0,0.1,0,0.1-0.1c0,0,0,0,0.1-0.1
					c0,0,0,0,0.1-0.1c0-0.1,0.1-0.1,0.1-0.2c0.1-0.1,0.2-0.2,0.2-0.3c0.1-0.2,0.3-0.3,0.4-0.5c0.1,0.1,0,0.3-0.1,0.4
					c0,0.1,0,0.1-0.1,0.2c0,0.1-0.1,0.1-0.1,0.2c0.1,0,0.1-0.1,0.2-0.1c0,0,0.1-0.1,0.2-0.1c0-0.1,0.1-0.1,0.2-0.1
					c0,0,0.1,0,0.1-0.1c0,0,0-0.1,0.1-0.1c0.1,0,0,0.1,0,0.2c0,0,0,0.1,0,0.1c0,0,0,0,0,0c0,0,0.1-0.1,0.1-0.1c0,0.1,0,0.1-0.1,0.2
					c0,0.1-0.1,0.1-0.1,0.2c0.1-0.1,0.1,0,0.1,0.1c0,0.1-0.1,0.1-0.1,0.2c0,0,0,0.1-0.1,0.1c0.1,0,0.1,0,0.1,0.1
					c0,0-0.1,0.1-0.1,0.1c0.1,0.1-0.1,0.3-0.1,0.3c0.1,0-0.1,0.2-0.1,0.2c0,0,0.1,0.1,0.1,0.1c0,0,0,0-0.1,0.1c0,0,0,0-0.1,0.1
					c0,0.1,0,0.1-0.1,0.2c0.1,0,0,0.1,0,0.1c0,0-0.1,0-0.1,0c0,0-0.1,0-0.1,0c0,0.1,0.2,0.1,0.2,0.2c0,0.1-0.1,0-0.2,0
					c0,0,0.1,0.1,0.1,0.1c0,0.1-0.1,0-0.1,0.1c0,0,0,0.1,0,0.1c0,0-0.1,0-0.1,0c0,0.1,0,0.2-0.1,0.2c0,0-0.1,0-0.1,0.1c0,0,0,0,0,0
					c0,0,0,0,0,0c0,0-0.1,0-0.1,0c0,0.1,0.1,0.2-0.1,0.2c0,0-0.1,0-0.1,0c0,0-0.1,0-0.1,0.1c0.1,0,0.1,0.1,0.2,0.1
					c0,0,0.1,0,0.1,0.1c0.1,0,0.1,0,0.1,0.1c0.1,0,0.1,0,0.1,0.1c0,0,0.1,0,0.1,0c0.1,0,0.1,0,0.1,0c0,0,0,0,0,0c0,0,0,0,0.1,0
					c0,0,0.1,0,0.1,0c0,0,0.1,0,0.1,0c0,0,0.1,0,0.1,0c0.1,0,0.1,0,0.1,0c0.1,0,0.2,0,0.2,0.1c0,0,0,0,0.1,0c0,0,0.1,0,0.1,0.1
					c-0.2,0-0.3,0-0.5,0c-0.1,0-0.2,0-0.3,0c-0.1,0-0.2,0-0.3,0c-0.1,0-0.1,0-0.2,0c-0.1,0-0.1,0.1-0.2,0.1c-0.1,0-0.1,0.1-0.2,0.1
					c-0.1,0-0.2,0-0.3,0c-0.1,0-0.1,0-0.2,0c-0.1,0-0.2,0-0.3,0c-0.1,0-0.2,0-0.3,0c-0.1,0-0.2,0-0.3-0.1c-0.1,0-0.2,0-0.2,0
					c-0.1,0-0.2-0.1-0.2-0.1c-0.1,0-0.1-0.1-0.2-0.1c-0.1-0.1-0.2-0.1-0.2-0.1c-0.2-0.1-0.3-0.2-0.4-0.3c-0.1-0.1-0.2-0.1-0.3-0.1
					c-0.1,0-0.2,0.1-0.3,0.1c0-0.1,0-0.1,0.1-0.2c0,0,0.1-0.1,0.1-0.1c0-0.1,0-0.1,0.1-0.2c0,0,0.1,0,0.2-0.1c0.1,0,0.2,0,0.2,0
					c0.1,0,0.1,0.1,0.2,0.1C202.5,146,202.7,146,202.7,145.9"/>
				<path id="XMLID_2355_" class="st2" d="M232.9,143.3c0,0.2,0,0.3,0,0.5c0,0.1,0,0.2,0,0.3c0,0.2,0.2,0.4,0.2,0.7
					c0,0.3-0.1,0.5,0,0.8c0.1,0.3,0.1,0.6,0.2,0.9c0.1,0.2,0.1,0.4,0.2,0.5c0.1,0.2,0.2,0.3,0.2,0.5c0,0,0.1,0,0.1-0.1
					c0,0,0-0.1,0-0.1c0,0,0-0.1,0-0.1c0-0.1,0-0.1,0-0.1c0.1,0.1,0.1,0.1,0.2,0.2c0,0,0,0.1,0.1,0.1c0.1,0.1,0.1,0.2,0.1,0.2
					c0,0,0,0.1,0.1,0.2c0,0,0.1-0.1,0.1-0.1c0-0.1,0-0.1,0-0.2c0-0.1,0-0.1,0-0.1c0.1,0,0.1,0.1,0.2,0.1c0,0.1,0.1,0.1,0.1,0.2
					c0.1,0.1,0.1-0.3,0.1-0.4c0.2,0.1,0.2-0.2,0.2-0.4c0.2,0.1,0.1-0.2,0.1-0.3c0.1,0,0.2,0.1,0.3,0.1c0.1-0.1,0-0.1,0-0.2
					c0.1-0.1,0.1-0.1,0.1-0.2c0-0.1,0.1,0,0.1-0.1c0-0.1-0.1-0.1,0-0.2c0.1-0.1,0.1-0.1,0.1-0.2c0-0.1,0-0.2-0.1-0.2
					c-0.1,0-0.2,0.1-0.3,0c-0.1-0.1,0.1-0.1,0.1-0.1c0.1,0,0.2,0,0.4,0.1c0,0,0-0.1,0-0.1c0-0.1,0,0,0-0.1c0-0.1,0-0.1-0.1-0.1
					c0-0.1,0.1,0,0.1-0.1c0,0,0-0.1,0-0.1c0-0.1-0.1-0.1-0.2-0.1c0,0,0.1,0,0.1-0.1c0,0,0.1-0.1,0.1-0.1c0-0.1-0.1-0.2-0.2-0.2
					c0,0,0,0,0.1,0c0,0,0-0.1,0.1-0.1c0,0,0.1-0.1,0.1-0.1c-0.1,0-0.1-0.1-0.2-0.1c0,0,0.1-0.1,0.1-0.1c0,0,0.1-0.1,0.1-0.1
					c0-0.1,0-0.1-0.1-0.2c-0.1-0.2-0.2-0.6,0-0.8c0.2-0.3,0.7-0.2,0.9-0.2c0.2,0,0.4,0,0.7,0c0.1,0,0.3,0,0.4-0.1
					c0.1-0.1-0.5-0.3-0.6-0.3c-0.4-0.1-0.8-0.2-1.3-0.2c-0.3-0.1-0.7-0.2-1-0.2c-0.4-0.1-0.8-0.2-1.2-0.2c-0.4,0-0.7,0.1-1.1,0.1
					c-0.3,0-0.7,0-1,0.2c-0.3,0.1-0.5,0.4-0.6,0.7c0.1-0.1,0.1-0.2,0.3-0.2c0.1,0,0.2,0,0.3,0.1c0,0.1-0.1,0.2-0.1,0.2
					c-0.1,0.1-0.1,0.2-0.2,0.3c-0.1,0.1-0.1,0.2-0.2,0.3c0,0.1-0.1,0.2-0.2,0.2c-0.1,0.1-0.3,0-0.4,0.2c0,0-0.1,0-0.1,0
					c0,0-0.1,0-0.1,0c-0.1,0-0.1,0.1,0,0.2c0,0-0.1,0-0.1-0.1c0,0,0-0.1-0.1-0.1c-0.1,0-0.1,0.1,0,0.2c-0.1-0.1-0.2-0.1-0.3-0.2
					c-0.1,0-0.1,0-0.1,0.1c0.1,0.2,0.4,0.3,0.6,0.3c0.2,0,0.4-0.2,0.6-0.3c0.2-0.1,0.3-0.3,0.5-0.4c0,0,0,0.1,0,0.1
					c0.1,0,0.1-0.1,0.2-0.1c0.1-0.1,0.1-0.1,0.2-0.2c-0.1,0.1,0.1,0.1,0.2,0c0,0,0.1,0,0.1-0.1c0,0,0-0.1,0.1-0.1c0,0,0,0.1,0,0.1
					c0.1,0,0.2-0.1,0.3-0.2c0,0,0,0,0.1,0c0,0,0,0,0.1,0c0.1,0,0.1,0,0.1,0c0.1,0,0.1,0,0.2,0c0,0,0.1,0,0.1,0c0,0,0,0,0.1,0
					c0,0,0.1,0,0.1,0c0,0,0,0,0.1,0C232.8,143.2,232.8,143.2,232.9,143.3C232.9,143.2,232.9,143.3,232.9,143.3"/>
				<path id="XMLID_2354_" class="st2" d="M306.6,99.9c0,0.1,0,0.2,0,0.3c0,0.1,0,0.2,0,0.3c0,0.2,0.1,0.3,0.1,0.5
					c0,0.2,0,0.4,0,0.6c0.1,0.2,0.1,0.5,0.1,0.7c0,0.1,0.1,0.3,0.1,0.4c0,0.1,0.1,0.2,0.1,0.4c0,0,0.1,0,0.1,0c0,0,0-0.1,0-0.1
					c0,0,0-0.1,0-0.1c0,0,0-0.1,0-0.1c0,0,0.1,0.1,0.1,0.1c0,0,0,0.1,0,0.1c0,0.1,0.1,0.1,0.1,0.2c0,0,0,0.1,0,0.1
					c0,0,0.1-0.1,0.1-0.1c0,0,0-0.1,0-0.1c0,0,0-0.1,0-0.1c0,0,0.1,0.1,0.1,0.1c0,0,0,0.1,0.1,0.1c0.1,0.1,0.1-0.3,0.1-0.3
					c0.2,0.1,0.2-0.2,0.1-0.3c0.1,0.1,0-0.2,0-0.2c0.1,0,0.1,0.1,0.2,0.1c0.1,0,0-0.1,0-0.2c0.1,0,0-0.1,0.1-0.1c0,0,0.1,0,0.1-0.1
					c0-0.1-0.1-0.1,0-0.2c0-0.1,0.1-0.1,0.1-0.2c0-0.1,0-0.1-0.1-0.1c-0.1,0-0.2,0-0.2,0c-0.1-0.1,0-0.1,0.1-0.1c0.1,0,0.2,0,0.3,0
					c0,0,0,0,0-0.1c0-0.1,0,0,0-0.1c0,0,0-0.1-0.1-0.1c0,0,0.1,0,0.1-0.1c0,0,0-0.1,0-0.1c0-0.1,0-0.1-0.1-0.1c0,0,0.1,0,0.1-0.1
					c0,0,0.1-0.1,0.1-0.1c0-0.1-0.1-0.1-0.1-0.2c0,0,0,0,0.1,0c0,0,0,0,0.1-0.1c0,0,0.1,0,0.1-0.1c0,0-0.1,0-0.1-0.1
					c0,0,0,0,0.1-0.1c0,0,0-0.1,0-0.1c0-0.1,0-0.1,0-0.2c0-0.2-0.2-0.5,0-0.6c0.1-0.2,0.5-0.2,0.7-0.2c0.2,0,0.3,0,0.5,0
					c0.1,0,0.2,0,0.3,0c0.1-0.1-0.4-0.3-0.5-0.3c-0.3-0.1-0.6-0.1-0.9-0.2c-0.3,0-0.5-0.1-0.7-0.2c-0.3-0.1-0.6-0.1-0.9-0.1
					c-0.3,0-0.6,0.1-0.8,0.1c-0.3,0-0.5,0-0.8,0.1c-0.2,0.1-0.4,0.3-0.5,0.6c0.1-0.1,0.1-0.1,0.2-0.1c0.1,0,0.2,0,0.2,0.1
					c0,0.1-0.1,0.1-0.1,0.2c-0.1,0.1-0.1,0.1-0.2,0.2c0,0.1-0.1,0.1-0.2,0.2c0,0.1-0.1,0.1-0.1,0.2c-0.1,0-0.3,0-0.3,0.1
					c0,0,0,0-0.1,0c0,0,0,0,0,0c-0.1,0-0.1,0.1,0,0.1c0,0-0.1,0-0.1,0c0,0,0-0.1-0.1-0.1c-0.1,0-0.1,0.1,0,0.1
					c-0.1,0-0.1-0.1-0.2-0.1c0,0-0.1,0-0.1,0c0.1,0.2,0.3,0.2,0.4,0.2c0.2,0,0.3-0.2,0.4-0.3c0.1-0.1,0.2-0.2,0.4-0.3c0,0,0,0,0,0.1
					c0,0,0.1,0,0.1-0.1c0,0,0.1-0.1,0.1-0.1c0,0.1,0.1,0,0.1,0c0,0,0.1,0,0.1-0.1c0,0,0,0,0.1-0.1c0,0,0,0,0,0.1
					c0.1,0,0.2-0.1,0.2-0.1c0,0,0,0,0.1,0c0,0,0,0,0,0c0.1,0,0.1,0,0.1,0c0,0,0.1,0,0.1,0c0,0,0,0,0.1,0c0,0,0,0,0.1,0
					c0,0,0,0,0.1,0c0,0,0,0,0.1,0C306.5,99.8,306.6,99.8,306.6,99.9C306.6,99.9,306.6,99.9,306.6,99.9"/>
				<path id="XMLID_2353_" class="st2" d="M171.5,150.7c0,0.2,0,0.3-0.1,0.5c0,0.1,0,0.3,0,0.4c0,0.1,0,0.3,0,0.4
					c0,0.1,0,0.2,0.1,0.3c0.1,0.2,0.1,0.5,0.2,0.7c0,0.1,0,0.3,0.1,0.4c0.1,0.1,0.2-0.1,0.3-0.1c0,0.1,0,0.3,0.1,0.2
					c0.1-0.1,0.1-0.3,0.1-0.4c0,0.1,0,0.2,0.1,0.1c0.1-0.1,0.1-0.2,0.1-0.3c0,0,0,0.1,0.1,0c0,0,0-0.1,0-0.1c0,0,0.1,0,0.1-0.1
					c0,0,0-0.1,0-0.2c0.1,0,0.1-0.1,0.1-0.2c0.1,0,0.1,0,0.1-0.1c0,0,0-0.1,0-0.2c0,0,0.1,0,0.1,0c0,0,0.1-0.1,0.1-0.1
					c0,0,0-0.1,0-0.1c0,0,0,0,0.1-0.1c0,0,0-0.1,0-0.1c0-0.1,0.1-0.2,0.1-0.3c0,0,0-0.1,0-0.1c0,0,0-0.1,0-0.1
					c0.2,0.1,0.4,0.1,0.7,0c0.1,0,0.2-0.1,0.3-0.1c0.1,0,0.2,0.1,0.3,0.2c0.4,0.5,0.8,1.1,1.2,1.6c0-0.1,0-0.2,0-0.3
					c-0.1-0.1-0.1-0.2-0.2-0.3c0,0.1,0.2,0.3,0.2,0.1c0-0.1-0.1-0.2-0.1-0.4l0,0c0.1-0.1-0.1-0.3-0.1-0.4c0,0,0,0.1,0.1,0.1
					c0,0,0-0.1,0-0.2c0,0-0.1,0-0.1-0.1c0,0,0-0.1-0.1-0.1c0.1-0.1-0.1-0.3-0.1-0.3c0.1,0.1,0.3,0.1,0.5,0.1c0.2,0,0.4-0.1,0.6-0.1
					c0.1,0,0.6,0,0.5-0.2c0-0.1-0.1-0.1,0-0.2c0-0.1,0-0.1,0.1-0.2c-0.2,0-0.4,0-0.6,0c-0.2,0-0.4,0-0.7,0c-0.2,0-0.4-0.1-0.7-0.2
					c-0.2-0.1-0.5-0.2-0.7-0.3c-0.2-0.1-0.5-0.3-0.8-0.3c-0.2,0-0.3,0.1-0.4,0.2c-0.1,0-0.2,0-0.2,0.1c-0.1,0-0.2,0-0.3,0.1
					c-0.1,0-0.2,0-0.3,0c-0.1,0-0.2,0-0.3-0.1c-0.2,0-0.4,0-0.6,0.2c-0.1,0.2-0.2,0.4-0.3,0.5c0,0,0.1-0.1,0.1-0.1c0,0,0,0,0.1,0
					C171.3,150.8,171.3,150.8,171.5,150.7C171.4,150.8,171.4,150.8,171.5,150.7C171.5,150.8,171.5,150.8,171.5,150.7"/>
				<path id="XMLID_2352_" class="st2" d="M258.6,119.3c-0.1,0-0.3,0.1-0.4,0.1c-0.1,0-0.2,0-0.3-0.1c-0.1,0-0.1,0-0.2-0.1
					c0,0-0.1,0-0.2,0.1c-0.1,0-0.1,0-0.2,0.1c0,0,0,0.1,0,0.2c0,0-0.1,0.1-0.1,0.1c0,0,0,0.2,0,0.2c0-0.1,0.2-0.1,0.3-0.1
					c0.1,0,0.2,0.1,0.3,0.2c0,0-0.1,0.1-0.2,0.2c-0.1,0.1-0.1,0.1-0.2,0.2c-0.1,0.1-0.1,0.2-0.1,0.3c0,0.1-0.1,0.2-0.1,0.3
					c0,0.1-0.1,0.2-0.2,0.3c0,0.1-0.1,0.2-0.2,0.2c-0.1,0.1-0.2,0.1-0.3,0.2c-0.1,0-0.2,0-0.3,0c0,0,0.1,0.1,0.1,0.1
					c0,0,0.1,0,0.1,0c0.1,0,0.1,0,0.2,0c0.1,0,0.1-0.1,0.2-0.1c0,0,0,0.1-0.1,0.1c0,0,0,0,0,0c0.1,0,0.1,0,0.2-0.1
					c0,0,0.1-0.1,0.1-0.1c0,0,0.1,0.2,0.1,0.1c0,0,0,0.1,0,0.2c0,0,0.1-0.1,0.1-0.1c0,0,0,0,0.1,0.1c0,0,0.1,0,0.1,0c0,0,0,0,0.1,0
					c0,0,0.1,0,0.1-0.1c0,0,0-0.1,0-0.1c0,0.1,0.1,0.2,0.2,0.1c0.1-0.1,0-0.2,0.1-0.3c0,0.1,0.1,0.1,0.2,0.1c0,0,0.1-0.1,0.1-0.1
					c0,0,0,0,0-0.1c0,0,0,0,0,0c0,0,0.1,0,0.1,0c0,0,0.1,0,0.1,0c0.1,0,0.1-0.1,0.1-0.2c0,0.1,0.1,0.1,0.1,0.2c0,0.1,0,0.2,0,0.3
					c0,0.1,0,0.2,0.1,0.2c0,0.1,0.1,0.2,0.1,0.2c0,0.1,0.1,0.1,0.2,0.1c0.1,0,0.1,0,0.2,0.1c0,0,0.1,0.2,0.2,0.1
					c0.1,0,0.1-0.1,0.1-0.2c0,0,0.1,0,0.1,0.1c0,0,0,0.1,0.1,0.1c0,0,0.1,0,0.1,0c0,0,0-0.1,0-0.1c0,0,0.1,0.1,0.1,0
					c0,0,0-0.1,0-0.2c0.1,0,0.1,0,0.2,0c0-0.1,0-0.1,0-0.2c0,0,0.1,0,0.1,0c0-0.1,0-0.1,0-0.2c0.1-0.1,0.1,0,0.1-0.1
					c0-0.1,0-0.1,0-0.1c0,0,0,0,0.1,0c0,0,0-0.1,0-0.1c0,0,0-0.1,0-0.1c0-0.1,0.1,0,0.1,0c0,0,0,0,0-0.1c0,0,0,0,0-0.1
					c0-0.1,0-0.1-0.1-0.2c0-0.1,0-0.3,0.1-0.4c0.1-0.1,0.3-0.2,0.4-0.2c0.2,0,0.3,0,0.5,0c0.2,0.1,0.3,0.2,0.5,0.2c0,0,0-0.1,0-0.1
					c0,0,0-0.1,0-0.1c0.1,0,0-0.1-0.1-0.1c-0.1,0-0.2,0-0.3-0.1c-0.1,0-0.2-0.1-0.3-0.1c-0.1-0.1-0.2-0.1-0.3-0.2
					c-0.1-0.1-0.2-0.1-0.4-0.2c-0.1,0-0.2-0.1-0.3-0.1c-0.1,0-0.2-0.1-0.3-0.2c-0.1,0-0.2-0.1-0.3-0.1c-0.2,0-0.3,0-0.5,0
					C258.7,119.2,258.6,119.3,258.6,119.3"/>
			</g>
			<g id="XMLID_2332_">
				<g id="XMLID_2346_">
					<path id="XMLID_2348_" d="M410.3,198.5L410.3,198.5l0-5.8h-42.6v0.8v8v35.9v5.2v3.7h42.6v-0.4h0V198.5z M376.5,235.9v-32.8
						c0-0.8,0.7-1.5,1.5-1.5h22.2v0c0.8,0,1.5,0.7,1.5,1.5h0V236h0c0,0.8-0.6,1.4-1.4,1.5H378C377.2,237.4,376.5,236.8,376.5,235.9z
						"/>
					<path id="XMLID_2347_" d="M344.1,227.1c0.3-0.3,0.6-0.4,1.1-0.4H362v-8.9h-16.9c-0.8,0-1.5-0.7-1.5-1.5v-13.1
						c0-0.8,0.7-1.5,1.5-1.5H362v-8.8h-34.7c-0.8,0-1.5-0.7-1.5-1.5v-6.7h-8.9v8.2v6v2.9h16.3c0.8,0,1.5,0.7,1.5,1.5v13.1
						c0,0.8-0.7,1.5-1.5,1.5h-16.3v8.9h16.3c0.4,0,0.8,0.2,1.1,0.5c0.3,0.5,0.4,1.2,0.1,1.7l-0.4,0.5c0,0,0,0.1-0.1,0.1h0
						l-48.5,60.4l-0.4,0.5l6.4,6.2l47.4-59c0,0,0.1,0,0.1,0l0,0l0.1,0c0.1,0,0.1,0,0.2,0.1l0.3,0.3l0.3,0l17,23.2l7.4-4.9
						l-20.4-27.9C343.7,227.8,343.8,227.4,344.1,227.1z"/>
				</g>
				<g id="XMLID_2334_">
					<path id="XMLID_2342_" d="M466.5,192.3v0.5v8.3v13.6v8.9v13v6.2v2.7h24.3c0.7,0,1.3,0.5,1.5,1.2V301l0,0.4
						c-0.1,0.9-0.4,1.8-1.1,2.4L491,304v0l-25.8,25.1l6.1,6.3l29.9-28.5l0,0h0v-83.3v-8.9v-13.6v-7.2v-1.6H466.5z M492.3,235.4
						c-0.2,0.7-0.7,1.2-1.5,1.2h-14c-0.7,0-1.3-0.5-1.5-1.2v-10.6c0.2-0.7,0.7-1.2,1.5-1.2h14c0.7,0,1.3,0.5,1.5,1.2V235.4z
						 M492.3,213.6c-0.2,0.7-0.7,1.2-1.5,1.2h-14c-0.7,0-1.3-0.5-1.5-1.2v-11.2c0.2-0.7,0.7-1.2,1.5-1.2h14c0.7,0,1.3,0.5,1.5,1.2
						V213.6z"/>
					<path id="XMLID_2338_" d="M459.7,242.8L459.7,242.8l0-50h0v-0.5h-34.7v0.9v8v100.5h8.8V247c0-0.8,0.7-1.5,1.5-1.5h24.4V242.8z
						 M450.8,235.1c0,0.8-0.7,1.5-1.5,1.5h-14c-0.8,0-1.5-0.7-1.5-1.5v-10c0-0.8,0.7-1.5,1.5-1.5h14c0.8,0,1.5,0.7,1.5,1.5V235.1z
						 M450.8,213.3c0,0.8-0.7,1.5-1.5,1.5h-14c-0.8,0-1.5-0.7-1.5-1.5v-10.6c0-0.8,0.7-1.5,1.5-1.5h14c0.8,0,1.5,0.7,1.5,1.5V213.3z
						"/>
					<path id="XMLID_2335_" d="M482.2,296.1v-8.8v-25v-8.9h-8.8h-29.2v1.9v7v33.8h0.2h8.6h20.3H482.2z M471.9,287.2h-17.3
						c-0.8,0-1.5-0.7-1.5-1.5v-5.6c0-0.8,0.7-1.5,1.5-1.5h11v-8.8h-11c-0.8,0-1.5-0.7-1.5-1.5v-4.5c0-0.8,0.7-1.5,1.5-1.5h17.3
						c0.8,0,1.5,0.7,1.5,1.5v21.9C473.4,286.6,472.7,287.2,471.9,287.2z"/>
				</g>
				<path id="XMLID_2333_" class="st2" d="M291,184.9v30.4c0,1.1-0.9,2-2,2h-26.5c-1.1,0-2-0.9-2-2v-62.7h-9.9v62.7c0,1.1-0.9,2-2,2
					h-27.5c-1.1,0-2-0.9-2-2v-30.4h-9.9v41.2h91.6v-41.2H291z"/>
			</g>
		</g>
		<g id="XMLID_2320_">
			<g id="XMLID_2321_">
				<g id="XMLID_2328_">
					<path id="XMLID_2329_" d="M460.4,167.8c0.4,2.5-0.1,3.6-1.3,3.2c-1.3-0.4-2.4-0.7-3.2-0.9c-2,0-3.4-0.1-4-0.4
						c-0.5-0.3,0.1-0.6,1.7-1.1c-1.9-1.4-3.8-2.6-5.7-3.6c-1.9-0.9-2.9-1.3-3.1-1.3v13.4c-0.4,2.7-1.5,3.9-3.2,3.8
						c-1.9,0-3-1.8-3.3-5.3V167c-3.3,2.5-6.4,4.5-9.1,5.7c-2.8,1.3-3.8,0.9-3.1-1.1c0.9-2.8,1.6-4.3,2.1-4.4
						c0.5-0.1,0.7,0.6,0.6,2.1c2.4-2,4.3-4,5.7-5.9c1.4-1.8,2.2-2.7,2.3-2.9c-2.3-0.3-4.5-1.3-6.7-3.2c-2-1.9-1.7-3.1,1-3.6
						c1.7-0.5,3.4-1.2,5.3-1.9c1.8-0.7,2.8-1.1,3.1-1.1c0-1.7,0.2-2.7,0.6-3.1c0.4-0.4,0.8-0.7,1.3-1.1c-3.2-0.1-5.6-1-7.3-2.5
						c-1.7-1.5-1.1-2.5,1.5-2.9c4.1-0.8,6.4-1.7,7.1-2.9c0.6-1,1.8-0.6,3.6,1.3c2.8,1.5,3.7,2.9,2.9,4c-0.9,1.1-2.7,2.1-5.5,2.9
						l1.5,1.5c1.8-1.5,3.4-1.8,4.8-0.8c1.4,1,2,2,1.7,3.1c-0.1,1.1-0.9,1.9-2.3,2.3c-1.4,0.4-2.8,1.3-4.2,2.7l-0.4,6.1
						c2.5,0.4,5.7,1.3,9.3,2.7C457.7,165.2,459.8,166.5,460.4,167.8z"/>
				</g>
				<g id="XMLID_2322_">
					<path id="XMLID_2323_" d="M504.5,167c1.3,1.5,1.8,2.9,1.7,4.2c-0.3,1.4-1.6,1.5-4,0.4c-2.3-1.3-4.4-2.4-6.3-3.4l-2.9-1.5
						c0.1,2.5,0.3,4.6,0.4,6.3c0.1,1.8,0.3,2.7,0.4,2.9c-0.1,3.6-1.1,5.3-3.1,5.2c-1.9-0.3-3.3-1.5-4.2-3.6c-2-0.8-3.3-1.8-3.8-3.1
						c-0.5-1.4-0.9-2.4-1.1-3c-0.4-0.5-0.9-0.6-1.5-0.2c-0.5,0.3-1.1,0.6-1.9,1v2.3c-0.4,2.3-1.3,3.4-2.7,3.4
						c-1.5,0-2.4-1.1-2.7-3.4l0.4-7.3c-1,1.9-2.3,3.4-3.8,4.6c-1.5,1.1-2.5,0.4-3-2.3c0-1.4,0.4-2.5,1.1-3.3c0.6-0.6,1-1,1.2-1
						c0.9-1.3,1.7-2.4,2.3-3.4c0.6-1,1-1.5,1.1-1.5c-1.8-0.5-3.6-1.4-5.5-2.7c-2-1.4-2.2-2.7-0.6-3.8c1-1.5,2.4-3.1,4.2-4.6
						c1.8-1.5,2.8-2.3,3.1-2.3c-0.1-0.6-0.2-1.3-0.2-1.9l-0.2-0.8c-0.1-2.3,1.1-3.1,3.6-2.3c2.4,0.8,4,1.9,4.8,3.4
						c0,0.9-0.2,1.7-0.6,2.3c-0.4,0.6-0.6,1-0.6,1.1c0.8,1.1,0.9,2.2,0.4,3c-0.5,0.8-1.1,1.9-1.9,3.4c-0.2,0.5-0.4,1.1-0.4,1.7
						c-0.1,0.5-0.1,0.8,0,1c1.5-1.1,3.3-2.4,5.3-3.6c2-1.4,3.2-2.1,3.4-2.1c0-4.2,0.1-7.3,0.4-9.4c0.1-2,0.3-3,0.4-2.9
						c-0.1-2.4,0.4-3.5,1.5-3.2c1.1,0.3,2.3,1.2,3.4,2.8c2,1.5,2.7,2.9,2.1,4c-0.5,1.1-0.9,2-1.3,2.5v1.2c3.2,0,4.7,0.9,4.6,2.7
						c-0.1,1.8-1,3.3-2.7,4.6l-1.9,2.3l-0.4,7.6c3.1-0.1,5.7,0.2,8,1.2C503.3,166.2,504.4,166.8,504.5,167z M473.3,148.3
						c-1.8,0.3-2.9,0.8-3.4,1.7c-0.6,1-0.9,1.6-0.8,1.7c1.3-1,2.3-1.8,3.1-2.5C472.7,148.6,473.1,148.3,473.3,148.3z M483.9,160.1
						c-1.1-0.9-2-1.5-2.7-1.9c-0.8-0.3-1.9,0.5-3.4,2.3c0.3,1.6,0.4,3.2,0.4,4.8c-0.1,1.5,0,2.6,0.4,3.2c1.3-1.5,2.4-3.2,3.3-5.2
						C482.7,161.5,483.4,160.4,483.9,160.1z M486.6,175v-8.8c-1.3,1.5-2.2,2.7-2.9,3.4l-1,1.2c0.1,0.4,0.4,1.1,0.8,2.1
						C484.1,173.8,485.1,174.5,486.6,175z"/>
				</g>
			</g>
		</g>
	</g>
	<line class="st3" x1="99.8" y1="312.9" x2="567.2" y2="312.9"/>
</g>
</svg>
