<?xml version="1.0" encoding="utf-8"?>
<!-- Generator: Adobe Illustrator 24.1.3, SVG Export Plug-In . SVG Version: 6.00 Build 0)  -->
<svg version="1.1" id="圖層_1" xmlns="http://www.w3.org/2000/svg" xmlns:xlink="http://www.w3.org/1999/xlink" x="0px" y="0px"
	 viewBox="0 0 328 182" style="enable-background:new 0 0 328 182;" xml:space="preserve">
<style type="text/css">
	.st0{fill-rule:evenodd;clip-rule:evenodd;fill:#CA0915;}
	.st1{fill:#FFFFFF;}
	.st2{fill:#3E3A39;}
</style>
<g id="XMLID_1059_">
	<g id="XMLID_1071_">
		<g id="XMLID_1091_">
			<g id="XMLID_1101_">
				<path id="XMLID_1106_" class="st0" d="M128.7,6.1c10-0.1,17.1,2.6,22.9,6.7c2.2,1.6,4.5,3.3,6.2,5.4c0.6,0.6,1.1,1.2,1.7,1.9
					c1.1,1.4,2.2,2.9,3.1,4.5c0.4,0.6,0.9,1.3,1.1,2l0,0c-2.1-1.5-4.2-3.1-6.2-4.6c-1.2-0.9-1.6-1.8-3.4-2.2
					c-1.5-0.4-3.5,0.1-4.9,0.4c-0.5,0.1-1,0.1-1.5,0.3c-0.2,0.1-0.2,0.3-0.3,0.5l0,0c-0.1,0.1-0.8,0.4-0.9,0.4c-0.3,0-0.6,0-0.8,0
					c-0.2,0.1-0.4,0.2-0.6,0.3c-0.2,0-0.4-0.1-0.6,0c-0.4,0.1-0.7,0.5-1.1,0.6c-0.3,0.1-0.6-0.1-0.9,0c-0.6,0.1-1.2,0.1-1.7,0.3
					c-0.3,0.2-0.6,0.4-0.9,0.6c-0.4,0.2-0.7,0.4-1,0.6c-0.4,0.3-0.8,0.8-1.3,0.9c-0.3,0-0.7,0-1,0.1c-0.3-0.7-1.2-0.5-1.9-0.6
					c-0.5-0.1-0.9-0.4-1.5-0.5c-0.4,0-0.9,0-1.3,0c-0.3,0-0.7,0-1,0c-0.3,0.1-0.6,0.2-0.9,0.3c-0.7,0.1-1.3,0-1.8,0.3
					c-0.6,0.2-0.9,0.7-1.5,0.9c-0.5,0.1-1.1-0.2-1.5-0.1c-0.9,0.1-1.7,0.8-2.4,1.1c-0.5,0.2-1,0.3-1.6,0.5c-0.2,0.1-0.4,0.3-0.7,0.4
					c-0.2,0-0.3,0-0.5,0c-0.2,0.2-0.4,0.5-0.7,0.7c-0.4,0.3-0.9,0.6-1.3,1c-0.7,0.3-1.8-0.7-2.3-0.8c-0.2-0.1-0.5-0.2-0.9-0.2
					c-0.2,0-0.8,0.1-1.1,0c-0.2-0.1-0.4-0.2-0.6-0.4c-0.4,0-0.8,0-1.2-0.1c-0.1-0.2-0.3-0.3-0.4-0.5c-0.6-0.3-1.2-0.6-1.7-0.9
					c-0.5-0.2-1.1-0.1-1.7-0.2c-0.8-0.2-1.4-0.5-2.1-0.7c-0.4-0.1-0.7-0.1-1-0.3c-0.2-0.5-1.7-1.9-2.1-2.1c-0.7,0-1.4,0-2,0
					c-0.9,0.4-1.7,0.8-2.6,1.1c-0.1,0.1-0.3,0.2-0.4,0.3c1.1-2.2,2.9-3.8,4.4-5.7c0.9-1.1,1.9-2,3-2.9c0.9-0.7,1.8-1.6,2.8-2.2
					c3.1-2.2,6.6-4,10.7-5.3c2-0.6,4.1-1,6.3-1.4c0.9-0.1,1.8-0.2,2.7-0.3C128.1,6.1,128.4,6.1,128.7,6.1z"/>
				<path id="XMLID_1104_" class="st0" d="M152.5,20.5c1.4,0,2.3,0.4,3.1,1c0.2,0.2,0.4,0.4,0.5,0.6c0.8,0.6,1.6,1.2,2.4,1.8
					c2,1.5,4,2.9,6,4.4c0.1,0.2,0.2,0.5,0.3,0.7c0.4,0.9,0.7,1.7,1,2.7c1.1,3.2,2,6.9,2,11.2c-0.8-0.1-1.8,0.1-2.6-0.1
					c-0.9-0.2-1.9-0.4-2.8-0.6c-0.4,0-0.9,0-1.3,0c-1.6,0-3.2,0-4.8,0c-0.9-0.2-1.9-0.4-2.8-0.6c-0.7-0.3-1.4-1-2.2-1.2
					c-1.1-0.3-2.4,0-3.4-0.2c-0.3,0-0.5-0.1-0.8-0.1c-0.4-0.1-0.8-0.6-1.2-0.8c-0.7-0.3-1.4-0.6-2.1-0.8c-1.4-0.6-2.4-1.4-4.1-1.6
					c-1.1-0.2-2.6,0.6-3.4,1c-0.4,0.1-0.8,0.2-1.1,0.4c-1.4,0.6-3,1.2-4.5,1.7c-0.6,0.3-1.2,0.6-1.8,0.8c-0.5,0-1-0.4-1.4-0.6
					c-0.4-0.2-0.8-0.4-1.2-0.5c-0.9-0.5-1.4-1.3-2.6-1.6c-0.6-0.1-1.6-0.2-2.3,0c-0.5,0.1-1.1,0.3-1.7,0.2c-1.6-0.3-3.2-0.3-4.7-0.6
					c-0.7-0.1-1.3-0.4-1.9-0.6c-0.4-0.1-0.9,0.2-1.4,0c-0.3-0.1-0.6-0.2-0.9-0.3c-0.4-0.1-1-0.2-1.3-0.4c-1.4-0.9-2.1-2-3.7-2.6
					c-0.4-0.1-0.7-0.2-1.1-0.3c-0.6,0-1.1-0.1-1.7-0.1c-0.3-0.2-0.6-0.4-0.9-0.5c-0.3-0.1-0.8-0.1-1.1-0.3c-0.7-0.4-1.2-0.9-2.1-1.2
					c-0.8-0.2-1.8,0.1-2.6,0c-0.7-0.1-1.4-0.3-2-0.6c0.2-0.7,0.6-1.4,0.9-2c0.4-0.8,0.7-1.6,1.1-2.3c0.2-0.2,0.5-0.4,0.7-0.6
					c0.8-0.6,1.3-1.2,2.3-1.7c0.8-0.3,1.3-0.7,2.5-0.7c0.2,0,0.4,0,0.6,0c0.3,0.1,1.2,1,1.4,1.3c0.3,0.4,0.5,0.8,1,1
					c0.3,0,0.5,0,0.8,0.1c0.7,0.2,1.4,0.6,2.2,0.8c0.6,0.1,1.2,0,1.6,0.2c0.5,0.2,1,0.5,1.5,0.7c0.2,0.2,0.4,0.4,0.5,0.6
					c0.4,0,0.9,0,1.3,0c0.2,0.1,0.4,0.2,0.6,0.4c0.6,0.2,1.4-0.1,2,0.1c0.4,0.2,0.9,0.5,1.3,0.7c0.3,0,0.5,0.1,0.8,0.1
					c0.2,0,0.5,0,0.7,0c0.5-0.3,1-0.7,1.5-1c0.2-0.2,0.4-0.4,0.6-0.6c0.1,0,0.2,0,0.4,0c0.3-0.2,0.5-0.3,0.8-0.5
					c0.5-0.2,1-0.3,1.6-0.5c0.7-0.3,1.3-0.8,2.1-1c0.5-0.1,1,0.2,1.5,0.1c0.4-0.1,0.8-0.3,1.1-0.4c0.4-0.2,0.5-0.6,1-0.7
					c0.4,0,0.8,0,1.3-0.1c0.8-0.1,1.9-0.4,2.9-0.2c0.9,0.2,1.7,0.6,2.6,0.6c0.7,0.8,1.9,0.6,2.8,0.2c0.3-0.3,0.7-0.6,1-0.8
					c0.3-0.2,0.7-0.4,1-0.6s0.6-0.4,0.9-0.6c0.7-0.3,1.4,0,2.1-0.2c0.4-0.1,0.8-0.4,1.2-0.6c0.2,0,0.4,0,0.6,0
					c0.1-0.1,0.3-0.2,0.4-0.2c0.3,0,0.7,0,1,0c0.2-0.1,0.3-0.2,0.5-0.4c0.3-0.1,0.5-0.2,0.8-0.2c0.1-0.2,0.2-0.3,0.2-0.5
					c0.9-0.1,1.7-0.3,2.6-0.5C151.4,20.7,152,20.6,152.5,20.5z"/>
				<path id="XMLID_1102_" class="st0" d="M94.1,31.4c0.8,0.2,1.5,0.5,2.4,0.6c0.7,0.1,1.5-0.2,2.3,0s1.3,0.8,2,1.1
					c0.3,0.2,0.8,0.2,1.2,0.4c0.3,0.2,0.6,0.3,0.8,0.5c0.5,0.2,1.2,0.1,1.8,0.2c0.4,0.1,0.9,0.2,1.2,0.4c1.2,0.5,1.9,1.5,2.9,2.2
					c0.6,0.4,1.2,0.5,2,0.8c0.3,0.1,0.6,0.2,0.9,0.4c0.5,0.1,1-0.1,1.4,0c0.3,0.1,0.5,0.2,0.8,0.3c0.6,0.1,1.2,0.2,1.7,0.4
					c1.4,0.3,2.9,0.3,4.5,0.5c0.6,0.1,1.2-0.1,1.7-0.2c0.6-0.2,1.5-0.1,2.1,0c0.8,0.2,1.2,0.8,1.7,1.2c0.8,0.5,2.3,1.3,3.4,1.5
					c0.6,0.1,1.6-0.7,2.2-0.9c1.6-0.6,3.2-1.2,4.7-1.8c0.3-0.1,0.7-0.2,1-0.3c0.7-0.3,2-1.1,3.1-0.9c1.5,0.3,2.4,1,3.6,1.5
					c0.7,0.3,1.5,0.6,2.2,0.9c0.4,0.2,0.7,0.6,1.1,0.8c0.3,0,0.5,0,0.8,0.1c0.5,0.1,1,0.1,1.5,0.2c0.7,0,1.4,0,2,0
					c0.8,0.2,1.4,0.8,2.1,1.1c0.8,0.2,1.7,0.4,2.5,0.6c1.4,0.3,3.4,0.2,5.1,0.2c0.5,0,1.1,0,1.6,0c1,0.2,1.9,0.5,3,0.6
					c0.9,0.2,1.8-0.1,2.6,0.1c0.1,6.2-1.4,11.2-3.3,15.6c-4.6,10.4-13.1,17.7-24.7,21.1c-6.5,1.9-15.2,1.5-21.3-0.4
					C106.9,76.5,98.3,68,94.2,56.5C91.5,49.2,91.3,38.6,94.1,31.4z"/>
			</g>
			<path id="XMLID_1100_" class="st1" d="M133.4,35.5l-0.1,0.1l0,0l0,0l0,0c0,0,0,0,0-0.1l0,0l0,0l0,0c0,0,0,0,0-0.1l0,0l0,0l0,0
				l0,0v-0.1l0,0c0,0,0,0-0.1,0.1l0,0h-0.1v-0.1l0,0c0,0,0,0-0.1,0.1l-0.1,0.1c0,0-0.1,0,0,0v-0.1v-0.1l0,0l0,0c0,0,0,0-0.1,0v0.1
				l0,0l0,0v-0.1l0,0l0,0v0.1v0.1c0,0,0,0.1-0.1,0.2l-0.1,0.2c0,0,0,0.1,0,0.2v0.1v0.1c0,0,0,0-0.1,0.1c0,0,0,0,0,0.1c0,0,0,0,0,0.1
				l0,0l0,0c0,0,0,0,0.1,0h0.1l0,0c0,0,0,0,0,0.1v0.1l0.1,0.1l0.1,0.1l0,0c0,0,0.1,0.1,0.2,0.1c0.1,0,0.1,0,0.2,0h0.1l0,0l0,0h0.1
				c0,0,0.1,0,0.1,0.1c0,0,0,0.1,0.1,0.1v0.1v0.1l0,0l0,0l0,0l0,0l0,0l0,0l0,0l0,0l0,0l0,0l0,0l0,0l0,0l0,0l0,0l0,0l0,0l0,0l0,0l0,0
				l0,0l0,0l0,0l0,0l0,0l0,0c0,0,0,0-0.1,0l-0.2-0.1c0,0-0.1-0.1-0.2-0.1h-0.1l-0.1-0.1l-0.1-0.1l0,0l-0.1-0.1l-0.1-0.1l-0.1-0.1
				c0,0,0,0,0.1,0h0.1h0.1l0,0l0,0l0,0l0,0l0,0l0,0l0,0l0,0l0,0l0,0l0,0h-0.1l0,0h0.1c0.1,0,0.1,0,0.1,0l0,0l0,0l0,0l0,0l0,0h-0.1
				h-0.1l0,0h0.1c0.1,0,0.1,0,0.1,0s0,0,0.1,0l0,0l0,0H133h-0.1c-0.1,0-0.1,0,0,0h0.2h0.1l0,0l0,0c0,0,0,0-0.1,0c0,0-0.1,0-0.2,0
				l0,0l0,0h0.1h0.1c0,0,0,0,0.1,0l0,0l0,0c0,0,0,0-0.1,0c0,0-0.1,0-0.2,0h-0.1c-0.1,0-0.1,0,0,0h0.1c0,0,0.1,0,0.1-0.1
				c0,0,0,0,0.1-0.1l0,0H133h-0.1c-0.1,0-0.1,0,0,0l0.1-0.1c0,0,0.1,0,0.1-0.1l0,0l0,0l0,0c0,0,0,0-0.1,0l0,0c0,0,0,0,0-0.1l0,0l0,0
				c0,0,0,0-0.1,0l-0.1,0.1l0,0l0.1-0.1v-0.1l0,0l0,0c0,0,0,0-0.1,0.1l-0.1,0.1l-0.1,0.1l0,0v-0.1c0,0,0,0,0-0.1l0,0
				c0,0,0,0-0.1,0.1l0,0C133.6,35.3,133.5,35.4,133.4,35.5L133.4,35.5L133.4,35.5z"/>
			<path id="XMLID_1099_" class="st1" d="M134.7,32.7L134.7,32.7C134.7,32.6,134.7,32.6,134.7,32.7c0-0.1,0-0.1,0-0.1s0,0,0-0.1
				c0,0,0,0,0-0.1v-0.1c0,0,0,0,0.1,0c0,0,0,0,0-0.1l-0.1-0.1c0,0-0.1-0.1-0.1-0.2l-0.1-0.1c0,0-0.1-0.1-0.1-0.2l-0.1-0.1
				c0,0-0.1-0.1-0.1-0.2v-0.1v-0.1l0,0c0,0,0,0,0.1,0l0,0V31v-0.1l0,0c0,0,0,0,0.1,0c0,0,0,0,0,0.1l0,0l0,0l0,0l0,0c0,0,0,0,0,0.1
				l0,0l0,0l0,0c0,0,0,0,0,0.1v0.1l0,0v-0.1v-0.1l0,0l0,0c0,0,0,0,0,0.1l0,0l0,0l0,0l0,0c0,0,0,0,0,0.1l0,0l0,0l0,0c0,0,0,0,0,0.1
				v0.1l0,0l0.1-0.1l0,0l0,0v0.1l0,0c0,0,0,0,0.1,0l0,0l0,0v0.1v0.1h0.1l0,0c0,0,0,0,0,0.1l0,0c0,0,0,0,0.1,0l0,0l0,0c0,0,0,0,0,0.1
				c0,0,0,0,0,0.1c0,0,0,0,0,0.1c0,0,0,0,0,0.1c0,0,0,0,0-0.1V32v-0.1v-0.1v-0.1c0-0.1,0-0.1,0.1-0.2l0,0c0-0.1,0-0.1,0.1-0.2
				c0,0,0-0.1,0.1-0.2l0,0c0-0.1,0.1-0.1,0.1-0.1l0,0c0,0,0,0,0,0.1v0.1c0,0,0,0.1-0.1,0.2v0.1c0,0.1,0,0.1,0,0.1l0,0l0,0l0,0l0,0
				l0,0l0,0c0,0,0,0,0,0.1c0,0,0,0,0,0.1l0,0l0,0l0,0l0,0l0,0l0,0l0,0l0,0l0,0c0,0-0.1,0-0.1,0.1l0,0h0.1l0,0l0,0c0,0,0,0-0.1,0
				h-0.1h-0.1l0,0h0.1h0.1l0,0l0,0l0,0l0,0l0,0l0,0l0,0l0,0l0,0l0,0l0,0c0,0,0,0-0.1,0l0,0L135,32l0,0l0,0c0,0,0,0,0.1,0.1l0.1,0.1
				l0.1,0.1c0,0,0,0,0.1,0l0,0h0.1h0.2c0.1,0,0.2,0,0.2,0h0.1c0.1,0,0.2,0,0.2,0l0,0c0.1,0,0.1,0,0.1,0l0,0c0,0,0,0-0.1,0l0,0l0,0
				l0,0c0,0,0,0-0.1,0.1H136h-0.1l0,0l0,0l0,0l0,0c0,0,0,0-0.1,0l0,0l0,0c0,0,0,0-0.1,0h-0.1l0,0l0,0l0,0l0,0l0,0l0,0l0,0l0,0l0,0
				l0,0l0,0l0,0c0,0,0,0-0.1-0.1l-0.1-0.1l-0.1-0.1l-0.1-0.1l0,0c0,0,0,0-0.1,0c0,0,0,0-0.1,0l0,0l0,0l0,0l0,0c0,0,0,0,0.1,0l0,0
				c0,0,0,0-0.1,0c0,0,0,0-0.1-0.1c0,0,0,0-0.1,0h-0.1c0,0-0.1,0-0.2,0c0,0-0.1-0.1-0.2-0.1l0,0l-0.1-0.1c0,0,0,0-0.1,0H134h-0.1
				C134.8,32.6,134.8,32.6,134.7,32.7L134.7,32.7z"/>
			<path id="XMLID_1098_" class="st1" d="M122.4,35.7C122.4,35.8,122.4,35.8,122.4,35.7L122.4,35.7c0.1-0.1,0.1-0.2,0.2-0.2l0.1-0.1
				l0.1-0.1l0,0l0.1-0.1c0,0,0-0.1,0.1-0.1l0.1-0.1h0.1h0.1h0.1l0,0l0.1-0.1v-0.1c0,0,0-0.1,0-0.2l0.1-0.3c0,0,0-0.1,0-0.2v-0.2
				c0,0,0-0.1,0-0.2v-0.1c0,0,0-0.1,0.1-0.1l0.1-0.1c0,0,0-0.1,0.1,0v0.1v0.1v0.1c0,0,0,0,0,0.1l0,0v0.1c0,0,0,0,0,0.1l0,0l0,0l0,0
				l0,0c0,0,0,0,0,0.1v0.1c0,0,0,0,0,0.1v0.1l0,0c0,0,0,0,0,0.1l0,0c0,0,0,0,0,0.1v0.1l0,0l0,0l0,0l0,0v0.1c0,0,0,0,0,0.1l0,0l0,0
				V35c0,0,0,0,0,0.1c0,0,0,0,0.1,0.1l0.2,0.1c0,0,0.1,0,0.2,0c0,0,0.1,0,0.2,0h0.2c0,0,0.1,0,0.2,0h0.1l0,0c0,0,0,0,0,0.1l0,0l0,0
				c0,0,0,0-0.1,0h-0.1l0,0h0.1h0.1l0,0H125l0,0l0,0h0.1c0,0,0.1,0,0.1,0.1l0,0h-0.1H125l0,0h0.1c0,0,0.1,0,0.1,0.1c0,0,0,0-0.1,0
				l0,0c0,0-0.1,0-0.2,0l-0.3-0.1c0,0-0.1,0-0.1-0.1l0,0h-0.1c0,0-0.1,0-0.1,0.1l0,0c0,0,0,0,0.1,0l0,0l0,0h-0.1h-0.1l0,0
				c0,0-0.1,0-0.2,0h-0.1h-0.2c0,0-0.1,0-0.2,0h-0.1c0,0-0.1,0-0.2,0h-0.1c0,0-0.1,0-0.2,0h-0.1c0,0-0.1,0-0.1,0.1l-0.1,0.1
				l-0.1,0.1L122.4,35.7L122.4,35.7z"/>
			<path id="XMLID_1097_" class="st1" d="M111.9,43.9C111.9,43.9,111.8,43.9,111.9,43.9C111.9,43.8,111.9,43.8,111.9,43.9
				C111.9,43.8,111.9,43.8,111.9,43.9c0-0.1,0-0.1,0-0.2c0,0,0,0,0-0.1l0.1-0.1h0.1c0,0,0,0,0-0.1v-0.1c0-0.1,0-0.1-0.1-0.2
				l-0.1-0.2c0-0.1-0.1-0.2-0.1-0.2v-0.1c0-0.1,0-0.2,0-0.2c0-0.1,0-0.1,0-0.2v-0.1l0,0l0,0l0,0V42v-0.1l0,0l0,0c0,0,0,0,0,0.1l0,0
				l0,0l0,0l0,0c0,0,0,0,0,0.1l0,0l0,0l0,0c0,0,0,0,0,0.1v0.1l0,0c0,0,0-0.1,0.1-0.1l0,0l0,0l0,0c0,0,0,0,0,0.1l0,0l0,0l0,0l0,0
				c0,0,0,0,0,0.1l0,0c0,0,0,0,0.1,0l0,0c0,0,0,0,0,0.1v0.1l0,0h0.1c0,0,0,0,0.1,0c0,0,0,0,0,0.1v0.1l0,0c0,0,0,0,0.1,0l0,0l0,0v0.1
				V43h0.1l0,0c0,0,0,0,0,0.1l0,0c0,0,0,0,0.1,0l0,0l0,0c0,0,0,0-0.1,0l0,0c0,0,0,0,0,0.1l0,0c0,0,0,0,0.1-0.1l0.1-0.1
				c0,0,0,0,0.1,0c0,0,0,0,0.1-0.1l0.1-0.1c0-0.1,0.1-0.1,0.1-0.2l0,0c0-0.1,0.1-0.1,0.1-0.2l0.1-0.1l0,0l0.1-0.1l0,0c0,0,0,0,0,0.1
				l-0.1,0.1c0,0-0.1,0.1-0.1,0.2v0.1l-0.1,0.1l0,0l0,0l0,0l0,0l0,0l0,0c0,0,0,0,0,0.1c0,0,0,0,0,0.1l0,0l0,0l0,0l0,0l0,0l0,0l0,0
				l0,0l0,0h-0.1c0,0-0.1,0,0,0h0.1l0,0l0,0c0,0,0,0-0.1,0h-0.1h-0.1l0,0c0,0,0.1,0,0.1,0.1c0,0,0.1,0,0.1,0.1c0,0,0,0,0,0.1l0,0
				l0,0l0,0l0,0l0,0l0,0l0,0c0,0,0,0,0,0.1l0,0l0,0l0,0l0,0v0.1l0,0l0,0v0.1c0,0,0.1,0.1,0.1,0.2c0,0.1,0.1,0.1,0.1,0.1s0,0,0.1,0
				l0,0l0.1,0.1l0.1,0.1c0.1,0,0.1,0.1,0.2,0.1h0.1c0.1,0,0.1,0.1,0.2,0.1l0,0c0.1,0,0.1,0.1,0.1,0.1l0,0h-0.1l0,0l0,0l0,0
				c0,0,0,0-0.1,0h-0.1c0,0,0,0-0.1,0l0,0l0,0l0,0l0,0l0,0l0,0l0,0c0,0,0,0-0.1,0h-0.1l0,0l0,0c0,0,0,0-0.1,0l0,0l0,0l0,0l0,0l0,0
				l0,0l0,0c0,0,0,0-0.1,0l0,0c0,0,0,0,0-0.1c0,0,0-0.1,0-0.2c0,0,0-0.1-0.1-0.2c0,0,0-0.1-0.1-0.1l0,0c0,0,0,0-0.1,0c0,0,0,0-0.1,0
				l0,0l0,0l0,0l0,0l0,0l0,0c0,0,0,0-0.1,0c0,0,0,0,0-0.1v-0.1c0,0-0.1,0-0.1-0.1l-0.1-0.1c0,0-0.1-0.1-0.1-0.2l0,0
				c0-0.1-0.1-0.1-0.1-0.1l0,0c0,0,0,0-0.1,0c0,0,0,0-0.1,0C112,43.9,111.9,43.9,111.9,43.9L111.9,43.9z"/>
			<path id="XMLID_1096_" class="st1" d="M108.7,44.5L108.7,44.5v-0.2c0-0.1,0-0.2,0-0.3v-0.1c0-0.1,0-0.2,0.1-0.2
				c0-0.1,0.1-0.1,0.1-0.2c0-0.1,0.1-0.1,0.1-0.2l0.1-0.1c0,0.1,0,0.1-0.1,0.2c0,0,0,0,0-0.1l0,0c0,0,0,0,0.1-0.1l0,0
				c0.1,0,0,0.1,0,0.1s0,0,0.1,0v0.1v0.1h0.1v0.1c0,0,0.1,0,0.1,0.1v0.1l0,0c0,0,0,0,0,0.1V44c0,0,0.1,0,0.1,0.1v0.1v-0.1l0,0l0,0
				c0,0,0,0,0.1-0.1l0,0l0,0l0,0c0,0,0,0,0.1-0.1l0.1-0.1c0.1-0.1,0.1-0.1,0.2-0.2c0,0,0,0.1,0,0.2c0,0,0,0,0,0.1V44
				c0,0,0.1,0,0.1-0.1c0,0,0,0,0.1,0c0,0,0,0,0.1,0l0,0l0,0V44l0,0l0,0l0,0v0.1c0,0,0,0,0,0.1l0,0c0,0,0,0,0,0.1l0,0c0,0,0.1,0,0,0
				c0,0,0,0,0,0.1c0.1,0,0,0.1,0,0.1s0,0.1-0.1,0.1l0,0l0,0l0,0v0.1l0,0l0,0l0,0c0,0,0.1,0,0.1,0.1h-0.1c0,0,0,0,0,0.1l0,0
				c0,0,0,0,0,0.1c0,0,0,0-0.1,0v0.1l0,0l0,0l0,0l0,0v0.1l0,0l0,0h0.1l0,0c0,0,0,0,0.1,0l0,0l0,0c0,0,0,0,0.1,0l0,0l0,0l0,0
				c0,0,0,0,0.1,0l0,0c0,0,0,0,0.1,0h0.1l0,0l0,0c-0.1,0-0.1,0-0.2,0h-0.1h-0.1c0,0,0,0-0.1,0h-0.1c0,0-0.1,0-0.1,0.1h-0.1h-0.1
				h-0.1h-0.1h-0.1h-0.1c0,0-0.1,0-0.1-0.1c0,0-0.1,0-0.1-0.1h-0.1c-0.1,0-0.1-0.1-0.2-0.1h-0.1c0,0-0.1,0-0.1,0.1V45c0,0,0,0,0-0.1
				v-0.1h0.1h0.1c0,0,0,0,0.1,0C108.6,44.5,108.7,44.5,108.7,44.5"/>
			<path id="XMLID_1095_" class="st1" d="M120.7,43.4c0,0.1,0,0.1,0,0.2v0.1c0,0.1,0.1,0.2,0.1,0.3s0,0.2,0,0.3s0,0.2,0.1,0.4
				c0,0.1,0,0.1,0.1,0.2c0,0.1,0.1,0.1,0.1,0.2l0,0c0,0,0,0,0-0.1l0,0c0,0,0,0,0-0.1c0,0,0.1,0,0.1,0.1c0,0,0,0,0,0.1v0.1
				c0,0,0,0,0,0.1c0,0,0,0,0-0.1v-0.1c0,0,0,0,0-0.1c0,0,0,0,0.1,0.1c0,0,0,0.1,0.1,0.1s0-0.1,0-0.2c0.1,0,0.1-0.1,0.1-0.1
				c0.1,0,0-0.1,0-0.1s0.1,0.1,0.1,0v-0.1c0,0,0,0,0-0.1c0,0,0,0,0.1-0.1v-0.1v-0.1v-0.1h-0.1l0,0h0.1l0,0l0,0c0,0,0,0,0-0.1l0,0
				l0,0c0-0.1,0,0-0.1,0l0,0c0,0,0,0,0-0.1c0,0,0-0.1-0.1-0.1l0,0l0,0l0,0c0,0,0,0-0.1,0l0,0l0,0v-0.1c0-0.1-0.1-0.2,0-0.3
				s0.3-0.1,0.4-0.1s0.2,0,0.3,0c0,0,0.1,0,0.2,0c0.1-0.1-0.2-0.1-0.2-0.1c-0.2,0-0.3-0.1-0.5-0.1c-0.1,0-0.3-0.1-0.4-0.1
				c-0.2,0-0.3-0.1-0.5-0.1c-0.1,0-0.3,0-0.4,0.1c-0.1,0-0.3,0-0.4,0.1c-0.1,0-0.2,0.2-0.2,0.3l0.1-0.1h0.1c0,0,0,0.1-0.1,0.1
				l-0.1,0.1l-0.1,0.1c0,0,0,0.1-0.1,0.1c0,0-0.1,0-0.1,0.1l0,0l0,0V44l0,0l0,0v0.1l-0.1-0.1c0,0-0.1,0,0,0c0,0.1,0.2,0.1,0.2,0.1
				c0.1,0,0.1-0.1,0.2-0.1s0.1-0.1,0.2-0.1l0,0h0.1c0,0,0,0,0.1-0.1c0,0.1,0.1,0,0.1,0s0,0,0.1,0l0,0l0,0c0.1,0,0.1,0,0.1-0.1l0,0
				l0,0c0,0,0,0,0.1,0c0,0,0,0,0.1,0l0,0l0,0C120.6,43.4,120.6,43.4,120.7,43.4C120.6,43.4,120.6,43.4,120.7,43.4L120.7,43.4
				L120.7,43.4"/>
			<path id="XMLID_1094_" class="st1" d="M149.9,26.2c0,0.1,0,0.1,0,0.1v0.1c0,0.1,0.1,0.1,0,0.2c0,0.1,0,0.2,0,0.2
				c0,0.1,0,0.2,0,0.3c0,0.1,0,0.1,0.1,0.2c0,0.1,0,0.1,0.1,0.1l0,0l0,0l0,0l0,0l0,0l0,0v0.1l0,0l0,0c0,0,0,0,0-0.1l0,0l0,0l0,0
				v-0.1c0.1,0,0.1-0.1,0-0.1v-0.1h0.1c0,0,0,0,0-0.1c0,0,0,0,0-0.1l0,0c0,0,0,0,0-0.1c0,0,0,0,0-0.1l0,0h-0.1l0,0h0.1l0,0l0,0l0,0
				l0,0l0,0c0,0,0,0-0.1,0l0,0l0,0c0,0,0-0.1-0.1-0.1l0,0l0,0l0,0l0,0l0,0l0,0c0,0,0,0,0-0.1s-0.1-0.2,0-0.2
				c0.1-0.1,0.2-0.1,0.3-0.1s0.1,0,0.2,0h0.1l-0.2-0.1c-0.1,0-0.2,0-0.4-0.1c-0.1,0-0.2,0-0.3-0.1c-0.1,0-0.2-0.1-0.4-0.1
				c-0.1,0-0.2,0-0.3,0s-0.2,0-0.3,0.1c-0.1,0-0.1,0.1-0.2,0.2c0,0,0,0,0.1-0.1h0.1c0,0,0,0,0,0.1c0,0,0,0.1-0.1,0.1
				c0,0,0,0.1-0.1,0.1c0,0,0,0,0,0.1c0,0-0.1,0-0.1,0.1l0,0l0,0c0,0,0,0,0,0.1l0,0l0,0c0,0,0,0,0,0.1c0,0-0.1,0-0.1-0.1l0,0
				c0,0.1,0.1,0.1,0.2,0.1c0.1,0,0.1-0.1,0.2-0.1c0.1,0,0.1-0.1,0.2-0.1l0,0c0,0,0,0,0.1,0c0,0,0,0,0-0.1c0,0,0,0,0.1,0l0,0l0,0l0,0
				c0,0,0.1,0,0.1-0.1l0,0l0,0l0,0l0,0l0,0C149.8,26.2,149.8,26.2,149.9,26.2C149.8,26.2,149.8,26.2,149.9,26.2
				C149.8,26.2,149.9,26.2,149.9,26.2L149.9,26.2L149.9,26.2"/>
			<path id="XMLID_1093_" class="st1" d="M96.3,46.4c0,0.1,0,0.1,0,0.2c0,0.1,0,0.1,0,0.2c0,0.1,0,0.1,0,0.2v0.1
				c0,0.1,0.1,0.2,0.1,0.3s0,0.1,0,0.2c0,0.1,0.1,0,0.1,0v0.1v-0.1v0.1v-0.1l0,0c0,0,0,0,0-0.1l0,0c0,0,0,0,0-0.1c0,0,0,0,0-0.1l0,0
				c0,0,0,0,0-0.1l0,0c0,0,0,0,0-0.1c0,0,0,0,0-0.1l0,0l0,0v-0.1l0,0l0,0c0.1,0,0.2,0,0.3,0h0.1c0,0,0.1,0,0.1,0.1
				c0.2,0.2,0.3,0.4,0.5,0.6v-0.1l-0.1-0.1c0,0,0.1,0.1,0.1,0s0-0.1-0.1-0.2l0,0c0-0.1,0-0.1,0-0.2l0,0c0,0,0,0,0-0.1l0,0l0,0v-0.1
				c0.1,0,0.1,0,0.2,0s0.2,0,0.2,0s0.2,0,0.2-0.1c0,0,0,0,0-0.1v-0.1c-0.1,0-0.2,0-0.2,0c-0.1,0-0.2,0-0.3,0c-0.1,0-0.2,0-0.3-0.1
				c-0.1,0-0.2-0.1-0.3-0.1c-0.1,0-0.2-0.1-0.3-0.1C96.5,46.2,96.5,46.2,96.3,46.4L96.3,46.4l-0.1-0.1h-0.1H96c-0.1,0-0.2,0-0.2,0.1
				s-0.1,0.1-0.1,0.2l0,0C96.3,46.4,96.3,46.4,96.3,46.4L96.3,46.4L96.3,46.4L96.3,46.4"/>
			<path id="XMLID_1092_" class="st1" d="M130.9,33.9c-0.1,0-0.1,0-0.2,0h-0.1c0,0,0,0-0.1,0c0,0,0,0-0.1,0h-0.1V34c0,0,0,0,0,0.1
				v0.1c0-0.1,0.1-0.1,0.1,0c0,0,0.1,0,0.1,0.1c0,0,0,0-0.1,0.1c0,0,0,0.1-0.1,0.1c0,0,0,0.1-0.1,0.1c0,0,0,0.1-0.1,0.1l-0.1,0.1
				c0,0,0,0.1-0.1,0.1l-0.1,0.1h-0.1l0,0l0,0c0,0,0,0,0.1,0c0,0,0,0,0.1,0l0,0l0,0h0.1c0,0,0,0,0-0.1c0,0,0,0.1,0,0V35l0,0l0,0l0,0
				l0,0l0,0l0,0c0,0,0,0.1,0.1,0v-0.1c0,0,0,0,0.1,0l0,0l0,0l0,0l0,0l0,0c0,0,0,0,0-0.1v0.1V35v0.1v0.1c0,0,0,0,0.1,0h0.1
				c0,0,0,0.1,0.1,0.1v-0.1l0,0l0,0l0,0c0,0,0,0,0-0.1c0,0,0,0,0.1,0V35c0,0,0,0,0.1,0v-0.1l0,0c0,0,0,0,0-0.1c0,0,0,0,0.1,0
				c0,0,0,0,0-0.1l0,0l0,0c0,0,0,0,0-0.1l0,0l0,0l0,0c0,0,0,0,0-0.1c0-0.1,0-0.1,0-0.2c0-0.1,0.1-0.1,0.2-0.1c0.1,0,0.1,0,0.2,0
				c0.1,0,0.1,0.1,0.2,0.1l0,0l0,0l0,0h-0.1c-0.1,0-0.1,0-0.1,0l-0.1-0.1c0,0-0.1,0-0.1-0.1h-0.1c0,0-0.1,0-0.1-0.1h-0.1
				c-0.1,0-0.1,0-0.2,0C130.9,33.9,130.9,33.9,130.9,33.9"/>
		</g>
		<g id="XMLID_1072_">
			<g id="XMLID_1086_">
				<path id="XMLID_1088_" d="M191,65.3L191,65.3V63h-16.9v0.3v3.2v14.2v2.1v1.5H191v-0.2l0,0V65.3z M177.6,80.1v-13
					c0-0.3,0.3-0.6,0.6-0.6h8.8l0,0c0.3,0,0.6,0.3,0.6,0.6l0,0v13l0,0c0,0.3-0.3,0.6-0.6,0.6h-8.8C177.9,80.8,177.6,80.5,177.6,80.1
					z"/>
				<path id="XMLID_1087_" d="M164.8,76.6c0.1-0.1,0.3-0.2,0.4-0.2h6.7v-3.5h-6.7c-0.3,0-0.6-0.3-0.6-0.6v-5.2
					c0-0.3,0.3-0.6,0.6-0.6h6.7V63h-13.8c-0.3,0-0.6-0.3-0.6-0.6v-2.7H154V63v2.4v1.1h6.5c0.3,0,0.6,0.3,0.6,0.6v5.2
					c0,0.3-0.3,0.6-0.6,0.6H154v3.5h6.5c0.2,0,0.3,0.1,0.4,0.2c0.1,0.2,0.1,0.5,0,0.7l-0.2,0.2l0,0l0,0l-19.2,23.9l-0.2,0.2l2.5,2.4
					l18.8-23.4l0,0l0,0l0,0c0,0,0,0,0.1,0l0.1,0.1h0.1l6.7,9.2l2.9-1.9l-7.9-10.9C164.6,76.9,164.7,76.8,164.8,76.6z"/>
			</g>
			<g id="XMLID_1074_">
				<path id="XMLID_1082_" d="M213.3,62.9v0.2v3.3v5.4v3.5v5.2V83v1.1h9.6c0.3,0,0.5,0.2,0.6,0.5v21.5v0.1c0,0.4-0.2,0.7-0.4,0.9
					l-0.1,0l0,0l-10.2,9.9l2.4,2.5l11.8-11.3l0,0l0,0v-33v-3.5v-5.4v-2.9v-0.6h-13.7V62.9z M223.5,80c-0.1,0.3-0.3,0.5-0.6,0.5h-5.6
					c-0.3,0-0.5-0.2-0.6-0.5v-4.2c0.1-0.3,0.3-0.5,0.6-0.5h5.6c0.3,0,0.5,0.2,0.6,0.5V80z M223.5,71.3c-0.1,0.3-0.3,0.5-0.6,0.5
					h-5.6c-0.3,0-0.5-0.2-0.6-0.5v-4.5c0.1-0.3,0.3-0.5,0.6-0.5h5.6c0.3,0,0.5,0.2,0.6,0.5V71.3z"/>
				<path id="XMLID_1078_" d="M210.6,82.9L210.6,82.9V63.1l0,0v-0.2h-13.8v0.4v3.2v39.8h3.5V84.5c0-0.3,0.3-0.6,0.6-0.6h9.7V82.9z
					 M207.1,79.8c0,0.3-0.3,0.6-0.6,0.6h-5.6c-0.3,0-0.6-0.3-0.6-0.6v-3.9c0-0.3,0.3-0.6,0.6-0.6h5.6c0.3,0,0.6,0.3,0.6,0.6V79.8z
					 M207.1,71.2c0,0.3-0.3,0.6-0.6,0.6h-5.6c-0.3,0-0.6-0.3-0.6-0.6V67c0-0.3,0.3-0.6,0.6-0.6h5.6c0.3,0,0.6,0.3,0.6,0.6V71.2z"/>
				<path id="XMLID_1075_" d="M219.5,104v-3.5v-9.9v-3.5H216h-11.6v0.7v2.8V104h0.1h3.4h8H219.5z M215.4,100.5h-6.8
					c-0.3,0-0.6-0.3-0.6-0.6v-2.2c0-0.3,0.3-0.6,0.6-0.6h4.3v-3.5h-4.3c-0.3,0-0.6-0.3-0.6-0.6v-1.8c0-0.3,0.3-0.6,0.6-0.6h6.8
					c0.3,0,0.6,0.3,0.6,0.6v8.7C216,100.2,215.7,100.5,215.4,100.5z"/>
			</g>
			<path id="XMLID_1073_" class="st1" d="M143.7,59.9v12c0,0.4-0.4,0.8-0.8,0.8h-10.5c-0.4,0-0.8-0.4-0.8-0.8V47.1h-3.9V72
				c0,0.4-0.4,0.8-0.8,0.8H116c-0.4,0-0.8-0.4-0.8-0.8V60h-3.9v16.3h36.3V59.9H143.7z"/>
		</g>
	</g>
	<g id="XMLID_1060_">
		<g id="XMLID_1061_">
			<g id="XMLID_1068_">
				<path id="XMLID_1069_" d="M210.9,53.1c0.2,1,0,1.4-0.5,1.3c-0.5-0.1-0.9-0.3-1.3-0.4c-0.8,0-1.3-0.1-1.6-0.2
					c-0.2-0.1,0-0.2,0.7-0.4c-0.8-0.6-1.5-1-2.3-1.4s-1.2-0.5-1.2-0.5v5.3c-0.2,1.1-0.6,1.6-1.3,1.5c-0.8,0-1.2-0.7-1.3-2.1v-3.3
					c-1.3,1-2.5,1.8-3.6,2.3s-1.5,0.4-1.2-0.5c0.4-1.1,0.6-1.7,0.8-1.7c0.2-0.1,0.3,0.2,0.2,0.8c1-0.8,1.7-1.6,2.3-2.3
					s0.9-1.1,0.9-1.1c-0.9-0.1-1.8-0.5-2.6-1.3s-0.7-1.2,0.4-1.4c0.7-0.2,1.4-0.5,2.1-0.8c0.7-0.3,1.1-0.5,1.2-0.5
					c0-0.7,0.1-1.1,0.2-1.2c0.1-0.1,0.3-0.3,0.5-0.5c-1.3-0.1-2.2-0.4-2.9-1s-0.5-1,0.6-1.1c1.6-0.3,2.5-0.7,2.8-1.1
					c0.3-0.4,0.7-0.2,1.4,0.5c1.1,0.6,1.5,1.1,1.1,1.6s-1.1,0.8-2.2,1.1l0.6,0.6c0.7-0.6,1.3-0.7,1.9-0.3c0.6,0.4,0.8,0.8,0.7,1.2
					c-0.1,0.5-0.4,0.8-0.9,0.9c-0.6,0.2-1.1,0.5-1.7,1.1l-0.2,2.4c1,0.2,2.2,0.5,3.7,1.1C209.8,52.1,210.6,52.6,210.9,53.1z"/>
			</g>
			<g id="XMLID_1062_">
				<path id="XMLID_1063_" d="M228.4,52.8c0.5,0.6,0.7,1.2,0.7,1.7c-0.1,0.6-0.6,0.6-1.6,0.1c-0.9-0.5-1.7-1-2.5-1.4l-1.1-0.6
					c0.1,1,0.1,1.8,0.2,2.5c0.1,0.7,0.1,1.1,0.2,1.1c-0.1,1.4-0.5,2.1-1.2,2c-0.8-0.1-1.3-0.6-1.7-1.4c-0.8-0.3-1.3-0.7-1.5-1.2
					c-0.2-0.6-0.3-1-0.4-1.2c-0.2-0.2-0.4-0.2-0.6-0.1c-0.2,0.1-0.5,0.2-0.8,0.4v0.9c-0.2,0.9-0.5,1.4-1.1,1.4s-1-0.5-1.1-1.4
					l0.2-2.9c-0.4,0.8-0.9,1.4-1.5,1.8c-0.6,0.5-1,0.2-1.2-0.9c0-0.6,0.2-1,0.5-1.3s0.4-0.4,0.5-0.4c0.4-0.5,0.7-1,0.9-1.4
					s0.4-0.6,0.5-0.6c-0.7-0.2-1.4-0.6-2.2-1.1c-0.8-0.6-0.9-1.1-0.2-1.5c0.4-0.6,1-1.2,1.7-1.8s1.1-0.9,1.2-0.9
					c-0.1-0.3-0.1-0.5-0.1-0.8l-0.1-0.3c-0.1-0.9,0.4-1.2,1.4-0.9s1.6,0.8,1.9,1.4c0,0.4-0.1,0.7-0.2,0.9c-0.1,0.3-0.2,0.4-0.2,0.5
					c0.3,0.5,0.4,0.9,0.1,1.2c-0.2,0.3-0.5,0.8-0.8,1.4c-0.1,0.2-0.1,0.4-0.1,0.7c-0.1,0.2-0.1,0.3,0,0.4c0.6-0.4,1.3-0.9,2.1-1.4
					c0.8-0.6,1.3-0.8,1.4-0.8c0-1.7,0-2.9,0.2-3.7c0.1-0.8,0.1-1.2,0.2-1.1c-0.1-1,0.1-1.4,0.6-1.3c0.5,0.1,0.9,0.5,1.4,1.1
					c0.8,0.6,1.1,1.1,0.8,1.6c-0.2,0.5-0.4,0.8-0.5,1V45c1.3,0,1.9,0.3,1.8,1.1c0,0.7-0.4,1.3-1.1,1.8l-0.8,0.9l-0.2,3
					c1.2-0.1,2.3,0.1,3.2,0.5C227.9,52.5,228.3,52.7,228.4,52.8z M216,45.4c-0.7,0.1-1.2,0.3-1.4,0.7c-0.3,0.4-0.4,0.6-0.3,0.7
					c0.5-0.4,0.9-0.7,1.2-1C215.8,45.6,215.9,45.4,216,45.4z M220.2,50.1c-0.5-0.4-0.8-0.6-1.1-0.8c-0.3-0.1-0.8,0.2-1.4,0.9
					c0.1,0.7,0.2,1.3,0.2,1.9c-0.1,0.6,0,1,0.1,1.3c0.5-0.6,0.9-1.3,1.3-2C219.7,50.6,220,50.2,220.2,50.1z M221.2,56v-3.5
					c-0.5,0.6-0.9,1.1-1.1,1.4l-0.4,0.5c0.1,0.2,0.2,0.4,0.3,0.8C220.2,55.5,220.6,55.8,221.2,56z"/>
			</g>
		</g>
	</g>
</g>
<g>
	<path class="st2" d="M5.3,140.8v-2.3c0-0.3,0-0.6,0-0.8c0-0.1,0-0.2,0-0.3c0,0,0.1-0.1,0.3-0.1l1.3,0.2c0.1,0.1,0.2,0.1,0.2,0.2
		c0,0.1-0.1,0.1-0.2,0.1c-0.2,0.1-0.3,0.3-0.3,0.8v2.2h1.8c0.1,0,0.2,0.1,0.2,0.3v0.5c0,0.2-0.1,0.3-0.2,0.3H6.5v3.5
		c0.6-0.3,1.1-0.6,1.7-0.9c0,0,0.1-0.1,0.1-0.1c0.1,0,0.1,0.1,0.1,0.1c0,0.6,0,0.9-0.1,1c-0.6,0.4-1.2,0.7-1.8,1v5.4
		c0,0.8-0.6,1.2-1.7,1.2H3.6c-0.1,0-0.1-0.1-0.1-0.3c-0.1-0.2-0.2-0.5-0.3-0.8c0-0.1,0-0.1,0.1-0.1c0.5,0.1,0.9,0.1,1.3,0.1
		c0.5,0,0.7-0.2,0.7-0.5v-4.4c-0.4,0.2-0.9,0.4-1.3,0.6c-0.2,0.3-0.3,0.5-0.4,0.5c-0.1,0-0.4-0.5-0.7-1.4c0.7-0.2,1.5-0.5,2.4-0.9
		v-4.1h-2c-0.1,0-0.2-0.1-0.2-0.3V141c0-0.2,0.1-0.3,0.2-0.3H5.3z M12.2,146c0.4-0.6,0.6-1.1,0.9-1.7c0-0.1,0-0.1,0.1-0.1
		c0.9,0.5,1.4,0.7,1.4,0.8c0,0.1-0.1,0.2-0.1,0.2c-0.2,0-0.3,0.1-0.4,0.2c-0.1,0.2-0.3,0.5-0.4,0.7h5.2c0.1,0,0.2,0.1,0.2,0.3v0.5
		c0,0.2-0.1,0.3-0.2,0.3h-1.7c-0.2,0.5-0.4,0.9-0.6,1.3c-0.3,0.6-0.6,1.1-1,1.6c-0.1,0.1-0.2,0.2-0.2,0.3c0.3,0.1,0.5,0.3,0.8,0.4
		c0.9,0.5,1.7,1,2.6,1.6c0,0.1,0,0.2-0.1,0.2c-0.4,0.4-0.6,0.7-0.6,0.7c-0.1,0-0.1,0-0.2-0.1c-1-0.6-1.8-1.1-2.4-1.5
		c-0.4-0.2-0.7-0.4-1-0.5c-0.1,0-0.1,0.1-0.2,0.1c-0.5,0.4-1.1,0.7-1.8,1c-0.9,0.4-1.9,0.7-3.1,1c-0.1,0-0.2-0.1-0.2-0.1
		c-0.2-0.2-0.4-0.5-0.6-0.9c-0.1-0.1-0.2-0.2-0.2-0.2c0.2,0,0.5-0.1,1-0.2c0.5-0.1,1.1-0.2,1.7-0.4c0.8-0.3,1.5-0.6,2-0.9
		c0,0,0,0,0,0c-0.7-0.3-1.5-0.6-2.5-0.9c-0.2,0.2-0.5,0.4-0.7,0.6c-0.1,0-0.2-0.1-0.3-0.2c-0.2-0.1-0.3-0.3-0.5-0.4
		c-0.1-0.1-0.1-0.1-0.1-0.2c0.5-0.4,1-0.9,1.5-1.3c0.4-0.3,0.7-0.7,1-1.1H8.9c-0.1,0-0.2-0.1-0.2-0.3v-0.5c0-0.2,0.1-0.3,0.2-0.3
		H12.2z M14.8,137.5c0,0.2-0.1,0.2-0.2,0.3c-0.1,0-0.2,0.1-0.2,0.4v1.2h4c0.1,0,0.2,0.1,0.2,0.3v0.5c0,0.2-0.1,0.3-0.2,0.3h-1.9
		l0.7,0.3c0.2,0.1,0.3,0.2,0.3,0.2c0,0.1-0.1,0.2-0.1,0.2c-0.1,0-0.2,0.1-0.2,0.2c-0.2,0.7-0.4,1.2-0.6,1.6h2.2
		c0.1,0,0.2,0.1,0.2,0.3v0.5c0,0.2-0.1,0.3-0.2,0.3H8.9c-0.1,0-0.2-0.1-0.2-0.3v-0.5c0-0.2,0.1-0.3,0.2-0.3h2.3
		c-0.1-0.2-0.1-0.3-0.2-0.5c-0.2-0.5-0.4-1.1-0.7-1.6c0-0.1,0.2-0.2,0.6-0.4H9.3c-0.1,0-0.2-0.1-0.2-0.3v-0.5c0-0.2,0.1-0.3,0.2-0.3
		h3.9v-1.9c0-0.1,0.1-0.2,0.3-0.2C14.3,137.3,14.8,137.3,14.8,137.5z M15.1,143c0.2-0.4,0.4-0.8,0.5-1.1c0.2-0.5,0.3-0.9,0.4-1.4
		c0,0,0-0.1,0-0.1h-4.6c0.3,0.5,0.5,1,0.6,1.4c0.1,0.4,0.3,0.7,0.4,1.1H15.1z M14.3,149.6c0.4-0.4,0.7-0.8,1-1.3
		c0.2-0.3,0.4-0.7,0.6-1.2H13c-0.4,0.5-0.8,1-1.1,1.3c-0.1,0.1-0.2,0.2-0.3,0.3c0.7,0.2,1.3,0.5,1.9,0.7
		C13.8,149.5,14,149.6,14.3,149.6C14.2,149.7,14.2,149.7,14.3,149.6z"/>
	<path class="st2" d="M26.8,141.5c0,0.1,0,0.1-0.1,0.1c-0.2,0-0.3,0.1-0.3,0.2c-0.8,1.1-1.5,2-2.3,2.6v8.5c0,0.1-0.1,0.2-0.3,0.2
		h-0.7c-0.2,0-0.3-0.1-0.3-0.2v-7.5c-0.5,0.3-1,0.7-1.7,1.2c-0.1,0-0.2-0.1-0.3-0.2c-0.2-0.1-0.3-0.3-0.5-0.4
		c-0.1-0.1-0.1-0.1-0.1-0.2c0.6-0.4,1.2-0.8,1.9-1.2c0.8-0.6,1.5-1.2,2.1-1.9c0.5-0.6,0.9-1.2,1.2-1.8c0-0.1,0-0.1,0.1-0.1
		C26.4,141.2,26.8,141.5,26.8,141.5z M26.2,138c0,0.1,0,0.2-0.1,0.2c-0.2,0-0.3,0.1-0.3,0.2c-0.7,1.2-1.5,2-2.2,2.6
		c-0.4,0.4-1.1,0.9-2.1,1.5c-0.1,0-0.2-0.1-0.3-0.2c-0.1-0.1-0.3-0.2-0.5-0.4c-0.1-0.1-0.1-0.1-0.1-0.2c0.5-0.3,1-0.7,1.6-1.1
		c0.7-0.5,1.2-1.1,1.7-1.6c0.4-0.5,0.8-1.1,1-1.6c0-0.1,0-0.1,0.1-0.1C25.8,137.7,26.2,138,26.2,138z M30.8,139.6v-2.2
		c0-0.1,0.1-0.2,0.3-0.2c0.9,0,1.3,0.1,1.3,0.2c0,0.2-0.1,0.2-0.2,0.3s-0.2,0.1-0.2,0.3v1.6h3.3c0.1,0,0.2,0.1,0.2,0.3v0.5
		c0,0.2-0.1,0.3-0.2,0.3h-3.3v2.3h4.2c0.1,0,0.2,0.1,0.2,0.3v0.5c0,0.2-0.1,0.3-0.2,0.3h-9.9c-0.1,0-0.2-0.1-0.2-0.3v-0.5
		c0-0.2,0.1-0.3,0.2-0.3h4.4v-2.3h-3.7c-0.1,0-0.2-0.1-0.2-0.3v-0.5c0-0.2,0.1-0.3,0.2-0.3H30.8z M32.7,146.3v-0.2
		c0-0.3,0-0.6-0.1-0.8c-0.1-0.1-0.1-0.2-0.1-0.3s0.1-0.1,0.3-0.1l1.4,0.2c0.1,0.1,0.2,0.1,0.2,0.2c0,0.1-0.1,0.2-0.2,0.2
		c-0.2,0.1-0.3,0.4-0.3,0.8v0.1h2c0.1,0,0.2,0.1,0.2,0.3v0.5c0,0.2-0.1,0.3-0.2,0.3h-2v4.5c0,0.8-0.6,1.2-1.9,1.2h-1.2
		c-0.1,0-0.1-0.1-0.1-0.3c-0.1-0.2-0.2-0.5-0.3-0.8c0-0.1,0-0.1,0.1-0.1c0.5,0.1,1,0.1,1.4,0.1c0.5,0,0.8-0.2,0.8-0.6v-4h-6.3
		c-0.1,0-0.2-0.1-0.2-0.3v-0.5c0-0.2,0.1-0.3,0.2-0.3H32.7z M28.1,148.3c0.6,0.8,1.2,1.6,1.7,2.4c0,0.2-0.1,0.3-0.1,0.3
		c-0.4,0.3-0.7,0.4-1,0.4c-0.6-1-1.1-1.9-1.6-2.6c0-0.1,0.2-0.3,0.8-0.6C28,148.2,28,148.2,28.1,148.3z"/>
	<path class="st2" d="M47.3,137.5c0.1,0.1,0.2,0.2,0.2,0.2c0,0.1-0.1,0.2-0.3,0.2H47c0.7,0.6,1.3,1,1.9,1.3c0.8,0.5,1.7,0.9,2.5,1.2
		c0.9,0.4,1.8,0.6,2.7,0.8c0,0.1-0.1,0.2-0.1,0.2c-0.4,0.3-0.6,0.5-0.7,0.7c-0.1,0.1-0.1,0.1-0.2,0.1c-1.2-0.3-2.3-0.8-3.4-1.4v0.5
		c0,0.2-0.1,0.3-0.1,0.3h-7c-0.1,0-0.1-0.1-0.1-0.3v-0.6c-0.6,0.3-1.3,0.6-1.9,0.9c-0.7,0.3-1.3,0.5-1.7,0.6c-0.1,0-0.2-0.1-0.3-0.2
		c-0.2-0.3-0.4-0.5-0.6-0.7c-0.1-0.1-0.2-0.1-0.2-0.2c0,0,0-0.1,0.1-0.1c1-0.2,1.8-0.5,2.5-0.8c0.9-0.4,1.8-0.8,2.7-1.3
		c0.6-0.3,1.1-0.7,1.5-1c0.4-0.3,0.8-0.7,1.2-1.1c0.1-0.1,0.2-0.1,0.3-0.1L47.3,137.5z M51.9,142.5c0.2,0,0.3,0.1,0.3,0.2v3.7
		c0,0.1-0.1,0.2-0.3,0.2H40c-0.2,0-0.3-0.1-0.3-0.2v-3.7c0-0.1,0.1-0.2,0.3-0.2H51.9z M42.7,145.2c-0.1-0.4-0.3-0.9-0.6-1.3
		c0-0.1,0.2-0.2,0.6-0.4H41v2h1.8C42.7,145.4,42.7,145.3,42.7,145.2z M50.7,147.3c0.2,0,0.3,0.1,0.3,0.2v5.5c0,0.1-0.1,0.2-0.3,0.2
		H50c-0.2,0-0.3-0.1-0.3-0.2v-0.4h-7.5v0.4c0,0.1-0.1,0.2-0.3,0.2h-0.7c-0.2,0-0.3-0.1-0.3-0.2v-5.5c0-0.1,0.1-0.2,0.3-0.2H50.7z
		 M49.7,149.5v-1.2h-7.5v1.2H49.7z M49.7,151.6v-1.2h-7.5v1.2H49.7z M49.1,140.6c-0.1-0.1-0.3-0.1-0.4-0.2c-0.7-0.4-1.6-1-2.7-2
		c-0.6,0.5-1.2,0.9-1.7,1.2c-0.5,0.3-1,0.6-1.6,1H49.1z M45.3,143.5h-2.2c0.2,0.4,0.4,0.8,0.6,1.2c0.1,0.3,0.2,0.6,0.3,0.9h1.4
		V143.5z M48.5,144.7c0.2-0.4,0.3-0.8,0.4-1.2v0h-2.3v2h1.6C48.3,145.2,48.4,144.9,48.5,144.7z M51,143.5h-1.7l0.6,0.2
		c0.1,0.1,0.2,0.1,0.2,0.2c0,0.1,0,0.1-0.1,0.2c-0.1,0-0.1,0.1-0.2,0.2c-0.1,0.5-0.3,0.9-0.4,1.3H51V143.5z"/>
	<path class="st2" d="M60.5,137.7c0.1,0.1,0.2,0.2,0.2,0.2c0,0.1-0.1,0.2-0.3,0.2c-0.1,0-0.3,0-0.3,0.1c0.4,0.5,0.8,0.9,1.1,1.1
		c0.5,0.4,1,0.8,1.7,1.1c0,0.1,0,0.2-0.1,0.2c-0.2,0.1-0.4,0.3-0.6,0.6c0,0-0.1,0-0.1-0.1c-0.4-0.2-0.7-0.4-1-0.6v0.4
		c0,0.2-0.1,0.3-0.2,0.3h-2.7c-0.1,0-0.2-0.1-0.2-0.3v-0.2c-0.4,0.3-0.7,0.6-1.1,0.9c-0.4,0.3-0.7,0.5-0.9,0.6
		c-0.1,0-0.2-0.1-0.2-0.2c-0.1-0.2-0.3-0.4-0.5-0.6c-0.1-0.1-0.2-0.1-0.2-0.2c0,0,0,0,0.1-0.1c0.5-0.2,0.9-0.5,1.3-0.7
		c0.5-0.3,0.9-0.7,1.4-1.2c0.3-0.3,0.6-0.6,0.8-0.9c0.2-0.3,0.4-0.7,0.6-1.1c0.1-0.1,0.1-0.1,0.2-0.1L60.5,137.7z M57.7,151.3
		c0.2-0.1,0.4-0.1,0.7-0.2c0.9-0.3,1.8-0.6,2.6-0.9c-0.2-0.4-0.5-0.8-0.8-1.2c0-0.1,0.3-0.3,1-0.6c0.5,0.7,0.9,1.3,1.2,1.9
		c0.3,0.5,0.6,1.1,0.8,1.7c0,0-0.4,0.2-1.2,0.3c-0.1-0.3-0.2-0.8-0.4-1.2c-1.7,0.6-3.3,1.2-5,1.7c-0.2,0.3-0.3,0.5-0.4,0.5
		s-0.3-0.5-0.6-1.4c0.4-0.1,0.7-0.2,1.1-0.3v-9.2c0-0.2,0.1-0.3,0.2-0.3h5.3c0.2,0,0.3,0.1,0.3,0.2v5.5c0,0.2-0.1,0.3-0.3,0.3h-4.4
		V151.3z M57.7,144.5h3.4v-1.3h-3.4V144.5z M57.7,147h3.4v-1.4h-3.4V147z M60.5,140.1c-0.3-0.3-0.7-0.7-1.1-1.1
		c-0.2,0.3-0.4,0.5-0.6,0.7c-0.1,0.2-0.2,0.3-0.4,0.4H60.5z M68.3,137.3c0,0.2-0.1,0.2-0.2,0.3c-0.1,0-0.2,0.1-0.2,0.4v1.1h3.3
		c0.2,0,0.3,0.1,0.3,0.2v3.6c0,0.1-0.1,0.2-0.3,0.2h-0.7c-0.2,0-0.3-0.1-0.3-0.2v-2.7h-6v2.8c0,0.1-0.1,0.2-0.3,0.2h-0.7
		c-0.2,0-0.3-0.1-0.3-0.2v-3.6c0-0.2,0.1-0.3,0.3-0.3h3.4v-1.7c0-0.1,0.1-0.2,0.3-0.2C67.9,137.1,68.3,137.2,68.3,137.3z
		 M69.6,141.9c0.2,0,0.3,0.1,0.3,0.2v3.6c0,0.2-0.1,0.3-0.3,0.3h-3.7v1.7h4.5c0.2,0,0.3,0.1,0.3,0.2v4.8c0,0.1-0.1,0.2-0.3,0.2h-0.7
		c-0.2,0-0.3-0.1-0.3-0.2v-0.6h-3.6v0.6c0,0.1-0.1,0.2-0.3,0.2H65c-0.2,0-0.3-0.1-0.3-0.2v-10.6c0-0.2,0.1-0.3,0.3-0.3H69.6z
		 M68.7,144.9V143h-2.7v1.9H68.7z M69.5,151.1v-2.2h-3.6v2.2H69.5z"/>
	<path class="st2" d="M79.2,153.1l-0.9-0.5l7.3-15.3l0.9,0.5L79.2,153.1z"/>
	<path class="st2" d="M95.9,141v-3.6c0-0.1,0.1-0.2,0.3-0.2c0.9,0,1.3,0.1,1.3,0.2c0,0.2-0.1,0.2-0.2,0.3c-0.1,0-0.2,0.1-0.2,0.4v3
		h1.9c0.1,0,0.2,0.1,0.2,0.3v0.5c0,0.2-0.1,0.3-0.2,0.3h-1.8c0.3,0.7,0.5,1.2,0.7,1.5c0.3,0.6,0.8,1.2,1.5,1.9
		c0.1,0.1,0.1,0.1,0.1,0.2c0,0-0.1,0.1-0.1,0.1c-0.1,0.2-0.3,0.4-0.5,0.5c-0.1,0.1-0.2,0.2-0.2,0.2c-0.1,0-0.1,0-0.2-0.1
		c-0.5-0.5-0.9-1.1-1.3-1.8c-0.1-0.1-0.1-0.2-0.2-0.3v8.6c0,0.1-0.1,0.2-0.3,0.2h-0.7c-0.2,0-0.3-0.1-0.3-0.2v-7.2
		c-0.2,0.5-0.4,1-0.6,1.4c-0.3,0.7-0.7,1.4-1.1,2c-0.1,0-0.2,0-0.3-0.1c-0.3-0.1-0.5-0.2-0.8-0.4c-0.1,0-0.2,0-0.2-0.1
		c0.6-0.8,1.1-1.5,1.4-2.3c0.4-0.7,0.6-1.4,0.8-2.1c0.2-0.4,0.3-1.1,0.5-2.1h-2.1c-0.1,0-0.2-0.1-0.2-0.3v-0.5
		c0-0.2,0.1-0.3,0.2-0.3H95.9z M103.6,137.6c0,0.1-0.1,0.2-0.1,0.2c-0.1,0.1-0.2,0.3-0.2,0.5v7.1c0,0.7-0.1,1.4-0.2,2.2
		c-0.1,0.9-0.3,1.6-0.7,2.3c-0.3,0.7-0.7,1.3-1.3,1.9c-0.4,0.5-1,0.9-1.8,1.5c-0.1,0-0.1-0.1-0.2-0.1c-0.2-0.2-0.3-0.3-0.5-0.4
		c-0.1-0.1-0.1-0.1-0.1-0.2c0.9-0.6,1.5-1.1,1.8-1.5c0.4-0.4,0.7-0.9,0.9-1.5c0.2-0.5,0.5-1.2,0.6-2.1c0.1-0.4,0.1-0.8,0.1-1.2
		c-0.4,0.4-0.7,0.7-1,1c-0.3,0.3-0.6,0.6-1,0.9c-0.1,0.1-0.1,0.2-0.1,0.3s-0.1,0.2-0.1,0.2c-0.1,0-0.4-0.3-1-1
		c-0.1,0-0.1-0.1-0.1-0.2c0,0,0-0.1,0.1-0.1c0.3-0.2,0.7-0.4,1-0.7c0.5-0.4,1-0.8,1.4-1.3c0.3-0.3,0.6-0.7,0.9-0.9v-1.1
		c-0.5-0.6-0.9-1.2-1.4-1.7c-0.5-0.4-0.8-0.8-1.1-1c0-0.1,0.2-0.3,0.5-0.8c0.1-0.1,0.1-0.1,0.1-0.1c0.6,0.5,1.1,0.9,1.5,1.3
		c0.1,0.1,0.2,0.3,0.4,0.4v-4.2c0-0.1,0-0.2,0.1-0.2C103.1,137.4,103.6,137.5,103.6,137.6z M105.8,137.4c0.1,0,0.2,0.1,0.2,0.1
		c0,0.1-0.1,0.2-0.1,0.2c-0.1,0-0.2,0.1-0.2,0.2v3.9c0.2-0.1,0.4-0.3,0.6-0.4c0.5-0.4,1-0.9,1.5-1.5c0.1-0.1,0.1-0.1,0.2-0.1
		c0.7,0.6,1.1,0.9,1.1,1c0,0.1-0.1,0.1-0.2,0.1c-0.2,0-0.4,0-0.4,0.1c-0.9,1-1.8,1.8-2.7,2.4v1.3c0.8,0.5,1.4,1,1.9,1.4
		c0.6,0.6,1.2,1.1,1.6,1.6c0,0,0,0.1-0.1,0.2c-0.4,0.5-0.6,0.8-0.6,0.8c-0.7-0.8-1.4-1.5-2.2-2.1c-0.3-0.2-0.5-0.4-0.7-0.5v5.2
		c0,0.5,0.3,0.8,1,0.8h0.2c0.6,0,0.9-0.1,1-0.3c0.1-0.2,0.3-0.8,0.5-2c0.1,0.2,0.4,0.5,0.7,0.6c0.1,0.1,0.2,0.2,0.2,0.2
		c-0.3,1.3-0.5,2-0.6,2.2c-0.1,0.3-0.5,0.5-0.9,0.5h-1.2c-1.4,0-2-0.4-2-1.2v-14.3c0-0.1,0-0.2,0.1-0.2L105.8,137.4z"/>
	<path class="st2" d="M125.6,138c0.2,0,0.3,0.1,0.3,0.2v14.8c0,0.1-0.1,0.2-0.3,0.2h-0.7c-0.2,0-0.3-0.1-0.3-0.2v-0.5H113v0.5
		c0,0.1-0.1,0.2-0.3,0.2h-0.7c-0.2,0-0.3-0.1-0.3-0.2v-14.8c0-0.1,0.1-0.2,0.3-0.2H125.6z M124.6,151.4V139H113v12.4H124.6z
		 M122.4,143.6c0.2,0,0.3,0.1,0.3,0.2v2.5c0,0.1-0.1,0.2-0.3,0.2H120c0.3,0.5,0.6,0.8,0.9,1.1c0.1,0.1,0.1,0.2,0.2,0.2
		c0.4-0.3,0.7-0.6,0.9-0.9c0.1-0.1,0.1-0.1,0.2-0.1c0.1,0,0.1,0,0.2,0.1c0.5,0.4,0.8,0.6,0.8,0.6c0,0.1-0.1,0.2-0.2,0.2l-0.3-0.1
		c-0.1,0-0.1,0-0.2,0.1c-0.2,0.2-0.5,0.4-0.7,0.6c0.2,0.2,0.4,0.3,0.5,0.4c0.5,0.4,1.1,0.7,1.6,0.8c0,0.1,0,0.1-0.1,0.2
		c-0.3,0.2-0.5,0.4-0.6,0.6c0,0.1-0.1,0.1-0.2,0.1c-0.9-0.4-1.7-1-2.4-1.8c-0.4-0.4-1-1.1-1.6-2.1h0c-0.3,0.3-0.6,0.6-0.8,0.8v2.4
		c0.7-0.2,1.5-0.3,2.1-0.5c0,0,0,0,0.1,0c0.1,0,0.1,0.1,0.1,0.1c0,0.5,0,0.8-0.1,0.8c-1.2,0.3-2.4,0.5-3.6,0.8
		c-0.1,0.3-0.3,0.4-0.3,0.4c-0.1,0-0.3-0.4-0.5-1.2c0.3,0,0.7-0.1,1.1-0.2v-1.6c-0.2,0.2-0.4,0.3-0.5,0.4c-0.7,0.4-1.3,0.8-1.9,1
		c-0.1,0-0.1-0.1-0.2-0.2c-0.1-0.2-0.3-0.4-0.4-0.6c-0.1-0.1-0.1-0.1-0.1-0.2c0.6-0.2,1.3-0.5,2.2-1c0.5-0.3,1-0.7,1.5-1.3h-2.1
		c-0.2,0-0.3-0.1-0.3-0.2v-2.5c0-0.1,0.1-0.2,0.3-0.2H122.4z M118.2,140.3v-0.8c0-0.1,0.1-0.1,0.2-0.1c0.8,0,1.2,0.1,1.2,0.2
		c0,0.1-0.1,0.2-0.1,0.2c-0.1,0-0.1,0.1-0.1,0.3v0.2h3.1c0.1,0,0.1,0.1,0.1,0.2v0.4c0,0.2-0.1,0.3-0.1,0.3h-3.1v0.9h4
		c0.1,0,0.1,0.1,0.1,0.2v0.4c0,0.2-0.1,0.3-0.1,0.3h-9.2c-0.1,0-0.1-0.1-0.1-0.3v-0.4c0-0.1,0-0.2,0.1-0.2h4v-0.9h-2.9
		c-0.1,0-0.1-0.1-0.1-0.3v-0.4c0-0.1,0-0.2,0.1-0.2H118.2z M121.5,144.5h-5.1v1.2h5.1V144.5z"/>
	<path class="st2" d="M135.9,139.7v-2.4c0-0.1,0.1-0.2,0.3-0.2c0.9,0,1.4,0.1,1.4,0.2c0,0.2-0.1,0.2-0.2,0.3c-0.1,0-0.2,0.1-0.2,0.4
		v1.8h6.7c0.1,0,0.2,0.1,0.2,0.2v0.7c0,0.2-0.1,0.3-0.2,0.3h-15.2c-0.1,0-0.2-0.1-0.2-0.3V140c0-0.1,0.1-0.2,0.2-0.2H135.9z
		 M135.9,143.6v-1.9c0-0.1,0.1-0.2,0.3-0.2c0.9,0,1.4,0.1,1.4,0.2c0,0.2-0.1,0.2-0.2,0.3c-0.1,0-0.2,0.1-0.2,0.3v1.3h5.3
		c0.2,0,0.4,0.1,0.4,0.3v6.6c0,0.3-0.3,0.5-0.8,0.6c-0.5,0.1-1.1,0.2-1.9,0.2c-0.1,0-0.2-0.1-0.2-0.2c0-0.2-0.2-0.6-0.4-1.2
		c0,0,0.1-0.1,0.2-0.1c0.9,0,1.5,0,1.6-0.1c0.2-0.1,0.3-0.1,0.3-0.3v-4.9h-4.3v8.2c0,0.1-0.1,0.2-0.3,0.2h-0.7
		c-0.2,0-0.3-0.1-0.3-0.2v-8.2h-4.5v6.4c0,0.1-0.1,0.2-0.3,0.2h-0.7c-0.2,0-0.3-0.1-0.3-0.2v-7.4c0-0.1,0.1-0.2,0.3-0.2H135.9z"/>
	<path class="st2" d="M148.4,141v-3.6c0-0.1,0.1-0.2,0.3-0.2c0.9,0,1.3,0.1,1.3,0.2c0,0.2-0.1,0.2-0.2,0.3c-0.1,0-0.2,0.1-0.2,0.4v3
		h1.9c0.1,0,0.2,0.1,0.2,0.3v0.5c0,0.2-0.1,0.3-0.2,0.3h-1.8c0.3,0.7,0.5,1.2,0.7,1.5c0.3,0.6,0.8,1.2,1.5,1.9
		c0.1,0.1,0.1,0.1,0.1,0.2c0,0-0.1,0.1-0.1,0.1c-0.1,0.2-0.3,0.4-0.5,0.5c-0.1,0.1-0.2,0.2-0.2,0.2c-0.1,0-0.1,0-0.2-0.1
		c-0.5-0.5-0.9-1.1-1.3-1.8c-0.1-0.1-0.1-0.2-0.2-0.3v8.6c0,0.1-0.1,0.2-0.3,0.2h-0.7c-0.2,0-0.3-0.1-0.3-0.2v-7.2
		c-0.2,0.5-0.4,1-0.6,1.4c-0.3,0.7-0.7,1.4-1.1,2c-0.1,0-0.2,0-0.3-0.1c-0.3-0.1-0.5-0.2-0.8-0.4c-0.1,0-0.2,0-0.2-0.1
		c0.6-0.8,1.1-1.5,1.4-2.3c0.4-0.7,0.6-1.4,0.8-2.1c0.2-0.4,0.3-1.1,0.5-2.1h-2.1c-0.1,0-0.2-0.1-0.2-0.3v-0.5
		c0-0.2,0.1-0.3,0.2-0.3H148.4z M156,137.6c0,0.1-0.1,0.2-0.1,0.2c-0.1,0.1-0.2,0.3-0.2,0.5v7.1c0,0.7-0.1,1.4-0.2,2.2
		c-0.1,0.9-0.3,1.6-0.7,2.3c-0.3,0.7-0.7,1.3-1.3,1.9c-0.4,0.5-1,0.9-1.8,1.5c-0.1,0-0.1-0.1-0.2-0.1c-0.2-0.2-0.3-0.3-0.5-0.4
		c-0.1-0.1-0.1-0.1-0.1-0.2c0.9-0.6,1.5-1.1,1.8-1.5c0.4-0.4,0.7-0.9,0.9-1.5c0.2-0.5,0.5-1.2,0.6-2.1c0.1-0.4,0.1-0.8,0.1-1.2
		c-0.4,0.4-0.7,0.7-1,1c-0.3,0.3-0.6,0.6-1,0.9c-0.1,0.1-0.1,0.2-0.1,0.3s-0.1,0.2-0.1,0.2c-0.1,0-0.4-0.3-1-1
		c-0.1,0-0.1-0.1-0.1-0.2c0,0,0-0.1,0.1-0.1c0.3-0.2,0.7-0.4,1-0.7c0.5-0.4,1-0.8,1.4-1.3c0.3-0.3,0.6-0.7,0.9-0.9v-1.1
		c-0.5-0.6-0.9-1.2-1.4-1.7c-0.5-0.4-0.8-0.8-1.1-1c0-0.1,0.2-0.3,0.5-0.8c0.1-0.1,0.1-0.1,0.1-0.1c0.6,0.5,1.1,0.9,1.5,1.3
		c0.1,0.1,0.2,0.3,0.4,0.4v-4.2c0-0.1,0-0.2,0.1-0.2C155.5,137.4,156,137.5,156,137.6z M158.3,137.4c0.1,0,0.2,0.1,0.2,0.1
		c0,0.1-0.1,0.2-0.1,0.2c-0.1,0-0.2,0.1-0.2,0.2v3.9c0.2-0.1,0.4-0.3,0.6-0.4c0.5-0.4,1-0.9,1.5-1.5c0.1-0.1,0.1-0.1,0.2-0.1
		c0.7,0.6,1.1,0.9,1.1,1c0,0.1-0.1,0.1-0.2,0.1c-0.2,0-0.4,0-0.4,0.1c-0.9,1-1.8,1.8-2.7,2.4v1.3c0.8,0.5,1.4,1,1.9,1.4
		c0.6,0.6,1.2,1.1,1.6,1.6c0,0,0,0.1-0.1,0.2c-0.4,0.5-0.6,0.8-0.6,0.8c-0.7-0.8-1.4-1.5-2.2-2.1c-0.3-0.2-0.5-0.4-0.7-0.5v5.2
		c0,0.5,0.3,0.8,1,0.8h0.2c0.6,0,0.9-0.1,1-0.3c0.1-0.2,0.3-0.8,0.5-2c0.1,0.2,0.4,0.5,0.7,0.6c0.1,0.1,0.2,0.2,0.2,0.2
		c-0.3,1.3-0.5,2-0.6,2.2c-0.1,0.3-0.5,0.5-0.9,0.5H159c-1.4,0-2-0.4-2-1.2v-14.3c0-0.1,0-0.2,0.1-0.2L158.3,137.4z"/>
	<path class="st2" d="M178,138c0.2,0,0.3,0.1,0.3,0.2v14.8c0,0.1-0.1,0.2-0.3,0.2h-0.7c-0.2,0-0.3-0.1-0.3-0.2v-0.5h-11.6v0.5
		c0,0.1-0.1,0.2-0.3,0.2h-0.7c-0.2,0-0.3-0.1-0.3-0.2v-14.8c0-0.1,0.1-0.2,0.3-0.2H178z M177.1,151.4V139h-11.6v12.4H177.1z
		 M174.8,143.6c0.2,0,0.3,0.1,0.3,0.2v2.5c0,0.1-0.1,0.2-0.3,0.2h-2.3c0.3,0.5,0.6,0.8,0.9,1.1c0.1,0.1,0.1,0.2,0.2,0.2
		c0.3-0.3,0.7-0.6,0.9-0.9c0.1-0.1,0.1-0.1,0.2-0.1c0.1,0,0.1,0,0.2,0.1c0.5,0.4,0.8,0.6,0.8,0.6c0,0.1-0.1,0.2-0.2,0.2l-0.3-0.1
		c-0.1,0-0.1,0-0.2,0.1c-0.2,0.2-0.5,0.4-0.7,0.6c0.2,0.2,0.4,0.3,0.5,0.4c0.5,0.4,1,0.7,1.6,0.8c0,0.1,0,0.1-0.1,0.2
		c-0.3,0.2-0.5,0.4-0.6,0.6c0,0.1-0.1,0.1-0.2,0.1c-0.9-0.4-1.7-1-2.4-1.8c-0.4-0.4-1-1.1-1.6-2.1h0c-0.3,0.3-0.6,0.6-0.8,0.8v2.4
		c0.7-0.2,1.5-0.3,2.1-0.5c0,0,0,0,0.1,0c0.1,0,0.1,0.1,0.1,0.1c0,0.5,0,0.8-0.1,0.8c-1.2,0.3-2.4,0.5-3.6,0.8
		c-0.1,0.3-0.3,0.4-0.3,0.4c-0.1,0-0.3-0.4-0.5-1.2c0.3,0,0.7-0.1,1.1-0.2v-1.6c-0.2,0.2-0.4,0.3-0.5,0.4c-0.7,0.4-1.3,0.8-1.9,1
		c-0.1,0-0.1-0.1-0.2-0.2c-0.1-0.2-0.3-0.4-0.4-0.6c-0.1-0.1-0.1-0.1-0.1-0.2c0.6-0.2,1.3-0.5,2.2-1c0.5-0.3,1-0.7,1.5-1.3h-2.1
		c-0.2,0-0.3-0.1-0.3-0.2v-2.5c0-0.1,0.1-0.2,0.3-0.2H174.8z M170.7,140.3v-0.8c0-0.1,0.1-0.1,0.2-0.1c0.8,0,1.2,0.1,1.2,0.2
		c0,0.1-0.1,0.2-0.1,0.2c-0.1,0-0.1,0.1-0.1,0.3v0.2h3.1c0.1,0,0.1,0.1,0.1,0.2v0.4c0,0.2-0.1,0.3-0.1,0.3h-3.1v0.9h4
		c0.1,0,0.1,0.1,0.1,0.2v0.4c0,0.2-0.1,0.3-0.1,0.3h-9.2c-0.1,0-0.1-0.1-0.1-0.3v-0.4c0-0.1,0-0.2,0.1-0.2h4v-0.9h-2.9
		c-0.1,0-0.1-0.1-0.1-0.3v-0.4c0-0.1,0-0.2,0.1-0.2H170.7z M174,144.5h-5.1v1.2h5.1V144.5z"/>
	<path class="st2" d="M183,151.2h13.2c0.1,0,0.2,0.1,0.2,0.3v0.5c0,0.2-0.1,0.3-0.2,0.3H183v0.6c0,0.1-0.1,0.2-0.3,0.2h-0.7
		c-0.2,0-0.3-0.1-0.3-0.2v-14.8c0-0.2,0.1-0.3,0.3-0.3h13.7c0.1,0,0.2,0.1,0.2,0.3v0.6c0,0.2-0.1,0.3-0.2,0.3H183V151.2z M189,145.2
		c0.2,0,0.3,0.1,0.3,0.2v4.4c0,0.1-0.1,0.2-0.3,0.2h-0.7c-0.1,0-0.2-0.1-0.2-0.2v-0.5h-2.9v0.5c0,0.1-0.1,0.2-0.3,0.2h-0.7
		c-0.1,0-0.2-0.1-0.2-0.2v-4.5c0-0.1,0.1-0.2,0.2-0.2H189z M188.1,148.4v-2.1h-2.9v2.1H188.1z M193.1,140.1c0.2,0,0.3,0.1,0.3,0.2
		v3.6c0,0.1-0.1,0.2-0.3,0.2h-6.8c-0.2,0-0.3-0.1-0.3-0.2v-3.6c0-0.1,0.1-0.2,0.3-0.2H193.1z M192.1,141.2h-4.8v1.9h4.8V141.2z
		 M195.3,145.2c0.2,0,0.3,0.1,0.3,0.2v4.4c0,0.1-0.1,0.2-0.3,0.2h-0.7c-0.1,0-0.2-0.1-0.2-0.2v-0.5h-2.9v0.5c0,0.1-0.1,0.2-0.3,0.2
		h-0.7c-0.1,0-0.2-0.1-0.2-0.2v-4.5c0-0.1,0.1-0.2,0.2-0.2H195.3z M194.4,148.4v-2.1h-2.9v2.1H194.4z"/>
	<path class="st2" d="M201.2,143.6h4.5c0.1,0,0.2,0.1,0.2,0.3c0,1.9-0.1,3.3-0.2,4.1c-0.1,1-0.3,1.8-0.5,2.2
		c-0.2,0.5-0.8,0.8-1.7,0.8c-0.7,0-1-0.1-1.1-0.4c-0.1-0.3-0.2-0.7-0.4-1.1v-0.1c0.5,0.2,1,0.3,1.5,0.3c0.4,0,0.7-0.2,0.8-0.5
		c0.1-0.3,0.2-0.8,0.3-1.6c0.1-0.6,0.2-1.5,0.2-2.8h-3.6c0,1.8-0.1,3.2-0.3,4.2c-0.1,0.9-0.4,1.8-0.8,2.6c-0.2,0.5-0.5,1-0.9,1.5
		c-0.1,0-0.1,0-0.2,0c-0.2-0.2-0.4-0.4-0.6-0.5c-0.1-0.1-0.1-0.2-0.1-0.2c0.3-0.5,0.6-1,0.9-1.8c0.3-0.8,0.5-1.6,0.6-2.5
		c0.1-0.9,0.2-2,0.2-3.3v-4.2c0-0.2,0.1-0.3,0.3-0.3h7c-0.1-0.8-0.1-1.7-0.1-2.7c0-0.1,0-0.2,0.1-0.2l1.1,0.1c0.2,0,0.3,0.1,0.3,0.2
		c0,0.1-0.1,0.2-0.1,0.3s-0.1,0.2-0.1,0.4c0,0.7,0,1.3,0,1.9h5.4c0.1,0,0.2,0.1,0.2,0.3v0.5c0,0.2-0.1,0.3-0.2,0.3h-5.4
		c0,0.6,0.1,1.2,0.1,1.7c0.1,1.3,0.3,2.5,0.6,3.5c0.1,0.6,0.3,1.1,0.4,1.6c0.4-0.6,0.8-1.3,1.1-2c0.4-0.8,0.7-1.7,0.9-2.7
		c0-0.1,0.1-0.2,0.3-0.2c1,0.3,1.5,0.6,1.5,0.7s-0.1,0.2-0.2,0.2c-0.2,0-0.4,0.1-0.5,0.3c-0.4,1.2-0.9,2.4-1.5,3.4
		c-0.3,0.6-0.7,1.1-1.1,1.6c0.3,0.7,0.6,1.3,1.1,1.8c0.3,0.2,0.5,0.3,0.7,0.3c0.1,0,0.3-0.2,0.6-0.6c0.3-0.4,0.5-1.1,0.8-2
		c0.1,0,0.1,0.1,0.2,0.2c0.1,0.2,0.3,0.4,0.5,0.6c0.1,0.1,0.2,0.2,0.2,0.4c-0.4,0.9-0.7,1.6-1,2.1c-0.4,0.7-0.8,1.1-1.2,1.1
		c-0.2,0-0.4-0.1-0.5-0.1c-0.3-0.2-0.7-0.4-1-0.8c-0.4-0.5-0.8-1-1.2-1.8c-0.9,0.9-1.9,1.7-3.2,2.5c-0.1,0-0.2,0.1-0.4,0.1
		c-0.1,0-0.2-0.1-0.3-0.2c-0.1-0.2-0.3-0.4-0.4-0.5c-0.1-0.1-0.2-0.1-0.2-0.2c0-0.1,0.1-0.1,0.2-0.1c0.5-0.2,0.9-0.4,1.4-0.8
		c0.8-0.5,1.5-1.1,2.2-1.8c0,0,0.1-0.1,0.1-0.1c-0.2-0.6-0.5-1.3-0.7-2.1c-0.3-1.2-0.5-2.5-0.6-3.8c-0.1-0.6-0.1-1.3-0.2-2.1h-6.1
		V143.6z M211.9,138c0.5,0.3,0.9,0.6,1.3,0.9c0,0,0,0.1-0.1,0.1c-0.4,0.5-0.5,0.8-0.5,0.8c-0.6-0.4-1.2-0.8-1.8-1.1
		c-0.5-0.3-0.9-0.5-1.3-0.6c0-0.1,0.2-0.3,0.5-0.8c0.1-0.1,0.1-0.1,0.1-0.1C210.8,137.5,211.4,137.8,211.9,138z"/>
	<path class="st2" d="M222.3,139.3c0.1,0,0.2,0.1,0.2,0.3v0.6c0,0.2-0.1,0.3-0.2,0.3h-2.4v7.6c0.8-0.2,1.6-0.5,2.3-0.7
		c0,0,0.1,0,0.1,0c0.1,0,0.1,0.1,0.1,0.2c0,0.6,0,1-0.1,1c-1.9,0.6-3.8,1.1-5.7,1.6c-0.2,0.3-0.3,0.5-0.5,0.5
		c-0.1,0-0.3-0.5-0.7-1.5c0.9-0.1,1.9-0.4,3.1-0.7v-7.9h-2.5c-0.1,0-0.2-0.1-0.2-0.3v-0.6c0-0.2,0.1-0.3,0.2-0.3H222.3z
		 M225.9,140.8c0-0.6,0-1.3,0-2.1c0-0.3,0-0.7-0.1-1.4c0-0.1,0.1-0.1,0.3-0.1l1.3,0.1c0.2,0.1,0.2,0.1,0.2,0.2
		c0,0.1-0.1,0.2-0.2,0.3c-0.2,0.1-0.3,0.2-0.3,0.4c0,0.9,0,1.8,0,2.6h4.1c0.1,0,0.2,0.1,0.2,0.3c0,3.2-0.1,5.5-0.2,6.9
		c-0.1,1.7-0.4,2.9-0.6,3.7c-0.2,0.9-0.9,1.3-2,1.3c-0.9,0-1.3-0.1-1.3-0.3c-0.1-0.3-0.2-0.6-0.5-0.9v-0.1c0.7,0.1,1.3,0.1,1.9,0.1
		c0.5,0,0.9-0.3,1-0.9c0.2-0.5,0.3-1.5,0.5-3c0.1-1.2,0.2-3.2,0.3-6h-3.2c-0.1,1.7-0.2,3-0.4,4c-0.3,1.8-0.9,3.3-1.7,4.6
		c-0.6,0.9-1.2,1.8-2,2.6h-0.3c-0.4-0.1-0.8-0.3-1.2-0.4c-0.1-0.1-0.1-0.1-0.1-0.2c1-0.8,1.8-1.6,2.3-2.6c0.6-0.9,1.1-2.1,1.4-3.5
		c0.3-1,0.4-2.5,0.5-4.4H223c-0.1,0-0.2-0.1-0.2-0.3V141c0-0.2,0.1-0.3,0.2-0.3H225.9z"/>
	<path class="st2" d="M239.1,138.1c0.2,0,0.3,0.1,0.3,0.2v4.9c0,0.1-0.1,0.2-0.3,0.2h-1.5v2.9h2c0.1,0,0.2,0.1,0.2,0.3v0.5
		c0,0.2-0.1,0.3-0.2,0.3h-2v3.2c0.8-0.2,1.6-0.4,2.3-0.6c0,0,0.1,0,0.1,0c0.1,0,0.1,0.1,0.1,0.2c0,0.6,0,1-0.1,1
		c-1.9,0.5-3.8,0.9-5.7,1.3c-0.2,0.3-0.4,0.5-0.5,0.5c-0.1,0-0.4-0.5-0.7-1.5c0.3,0,0.6-0.1,0.9-0.1v-6c0-0.1,0.1-0.1,0.2-0.1
		c0.8,0,1.2,0.1,1.2,0.2c0,0.1-0.1,0.2-0.1,0.2c-0.1,0-0.1,0.1-0.1,0.3v5.2c0.4-0.1,0.8-0.1,1.2-0.2v-7.5h-2c-0.2,0-0.3-0.1-0.3-0.2
		v-4.9c0-0.1,0.1-0.2,0.3-0.2H239.1z M238.2,139.2h-2.9v3.1h2.9V139.2z M243.9,137.6c0.1,0.1,0.2,0.2,0.2,0.2c0,0.1-0.1,0.2-0.1,0.2
		c-0.1,0-0.2,0.1-0.2,0.2c-0.1,0.2-0.1,0.4-0.2,0.5h4.1c0.1,0,0.2,0.1,0.3,0.1c0.2,0.3,0.4,0.5,0.4,0.6c-0.3,1-0.6,1.8-0.9,2.3
		c-0.4,0.7-0.7,1.3-1.1,1.7c-0.1,0.1-0.2,0.3-0.3,0.4c0.3,0.3,0.8,0.6,1.3,0.8c0.5,0.3,1.2,0.6,2.1,0.8c0.1,0,0.1,0.1,0.1,0.1
		c0,0.1,0,0.2-0.1,0.2c-0.2,0.2-0.5,0.4-0.7,0.7c-0.1,0.1-0.2,0.2-0.2,0.2c0,0-0.1,0-0.3-0.1c-0.4-0.1-0.9-0.3-1.3-0.6
		c-0.6-0.3-1.1-0.6-1.6-1c-0.1-0.1-0.2-0.2-0.3-0.3c-0.1,0.1-0.1,0.1-0.1,0.1c-0.6,0.5-1.3,0.9-2.1,1.2c-0.5,0.2-1.2,0.5-2,0.7
		c-0.2,0-0.3-0.1-0.4-0.2c-0.1-0.2-0.3-0.4-0.4-0.6c-0.1-0.1-0.1-0.1-0.1-0.2s0-0.1,0.1-0.1c0.5-0.1,1-0.2,1.5-0.4
		c0.9-0.3,1.6-0.7,2.2-1.1c0.1-0.1,0.2-0.2,0.3-0.3c-0.1-0.1-0.1-0.1-0.1-0.1c-0.4-0.5-0.7-1-0.9-1.6c-0.2-0.3-0.3-0.6-0.4-1.1
		c-0.2,0.4-0.3,0.7-0.5,1c-0.3,0.4-0.6,0.8-0.9,1.2c-0.1,0-0.3,0-0.4-0.1c-0.2-0.1-0.5-0.2-0.7-0.2c-0.1,0-0.1-0.1-0.1-0.1
		c0-0.1,0-0.1,0.1-0.1c0.5-0.5,0.9-1.2,1.3-1.9c0.2-0.4,0.4-0.9,0.6-1.4c0.2-0.5,0.4-1.2,0.5-2c0-0.1,0.1-0.1,0.1-0.1L243.9,137.6z
		 M247.9,146.9c0.2,0,0.3,0.1,0.3,0.2v5.7c0,0.1-0.1,0.2-0.3,0.2h-0.7c-0.2,0-0.3-0.1-0.3-0.2V152h-4.2v0.8c0,0.1-0.1,0.2-0.3,0.2
		h-0.7c-0.2,0-0.3-0.1-0.3-0.2v-5.6c0-0.2,0.1-0.3,0.3-0.3H247.9z M246.9,151v-3h-4.2v3H246.9z M243.9,141c0.2,0.6,0.5,1.1,0.9,1.6
		c0.1,0.1,0.2,0.2,0.3,0.3c0.1-0.1,0.2-0.2,0.3-0.3c0.4-0.5,0.7-1,1-1.7c0.1-0.3,0.3-0.6,0.4-1.1h-3.2
		C243.7,140.3,243.8,140.7,243.9,141z"/>
	<path class="st2" d="M266.4,150.6c0.1,0,0.2,0.1,0.2,0.3v0.7c0,0.2-0.1,0.3-0.2,0.3H251c-0.1,0-0.2-0.1-0.2-0.3v-0.7
		c0-0.2,0.1-0.3,0.2-0.3H266.4z M265,138.4c0.1,0,0.2,0.1,0.2,0.3v0.7c0,0.2-0.1,0.4-0.2,0.4h-12.6c-0.1,0-0.2-0.1-0.2-0.4v-0.7
		c0-0.2,0.1-0.3,0.2-0.3H265z M264.2,144.2c0.1,0,0.2,0.1,0.2,0.3v0.7c0,0.2-0.1,0.3-0.2,0.3h-10.9c-0.1,0-0.2-0.1-0.2-0.3v-0.7
		c0-0.2,0.1-0.3,0.2-0.3H264.2z"/>
	<path class="st2" d="M275,138.4c-0.4,0.2-0.8,0.4-1.2,0.6c-0.5,0.2-1.1,0.4-1.7,0.5c-0.4,0.1-0.9,0.2-1.4,0.3v1.8h4
		c0.1,0,0.2,0.1,0.2,0.3v0.5c0,0.2-0.1,0.3-0.2,0.3h-4v2.5h4c0.1,0,0.2,0.1,0.2,0.3v0.5c0,0.2-0.1,0.3-0.2,0.3h-4v3
		c0.3,0,0.5-0.1,0.8-0.2c1.4-0.2,2.6-0.5,3.9-0.8c0,0,0.1,0,0.1,0c0.1,0,0.1,0.1,0.1,0.1c0,0.6,0,0.9-0.1,1
		c-1.6,0.3-3.2,0.6-4.8,0.9v2.7c0,0.1-0.1,0.2-0.3,0.2h-0.7c-0.2,0-0.3-0.1-0.3-0.2v-2.5c-0.1,0-0.2,0.1-0.3,0.1
		c-0.2,0.3-0.3,0.5-0.4,0.5c-0.1,0-0.3-0.5-0.7-1.4c0.4-0.1,0.9-0.1,1.4-0.2v-10.9c0-0.1,0.1-0.2,0.2-0.2l1,0.4
		c0.5-0.1,0.9-0.2,1.3-0.3c0.6-0.1,1.1-0.4,1.6-0.6c0.3-0.2,0.7-0.4,1-0.6h0.1c0.1,0,0.1,0.1,0.2,0.1c0.5,0.6,0.8,1,0.8,1
		c0,0.1-0.1,0.1-0.1,0.1L275,138.4C275.1,138.4,275,138.4,275,138.4z M282.8,144.9c0.1,0,0.2,0,0.2,0.1c0.2,0.3,0.3,0.5,0.3,0.6
		c-0.4,1.1-0.7,1.9-0.9,2.5c-0.4,0.7-0.7,1.3-1.1,1.8c-0.2,0.2-0.3,0.4-0.5,0.5c0.3,0.3,0.8,0.6,1.3,0.8c0.6,0.3,1.3,0.6,2.2,0.8
		c0.1,0,0.1,0.1,0.1,0.1c0,0.1,0,0.1-0.1,0.2c-0.2,0.2-0.4,0.4-0.6,0.6c-0.1,0.1-0.1,0.2-0.2,0.2c0,0-0.1-0.1-0.3-0.1
		c-0.4-0.2-0.9-0.4-1.4-0.6c-0.6-0.3-1.2-0.7-1.7-1.1c-0.1-0.1-0.2-0.1-0.2-0.2c-0.1,0.1-0.1,0.1-0.1,0.1c-0.6,0.5-1.3,0.9-2.1,1.3
		c-0.5,0.2-1.2,0.5-2,0.7c-0.1,0-0.2-0.1-0.3-0.1c-0.1-0.2-0.2-0.4-0.3-0.5c-0.1-0.1-0.1-0.1-0.1-0.1c0-0.1,0-0.1,0.1-0.1
		c0.5-0.1,1-0.3,1.5-0.5c0.9-0.3,1.7-0.7,2.3-1.2c0.1-0.1,0.1-0.1,0.2-0.2c-0.2-0.2-0.3-0.3-0.4-0.5c-0.5-0.5-0.8-1.1-1-1.7
		c-0.3-0.6-0.6-1.4-0.8-2.3h-0.8c-0.1,0-0.1-0.1-0.1-0.3v-0.5c0-0.2,0-0.3,0.1-0.3H282.8z M281.4,137.8c0.2,0,0.3,0.1,0.3,0.3v4.1
		c0,0.1,0,0.2,0.1,0.3c0.1,0.1,0.3,0.1,0.5,0.1h0.1c0.3,0,0.4-0.1,0.5-0.2c0.1-0.1,0.2-0.4,0.3-0.9c0,0,0.1-0.1,0.2-0.1
		c0,0,0.1,0,0.2,0.1c0.1,0.1,0.3,0.1,0.6,0.2c0.2,0,0.2,0.1,0.2,0.3c-0.2,0.6-0.4,1.1-0.6,1.5c-0.2,0.2-0.5,0.4-1,0.4h-1.2
		c-0.5,0-0.8-0.1-1-0.2c-0.1-0.1-0.2-0.3-0.2-0.5v-4.1h-2.4v0.8c0,0.7-0.1,1.4-0.2,2c-0.1,0.5-0.4,1-0.7,1.4
		c-0.2,0.3-0.5,0.5-0.9,0.8c-0.1,0-0.2,0-0.3-0.1c-0.2-0.2-0.3-0.4-0.5-0.6c-0.1-0.1-0.1-0.1-0.1-0.2c0.7-0.5,1.1-1.1,1.3-1.8
		c0.1-0.5,0.2-1,0.2-1.7v-1.6c0-0.2,0.1-0.3,0.2-0.3H281.4z M278.6,147.3c0.2,0.6,0.5,1.2,0.9,1.7c0.2,0.3,0.3,0.5,0.5,0.7
		c0.2-0.2,0.4-0.4,0.5-0.6c0.4-0.5,0.7-1.1,1-1.8c0.2-0.3,0.3-0.8,0.5-1.3h-3.8C278.3,146.5,278.4,146.9,278.6,147.3z"/>
	<path class="st2" d="M290.8,151.2v-10.5c-0.6,0.5-1.4,0.9-2.6,1.3V140c1.2-0.5,2.3-1.2,3.1-2h1.5v13.3H290.8z"/>
	<path class="st2" d="M305.8,150.5c-0.9,0.7-2,1-3.3,1c-1.3,0-2.4-0.3-3.3-1c-0.9-0.8-1.4-1.8-1.4-3.1s0.6-2.3,1.8-3
		c-1.1-0.7-1.6-1.7-1.6-2.8s0.4-2.1,1.4-2.9c0.8-0.7,1.9-1,3.1-1c1.2,0,2.2,0.3,3.1,1c0.9,0.7,1.4,1.7,1.4,2.9s-0.6,2.1-1.6,2.8
		c1.2,0.7,1.8,1.8,1.8,3C307.2,148.7,306.7,149.7,305.8,150.5z M302.5,145.2c-1.8,0-2.7,0.7-2.7,2.2c0,0.7,0.2,1.3,0.7,1.7
		s1.1,0.6,1.9,0.6c0.8,0,1.4-0.2,1.9-0.6c0.5-0.4,0.8-1,0.8-1.7C305.2,146,304.3,145.2,302.5,145.2z M304.2,140
		c-0.4-0.3-1-0.5-1.8-0.5c-0.7,0-1.3,0.2-1.8,0.5c-0.5,0.4-0.7,0.9-0.7,1.5c0,1.3,0.8,1.9,2.5,1.9c1.7,0,2.5-0.6,2.5-1.9
		C305,140.9,304.7,140.3,304.2,140z"/>
	<path class="st2" d="M315.1,143.9c0.1,0,0.1,0.1,0.1,0.2v0.5c0,0.2-0.1,0.3-0.1,0.3h-3c-0.2,0.6-0.4,1.1-0.7,1.6h2.9
		c0.1,0,0.2,0.1,0.2,0.2c0,1.7-0.1,2.9-0.2,3.6c-0.1,0.9-0.3,1.5-0.6,2c-0.2,0.5-0.9,0.7-2,0.7c-0.8,0-1.2-0.1-1.2-0.3
		c-0.1-0.3-0.2-0.6-0.5-0.9v-0.1c0.6,0.1,1.1,0.2,1.6,0.2c0.6,0,0.9-0.2,1.1-0.4c0.2-0.2,0.3-0.7,0.5-1.4c0.1-0.5,0.2-1.3,0.2-2.4
		h-2.5c-0.1,0.3-0.3,0.6-0.4,0.9c0,0.1-0.1,0.1-0.1,0.1c-0.8-0.2-1.2-0.3-1.2-0.3c0.5-0.7,0.8-1.3,1-1.8c0.2-0.4,0.4-0.9,0.6-1.5
		h-1.6c-0.1,0-0.1-0.1-0.1-0.3v-0.5c0-0.1,0-0.2,0.1-0.2H315.1z M314.4,138c0.2,0,0.3,0.1,0.3,0.2v4.2c0,0.1-0.1,0.2-0.3,0.2h-4.2
		c-0.2,0-0.3-0.1-0.3-0.2v-4.2c0-0.1,0.1-0.2,0.3-0.2H314.4z M313.5,139.1h-2.4v2.6h2.4V139.1z M320.4,137.4c0,0.2-0.1,0.2-0.2,0.3
		c-0.1,0-0.2,0.1-0.2,0.3v0.4h4.3c0.1,0,0.1,0.1,0.1,0.2v0.5c0,0.2-0.1,0.3-0.1,0.3h-4.3v1.2h4.6c0.2,0,0.3,0.1,0.3,0.2v2.5
		c0,0.1-0.1,0.2-0.3,0.2H324c-0.1,0-0.2-0.1-0.2-0.2v-1.7H317v2.4l1.9-0.3v-1.4c0-0.1,0.1-0.2,0.2-0.2c0.8,0.1,1.2,0.2,1.2,0.3
		c0,0.1-0.1,0.2-0.2,0.3v0.9l2.9-0.5c0.1,0,0.1,0.1,0.1,0.2v0.5c0,0.2-0.1,0.3-0.1,0.3l-2.9,0.5v0.8c0,0.1,0,0.2,0.1,0.2h3.1
		c0.2,0,0.5-0.4,0.7-1.2l1,0.6c-0.4,1.1-0.9,1.6-1.4,1.6h-3.8c-0.6,0-0.9-0.2-0.9-0.8v-1.1l-1.9,0.3c0,1.6-0.1,2.9-0.3,3.9
		c-0.1,0.8-0.3,1.6-0.7,2.4c-0.2,0.5-0.4,0.9-0.7,1.4c-0.1,0-0.1,0-0.2,0c-0.2-0.2-0.4-0.3-0.6-0.4c-0.1-0.1-0.1-0.1-0.1-0.2
		c0.3-0.4,0.5-1,0.8-1.7c0.2-0.7,0.4-1.5,0.5-2.3c0.1-0.8,0.2-1.9,0.2-3.1v-4.2c0-0.1,0.1-0.2,0.2-0.2h2.8v-3.3
		c0-0.1,0.1-0.2,0.3-0.2C320,137.2,320.4,137.3,320.4,137.4z M320.1,147.7c0,0.1-0.1,0.2-0.1,0.2c-0.1,0.1-0.2,0.3-0.2,0.5v0.5
		c0,0.4-0.1,0.7-0.1,1.1c-0.1,0.5-0.2,0.8-0.5,1.2c-0.2,0.3-0.5,0.7-0.9,0.9c-0.3,0.2-0.7,0.5-1.3,0.8c-0.1,0-0.1-0.1-0.2-0.1
		c-0.2-0.2-0.3-0.3-0.5-0.5c-0.1-0.1-0.1-0.1-0.1-0.2c0.6-0.3,1-0.5,1.2-0.7c0.2-0.2,0.5-0.4,0.6-0.6c0.2-0.2,0.3-0.6,0.4-1
		c0.1-0.3,0.1-0.6,0.1-1v-1.2c0-0.1,0-0.2,0.1-0.2C319.6,147.6,320.1,147.7,320.1,147.7z M322.5,147.7c0,0.1-0.1,0.2-0.2,0.3v3.5
		c0,0.1,0,0.2,0.1,0.2h1.1c0.3,0,0.5-0.5,0.8-1.6l1,0.6c-0.4,1.4-1,2-1.6,2h-1.8c-0.6,0-0.9-0.3-0.9-0.8v-4.4c0-0.1,0.1-0.2,0.2-0.2
		C322.1,147.5,322.5,147.6,322.5,147.7z"/>
	<path class="st2" d="M70.7,164.6c0,0.2-0.1,0.3-0.2,0.3c-0.1,0-0.2,0.2-0.2,0.4v1.4H73c0,0-0.1,0-0.1-0.1c-0.2-0.1-0.4-0.2-0.6-0.3
		c-0.1,0-0.1-0.1-0.1-0.1c0,0,0,0,0.1-0.1c0.4-0.2,0.6-0.5,0.8-0.7c0.3-0.2,0.5-0.5,0.6-0.8c0-0.1,0.1-0.1,0.2-0.1l0.9,0.4
		c0.1,0.1,0.2,0.2,0.2,0.2c0,0.1-0.1,0.1-0.2,0.1c-0.1,0-0.2,0-0.3,0.1c-0.4,0.5-0.8,0.9-1.2,1.2c0,0-0.1,0-0.1,0H77
		c0.2,0,0.3,0.1,0.3,0.2v3.3c0,0.1-0.1,0.2-0.3,0.2h-0.7c-0.2,0-0.3-0.1-0.3-0.2v-2.5H63.3v2.5c0,0.1-0.1,0.2-0.3,0.2h-0.7
		c-0.2,0-0.3-0.1-0.3-0.2v-3.3c0-0.1,0.1-0.2,0.3-0.2h4c0,0-0.1,0-0.1-0.1c-0.4-0.4-0.8-0.7-1.3-1.1c-0.1-0.1-0.1-0.1-0.1-0.2
		c0,0,0.2-0.2,0.6-0.5c0.1-0.1,0.2-0.1,0.3-0.1c0,0,0.1,0,0.1,0.1c0.5,0.5,1,0.9,1.4,1.3c0,0.1-0.1,0.2-0.1,0.2
		c-0.2,0.2-0.4,0.3-0.5,0.4h2.4v-2.1c0-0.1,0.1-0.2,0.3-0.2C70.2,164.4,70.7,164.5,70.7,164.6z M74.9,172.1c0.2,0,0.3,0.1,0.3,0.2v6
		c0,0.1-0.1,0.2-0.3,0.2h-2.4c0.6,0.3,1.1,0.5,1.6,0.6c0.5,0.2,1.3,0.3,2.3,0.5c0.1,0,0.2,0.1,0.2,0.1c0,0.1-0.3,0.4-0.8,0.9
		c-0.1,0-0.1,0-0.2,0c-1.9-0.5-3.2-1-4.1-1.5c-0.1-0.1-0.1-0.1-0.1-0.1c0-0.1,0.2-0.3,0.5-0.6h-4.5l0.9,0.6c0.1,0.1,0.1,0.2,0.1,0.2
		c0,0-0.1,0-0.2,0c-0.2,0-0.4,0-0.5,0.1c-0.5,0.2-1,0.4-1.6,0.6c-0.7,0.2-1.5,0.4-2.5,0.6c-0.1,0-0.2-0.1-0.3-0.1
		c-0.2-0.2-0.5-0.3-0.6-0.5c-0.1,0-0.1-0.1-0.1-0.1s0-0.1,0.1-0.1c0.5-0.1,0.9-0.2,1.2-0.2c0.7-0.2,1.3-0.3,1.8-0.5
		c0.4-0.2,0.9-0.4,1.4-0.6h-2.4c-0.2,0-0.3-0.1-0.3-0.2v-6c0-0.1,0.1-0.2,0.3-0.2H74.9z M74.1,168.5c0.2,0,0.3,0.1,0.3,0.2v2.3
		c0,0.1-0.1,0.2-0.3,0.2h-8.7c-0.2,0-0.3-0.1-0.3-0.2v-2.3c0-0.1,0.1-0.2,0.3-0.2H74.1z M73.9,173.9v-1h-8.3v1H73.9z M73.9,175.8
		v-0.9h-8.3v0.9H73.9z M73.9,176.7h-8.3v0.9h8.3V176.7z M73.1,169.4h-6.8v1h6.8V169.4z"/>
	<path class="st2" d="M82.1,170c0,2.2-0.1,3.9-0.3,5.2c-0.1,1-0.4,2.1-0.8,3.2c-0.2,0.6-0.5,1.2-0.9,1.8c-0.1,0-0.1,0-0.2,0
		c-0.2-0.2-0.4-0.3-0.6-0.5c-0.1-0.1-0.1-0.1-0.1-0.2c0.4-0.5,0.7-1.3,0.9-2.2c0.3-1,0.5-2,0.6-3.1c0.1-1.1,0.2-2.5,0.2-4.1v-4.6
		c0-0.1,0.1-0.2,0.3-0.2h12.4c0.2,0,0.3,0.1,0.3,0.2v3.3c0,0.2-0.1,0.3-0.3,0.3H82.1V170z M94.1,170.3c0.1,0,0.1,0.1,0.1,0.2v0.6
		c0,0.2-0.1,0.3-0.1,0.3h-6.7c-0.6,1.1-1.1,1.9-1.4,2.4c1.8-0.1,3.7-0.3,5.7-0.5c-0.3-0.4-0.6-0.8-0.8-1.2c0-0.1,0.2-0.3,0.8-0.5
		c0.1,0,0.2,0,0.2,0.1c0.8,1,1.6,2.1,2.3,3.3c0,0.2-0.1,0.3-0.1,0.3c-0.4,0.3-0.7,0.4-1,0.4c-0.3-0.5-0.5-0.9-0.8-1.4
		c-1.2,0.1-2.3,0.3-3.3,0.4v1.8h4.3c0.1,0,0.1,0.1,0.1,0.2v0.5c0,0.2-0.1,0.3-0.1,0.3H89v1.8h5.7c0.1,0,0.1,0.1,0.1,0.2v0.6
		c0,0.2-0.1,0.3-0.1,0.3H82c-0.1,0-0.1-0.1-0.1-0.3v-0.6c0-0.1,0-0.2,0.1-0.2h5.7v-1.8h-4.3c-0.1,0-0.1-0.1-0.1-0.3v-0.5
		c0-0.1,0-0.2,0.1-0.2h4.3v-1.7c-1.3,0.1-2.5,0.2-3.6,0.3c-0.1,0-0.2,0.1-0.3,0.2c0,0.3-0.1,0.4-0.3,0.4c-0.1,0-0.4-0.6-0.8-1.7
		c0.3,0,0.8,0,1.6-0.1c0.1,0,0.1,0,0.2,0c0.1-0.1,0.1-0.2,0.2-0.2c0.5-0.8,0.9-1.6,1.3-2.2h-3c-0.1,0-0.1-0.1-0.1-0.3v-0.6
		c0-0.1,0-0.2,0.1-0.2H94.1z M82.1,167.9h10.5v-1.8H82.1V167.9z"/>
	<path class="st2" d="M103.9,165.5v-0.8c0-0.1,0.1-0.2,0.3-0.2c0.9,0,1.3,0.1,1.3,0.2c0,0.2-0.1,0.2-0.2,0.3c-0.1,0-0.2,0.1-0.2,0.4
		v0.1h6.9c0.1,0,0.1,0.1,0.1,0.2v0.5c0,0.2-0.1,0.3-0.1,0.3h-6.9v1.1h4.5c0.2,0,0.3,0.1,0.3,0.2v4.9c0,0.1-0.1,0.2-0.3,0.2h-4.5v1.1
		c1,0,2.2-0.1,3.5-0.1c0.5,0,1,0,1.4-0.1c-0.1-0.1-0.2-0.3-0.3-0.5c0-0.1,0.3-0.3,1-0.6c0.3,0.5,0.6,1,0.8,1.5
		c0.2,0.4,0.4,0.8,0.5,1.3c0,0.1-0.4,0.2-1.2,0.4c-0.1-0.3-0.2-0.6-0.3-1.1c0,0,0,0,0,0c-0.6,0-1.3,0.1-1.9,0.1v1.3h3.7
		c0.1,0,0.1,0.1,0.1,0.2v0.6c0,0.2-0.1,0.3-0.1,0.3h-3.7v2c0,0.9-0.7,1.3-2.1,1.3h-0.6c-0.1,0-0.1-0.1-0.1-0.3
		c0-0.3-0.1-0.6-0.3-0.9v-0.1c0.3,0.1,0.6,0.1,1,0.1c0.6,0,1-0.2,1-0.6v-1.5H97c-0.1,0-0.1-0.1-0.1-0.3v-0.6c0-0.1,0-0.2,0.1-0.2
		h10.4V175c-2.8,0.2-5.8,0.3-8.8,0.5c-0.1,0.3-0.2,0.5-0.3,0.5c-0.1,0-0.1,0-0.2-0.1l-0.4-1.5c0.9,0,2.9-0.1,6.2-0.2V173h-4.4
		c-0.2,0-0.3-0.1-0.3-0.2v-4.9c0-0.1,0.1-0.2,0.3-0.2h4.4v-1.1h-6.6c-0.1,0-0.1-0.1-0.1-0.3v-0.5c0-0.1,0-0.2,0.1-0.2H103.9z
		 M101,177.5c0.7,0.4,1.4,0.9,2.1,1.4c0.1,0.1,0.1,0.1,0.1,0.2c0,0.1,0,0.1-0.1,0.2l-0.4,0.5c-0.1,0.1-0.2,0.1-0.3,0.1
		c-0.1,0-0.1-0.1-0.2-0.1c-0.7-0.5-1.3-0.9-1.9-1.2c-0.1,0-0.2-0.1-0.2-0.2c0-0.1,0-0.1,0.1-0.2l0.4-0.7c0.1,0,0.1-0.1,0.2-0.1
		C100.9,177.4,101,177.4,101,177.5z M103.9,169.7v-1.1h-3.4v1.1H103.9z M103.9,170.8h-3.4v1.2h3.4V170.8z M105.1,169.7h3.6v-1.1
		h-3.6V169.7z M108.7,170.8h-3.6v1.2h3.6V170.8z"/>
	<path class="st2" d="M116,175.1c0,0.1-0.1,0.2-0.1,0.2c-0.1,0.1-0.2,0.2-0.2,0.3c-0.1,1-0.2,1.9-0.4,2.5c-0.1,0.4-0.2,0.8-0.3,1.1
		c-0.1,0.1-0.1,0.1-0.1,0.1c-0.4-0.1-0.7-0.2-0.9-0.2c-0.1,0-0.1-0.1-0.1-0.2c0.2-0.5,0.3-1,0.5-1.6c0.1-0.6,0.2-1.4,0.3-2.5
		c0-0.1,0.1-0.2,0.2-0.2C115.6,174.9,116,175,116,175.1z M118.6,165.2c0,0.1,0.1,0.2,0.1,0.2c0,0.1-0.1,0.2-0.3,0.2
		c-0.2,0-0.4,0.1-0.5,0.2c-0.6,0.9-1.2,1.8-1.8,2.5c0.4,0.3,0.7,0.7,1.1,1.1c0,0,0,0,0,0c0.7-0.9,1.2-1.7,1.7-2.4
		c0.8,0.7,1.2,1,1.2,1.1c0,0.1-0.1,0.1-0.2,0.1c-0.3,0-0.5,0.1-0.5,0.1c-1,1.4-2,2.7-3,3.8c0.8-0.1,1.7-0.2,2.8-0.3
		c-0.2-0.4-0.3-0.8-0.5-1.2c0-0.1,0.3-0.2,0.9-0.5c0.3,0.6,0.5,1.2,0.7,1.8c0.2,0.5,0.3,1,0.5,1.6c0,0.1-0.4,0.2-1,0.3
		c-0.1-0.3-0.2-0.7-0.3-1.2l-1.6,0.4v7.3c0,0.1-0.1,0.2-0.3,0.2h-0.7c-0.2,0-0.3-0.1-0.3-0.2v-7l-1.8,0.5c-0.3,0.3-0.5,0.5-0.5,0.5
		c-0.1,0-0.2-0.5-0.3-1.6c0-0.1,0.3-0.1,0.9-0.2c0.8-0.9,1.4-1.7,1.9-2.3c-0.5-0.5-0.9-0.8-1.2-1.1c-0.4-0.3-0.9-0.6-1.4-0.8
		c0-0.1,0.2-0.4,0.7-0.9c0-0.1,0.1-0.1,0.1-0.1c0.2,0.1,0.3,0.3,0.5,0.4c0.3-0.4,0.6-0.9,0.9-1.3c0.5-0.8,0.8-1.3,1.1-1.7
		L118.6,165.2z M119.4,174.6c0.3,0.7,0.6,1.8,1,3.3c0,0.1-0.3,0.2-1,0.3c-0.1,0-0.2,0-0.2-0.1c-0.2-1-0.4-2.1-0.7-3.3
		c0-0.1,0.3-0.2,0.8-0.3C119.3,174.5,119.4,174.5,119.4,174.6z M123.6,173.7c0.2,0,0.3,0,0.4,0.1c0.3,0.3,0.5,0.5,0.5,0.6
		c-0.4,1.2-0.9,2-1.2,2.7c-0.3,0.6-0.7,1.1-1.1,1.5c-0.4,0.4-0.9,0.9-1.5,1.4c-0.1,0-0.1,0-0.2-0.1c-0.2-0.3-0.4-0.5-0.5-0.7
		c-0.1,0-0.1-0.1-0.1-0.1c0-0.1,0-0.1,0-0.2c0.4-0.2,0.8-0.5,1.2-0.8c0.4-0.3,0.8-0.8,1.2-1.4c0.3-0.4,0.5-0.9,0.8-1.4
		c0.1-0.1,0.1-0.2,0.1-0.3h-2.4c-0.1,0-0.2-0.1-0.2-0.3V174c0-0.2,0.1-0.3,0.2-0.3H123.6z M125.9,164.7c0.1,0,0.2,0.1,0.2,0.2
		c0,0.2-0.1,0.2-0.2,0.2c-0.1,0.1-0.2,0.1-0.2,0.2c-0.1,0.3-0.3,0.5-0.4,0.8h3.6c0.2,0,0.3,0.1,0.3,0.2v6c0,0.1-0.1,0.2-0.3,0.2H126
		v0.8c0.2,0.7,0.5,1.3,0.7,1.8c0.2-0.1,0.4-0.3,0.6-0.4c0.4-0.3,0.8-0.7,1.2-1.2c0.1-0.1,0.1-0.1,0.2-0.1c0.6,0.6,0.9,0.9,0.9,1
		c0,0.1-0.1,0.1-0.2,0.1c-0.2,0-0.3,0-0.4,0.1c-0.6,0.7-1.2,1.2-1.9,1.6c0.2,0.5,0.5,0.8,0.8,1.1c0.4,0.4,0.7,0.8,1.1,1.1
		c0.3,0.3,0.7,0.6,1.1,0.8c0,0.1,0,0.1-0.1,0.2c-0.2,0.2-0.3,0.3-0.4,0.5c0,0.1-0.1,0.1-0.2,0.1c-0.5-0.3-1-0.6-1.5-1.1
		c-0.4-0.4-0.8-0.9-1.1-1.4c-0.3-0.4-0.6-0.9-0.8-1.4v3c0,0.9-0.7,1.3-2.1,1.3h-0.6c-0.1,0-0.1-0.1-0.1-0.3c0-0.3-0.1-0.6-0.3-0.9
		v-0.1c0.3,0.1,0.6,0.1,1,0.1c0.6,0,1-0.2,1-0.6v-6.1h-3c-0.2,0-0.3-0.1-0.3-0.2v-6c0-0.1,0.1-0.2,0.3-0.2h2.3
		c0.2-0.4,0.5-0.9,0.7-1.6c0-0.1,0.1-0.1,0.2-0.1L125.9,164.7z M128.1,168.8v-1.6h-5.4v1.6H128.1z M128.1,169.8h-5.4v1.6h5.4V169.8z
		"/>
	<path class="st2" d="M137.9,180.5L137,180l7.3-15.3l0.9,0.5L137.9,180.5z"/>
	<path class="st2" d="M160.9,176.5c-0.8,1.6-2.1,2.4-3.8,2.4c-1.8,0-3.1-0.8-3.8-2.4c-0.6-1.2-0.9-2.7-0.9-4.5
		c0-1.8,0.3-3.3,0.9-4.5c0.8-1.6,2.1-2.4,3.9-2.4c1.8,0,3,0.8,3.8,2.4c0.6,1.2,0.9,2.7,0.9,4.5C161.8,173.9,161.5,175.4,160.9,176.5
		z M157.1,166.9c-1.8,0-2.7,1.7-2.7,5.2c0,3.4,0.9,5.1,2.7,5.1c1.8,0,2.7-1.7,2.7-5.1C159.8,168.6,158.9,166.9,157.1,166.9z"/>
	<path class="st2" d="M171.9,177.9c-0.9,0.7-2,1-3.2,1c-2.9,0-4.5-1.4-4.5-4.2h2c0,1.6,0.9,2.4,2.5,2.4c0.7,0,1.4-0.2,1.9-0.7
		c0.5-0.4,0.8-1,0.8-1.7s-0.3-1.3-0.8-1.6c-0.5-0.3-1.1-0.5-1.9-0.5c-0.2,0-0.5,0-0.9,0.1v-2c0.4,0,0.7,0.1,1,0.1
		c0.7,0,1.2-0.2,1.7-0.5c0.5-0.4,0.8-0.9,0.8-1.5c0-0.6-0.2-1.1-0.7-1.4c-0.5-0.3-1-0.5-1.7-0.5c-0.8,0-1.3,0.2-1.7,0.5
		c-0.4,0.3-0.6,0.9-0.7,1.7h-2c0-1.3,0.4-2.3,1.2-3c0.7-0.7,1.7-1,3-1s2.3,0.3,3.2,0.8c0.9,0.7,1.4,1.6,1.4,2.9
		c0,1.2-0.6,2.2-1.7,2.9c1.2,0.7,1.9,1.8,1.9,3.2C173.3,176.1,172.8,177.1,171.9,177.9z"/>
	<path class="st2" d="M175.4,178.9v-2.5h2.5v2.5H175.4z"/>
	<path class="st2" d="M187.7,177.9c-0.9,0.7-2,1-3.2,1c-2.9,0-4.5-1.4-4.5-4.2h2c0,1.6,0.9,2.4,2.5,2.4c0.7,0,1.4-0.2,1.9-0.7
		c0.5-0.4,0.8-1,0.8-1.7s-0.3-1.3-0.8-1.6c-0.5-0.3-1.1-0.5-1.9-0.5c-0.2,0-0.5,0-0.9,0.1v-2c0.4,0,0.7,0.1,1,0.1
		c0.7,0,1.2-0.2,1.7-0.5c0.5-0.4,0.8-0.9,0.8-1.5c0-0.6-0.2-1.1-0.7-1.4c-0.5-0.3-1-0.5-1.7-0.5c-0.8,0-1.3,0.2-1.7,0.5
		c-0.4,0.3-0.6,0.9-0.7,1.7h-2c0-1.3,0.4-2.3,1.2-3c0.7-0.7,1.7-1,3-1s2.3,0.3,3.2,0.8c0.9,0.7,1.4,1.6,1.4,2.9
		c0,1.2-0.6,2.2-1.7,2.9c1.2,0.7,1.9,1.8,1.9,3.2C189.1,176.1,188.6,177.1,187.7,177.9z"/>
	<path class="st2" d="M199.3,177.9c-0.9,0.7-2,1-3.2,1c-2.9,0-4.5-1.4-4.5-4.2h2c0,1.6,0.9,2.4,2.5,2.4c0.7,0,1.4-0.2,1.9-0.7
		c0.5-0.4,0.8-1,0.8-1.7s-0.3-1.3-0.8-1.6c-0.5-0.3-1.1-0.5-1.9-0.5c-0.2,0-0.5,0-0.9,0.1v-2c0.4,0,0.7,0.1,1,0.1
		c0.7,0,1.2-0.2,1.7-0.5c0.5-0.4,0.8-0.9,0.8-1.5c0-0.6-0.2-1.1-0.7-1.4c-0.5-0.3-1-0.5-1.7-0.5c-0.8,0-1.3,0.2-1.7,0.5
		c-0.4,0.3-0.6,0.9-0.7,1.7h-2c0-1.3,0.4-2.3,1.2-3c0.7-0.7,1.7-1,3-1s2.3,0.3,3.2,0.8c0.9,0.7,1.4,1.6,1.4,2.9
		c0,1.2-0.6,2.2-1.7,2.9c1.2,0.7,1.9,1.8,1.9,3.2C200.8,176.1,200.3,177.1,199.3,177.9z"/>
	<path class="st2" d="M207.8,178.7v-10.5c-0.6,0.5-1.4,0.9-2.6,1.3v-2.1c1.2-0.5,2.3-1.2,3.1-2h1.5v13.3H207.8z"/>
	<path class="st2" d="M214.5,174.6v-1.1h5.1v1.1H214.5z"/>
	<path class="st2" d="M229.6,177.5c-0.8,0.9-1.9,1.4-3.2,1.4c-2.9,0-4.3-1.3-4.4-4h2c0.1,1.4,0.9,2.1,2.3,2.1c0.8,0,1.4-0.3,1.9-0.9
		c0.4-0.5,0.6-1.2,0.6-2c0-0.8-0.2-1.4-0.6-1.9c-0.4-0.5-1.1-0.8-1.8-0.8c-1.2,0-2,0.6-2.3,1.9h-1.9l0.3-8h7.6v1.8h-5.8l-0.1,3.2
		c0.7-0.4,1.4-0.7,2.3-0.7c1.3,0,2.3,0.5,3.1,1.4c0.7,0.9,1.1,1.9,1.1,3.2C230.7,175.6,230.3,176.7,229.6,177.5z"/>
	<path class="st2" d="M237.3,178.7h-2.2l4.9-11.5h-6.4v-1.8h8.6v1.4L237.3,178.7z"/>
	<path class="st2" d="M252.9,177.9c-0.9,0.7-2,1-3.3,1c-1.3,0-2.4-0.3-3.3-1c-0.9-0.8-1.4-1.8-1.4-3.1s0.6-2.3,1.8-3
		c-1.1-0.7-1.6-1.7-1.6-2.8c0-1.2,0.4-2.1,1.4-2.9c0.8-0.7,1.9-1,3.1-1c1.2,0,2.2,0.3,3.1,1c0.9,0.7,1.4,1.7,1.4,2.9
		c0,1.2-0.6,2.1-1.6,2.8c1.2,0.7,1.8,1.8,1.8,3C254.3,176.1,253.8,177.2,252.9,177.9z M249.6,172.6c-1.8,0-2.7,0.7-2.7,2.2
		c0,0.7,0.2,1.3,0.7,1.7s1.1,0.6,1.9,0.6c0.8,0,1.4-0.2,1.9-0.6c0.5-0.4,0.8-1,0.8-1.7C252.3,173.4,251.4,172.6,249.6,172.6z
		 M251.4,167.4c-0.4-0.3-1-0.5-1.8-0.5c-0.7,0-1.3,0.2-1.8,0.5c-0.5,0.4-0.7,0.9-0.7,1.5c0,1.3,0.8,1.9,2.5,1.9
		c1.7,0,2.5-0.6,2.5-1.9C252.1,168.3,251.9,167.7,251.4,167.4z"/>
	<path class="st2" d="M264.6,177.9c-0.9,0.7-2,1-3.3,1c-1.3,0-2.4-0.3-3.3-1c-0.9-0.8-1.4-1.8-1.4-3.1s0.6-2.3,1.8-3
		c-1.1-0.7-1.6-1.7-1.6-2.8c0-1.2,0.4-2.1,1.4-2.9c0.8-0.7,1.9-1,3.1-1c1.2,0,2.2,0.3,3.1,1c0.9,0.7,1.4,1.7,1.4,2.9
		c0,1.2-0.6,2.1-1.6,2.8c1.2,0.7,1.8,1.8,1.8,3C266,176.1,265.5,177.2,264.6,177.9z M261.3,172.6c-1.8,0-2.7,0.7-2.7,2.2
		c0,0.7,0.2,1.3,0.7,1.7s1.1,0.6,1.9,0.6c0.8,0,1.4-0.2,1.9-0.6c0.5-0.4,0.8-1,0.8-1.7C263.9,173.4,263.1,172.6,261.3,172.6z
		 M263,167.4c-0.4-0.3-1-0.5-1.8-0.5c-0.7,0-1.3,0.2-1.8,0.5c-0.5,0.4-0.7,0.9-0.7,1.5c0,1.3,0.8,1.9,2.5,1.9c1.7,0,2.5-0.6,2.5-1.9
		C263.8,168.3,263.5,167.7,263,167.4z"/>
</g>
</svg>
