<?xml version="1.0" encoding="utf-8"?>
<!-- Generator: Adobe Illustrator 16.0.0, SVG Export Plug-In . SVG Version: 6.00 Build 0)  -->
<!DOCTYPE svg PUBLIC "-//W3C//DTD SVG 1.1//EN" "http://www.w3.org/Graphics/SVG/1.1/DTD/svg11.dtd">
<svg version="1.1" xmlns="http://www.w3.org/2000/svg" xmlns:xlink="http://www.w3.org/1999/xlink" x="0px" y="0px"
	 width="353.512px" height="234.558px" viewBox="0 0 353.512 234.558" enable-background="new 0 0 353.512 234.558"
	 xml:space="preserve">
<g id="圖層_1">
	<g>
		<path fill="#1AA4AB" d="M213.792,93.498c-1.09,0-2.173,0-3.257,0h-9.773v38.115h9.773c5.572,0,11.363-0.1,16.686,1.761
			c4.253,1.486,8.12,3.986,11.283,7.188c6.135,6.211,9.356,14.81,9.356,23.491c0,18.372-13.101,33.266-29.26,33.266
			c-7.298,0-13.89-3.148-19.016-8.174c-0.198-0.191-0.42-0.323-0.614-0.52c-0.076-0.077-0.124-0.165-0.198-0.243
			c-0.875-0.92-1.655-1.927-2.425-2.963c-0.323-0.44-0.669-0.871-0.96-1.323c-2.723-4.069-4.672-8.811-5.513-14.042h-37
			c0,8.907,1.679,17.266,5.049,25.085c3.365,7.817,7.982,14.659,13.846,20.523c5.864,5.864,12.756,10.481,20.687,13.845
			c7.926,3.365,16.339,5.05,25.248,5.05c8.903,0,17.267-1.685,25.085-5.05c7.818-3.363,14.659-7.98,20.524-13.845
			c5.863-5.864,10.475-12.706,13.845-20.523c3.364-7.819,5.049-16.179,5.049-25.085v-4.886c0-9.774-1.847-19.001-5.539-27.691
			c-3.694-8.685-8.795-16.289-15.311-22.804c6.297-5.864,11.291-12.707,14.985-20.524c3.691-7.818,5.646-16.828,5.864-27.039v-2.28
			c0-8.903-1.685-17.317-5.049-25.248c-3.37-7.925-7.981-14.823-13.845-20.687c-5.865-5.864-12.707-10.475-20.524-13.845
			C234.968,1.686,226.604,0,217.701,0c-8.908,0-17.322,1.686-25.248,5.05c-7.93,3.37-14.822,7.981-20.687,13.845
			c-5.864,5.864-10.481,12.762-13.846,20.687c-3.37,7.931-5.049,16.345-5.049,25.248h38.441c0-7.381,2.55-13.626,7.656-18.732
			c5.101-5.1,11.345-7.655,18.731-7.655c7.167,0,13.302,2.555,18.406,7.655c5.102,5.106,7.657,11.352,7.657,18.732v2.28
			c0,7.167-2.555,13.357-7.657,18.569c-5.104,5.213-11.238,7.819-18.406,7.819"/>
		<path fill="#7FA1AA" d="M191.314,170.055h-1.441c0.841,5.231,2.791,9.972,5.513,14.042
			C192.698,179.924,191.314,175.255,191.314,170.055L191.314,170.055z"/>
		<g>
			<defs>
				<rect id="SVGID_101_" width="353.512" height="234.558"/>
			</defs>
			<clipPath id="SVGID_2_">
				<use xlink:href="#SVGID_101_"  overflow="visible"/>
			</clipPath>
			<path clip-path="url(#SVGID_2_)" fill="#7FA1AA" d="M198.771,188.382c-0.911-0.948-1.683-1.95-2.425-2.963
				C197.116,186.455,197.897,187.461,198.771,188.382L198.771,188.382z"/>
			<path clip-path="url(#SVGID_2_)" fill="#283543" d="M112.212,30.984c0.391,2.587-0.061,3.685-1.356,3.292
				c-1.292-0.382-2.393-0.706-3.292-0.96c-2.067,0-3.422-0.14-4.073-0.392c-0.516-0.266,0.072-0.645,1.745-1.16
				c-1.931-1.42-3.873-2.648-5.811-3.686c-1.938-0.898-2.966-1.354-3.099-1.354v13.569c-0.383,2.708-1.486,4-3.289,3.863
				c-1.943,0-3.035-1.802-3.301-5.417v-8.527c-3.351,2.586-6.461,4.519-9.288,5.809c-2.848,1.294-3.884,0.91-3.106-1.166
				c0.907-2.832,1.608-4.323,2.13-4.449c0.517-0.136,0.712,0.578,0.578,2.131c2.454-2.071,4.394-4.06,5.816-6.007
				c1.416-1.797,2.193-2.777,2.326-2.9c-2.326-0.268-4.588-1.353-6.786-3.293c-2.056-1.937-1.736-3.167,0.974-3.683
				c1.682-0.52,3.487-1.173,5.428-1.949c1.807-0.765,2.838-1.153,3.1-1.153c0-1.681,0.188-2.714,0.581-3.104
				c0.384-0.378,0.837-0.769,1.353-1.155c-3.226-0.126-5.675-0.978-7.359-2.531c-1.678-1.543-1.161-2.511,1.546-2.897
				c4.137-0.772,6.524-1.747,7.172-2.911c0.642-1.022,1.87-0.576,3.681,1.36c2.838,1.551,3.804,2.906,2.911,4.068
				c-0.91,1.164-2.779,2.138-5.622,2.911l1.544,1.545c1.809-1.545,3.424-1.802,4.843-0.769c1.42,1.03,2.008,2.061,1.75,3.096
				c-0.132,1.158-0.914,1.936-2.331,2.316c-1.416,0.388-2.842,1.299-4.262,2.715l-0.386,6.205c2.589,0.388,5.747,1.293,9.493,2.72
				C109.43,28.398,111.568,29.694,112.212,30.984L112.212,30.984z"/>
		</g>
		<path fill="#283543" d="M97.042,86.378v-8.913c-1.291,1.551-2.259,2.716-2.91,3.489l-0.965,1.165
			c0.128,0.389,0.393,1.095,0.777,2.129C94.466,85.149,95.495,85.86,97.042,86.378L97.042,86.378z M94.325,71.274
			c-1.158-0.905-2.056-1.553-2.701-1.945c-0.782-0.258-1.943,0.519-3.492,2.323c0.26,1.68,0.384,3.297,0.384,4.854
			c-0.124,1.545,0,2.641,0.39,3.293c1.29-1.553,2.393-3.293,3.301-5.234C93.108,72.624,93.815,71.518,94.325,71.274L94.325,71.274z
			 M83.485,59.254c-1.813,0.26-2.972,0.837-3.486,1.744c-0.646,1.041-0.907,1.616-0.777,1.738c1.291-1.023,2.33-1.862,3.102-2.511
			C82.968,59.576,83.354,59.254,83.485,59.254L83.485,59.254z M115.251,78.245c1.297,1.553,1.874,2.963,1.75,4.264
			c-0.262,1.418-1.613,1.551-4.07,0.375c-2.324-1.283-4.458-2.444-6.392-3.476l-2.91-1.554c0.128,2.586,0.26,4.719,0.394,6.396
			c0.123,1.807,0.252,2.781,0.387,2.905c-0.134,3.613-1.169,5.354-3.106,5.233c-1.932-0.26-3.352-1.492-4.261-3.677
			c-2.064-0.78-3.357-1.814-3.875-3.104c-0.512-1.421-0.898-2.456-1.157-3.098c-0.386-0.521-0.917-0.582-1.558-0.202
			c-0.51,0.266-1.156,0.577-1.937,0.976v2.323c-0.384,2.325-1.287,3.482-2.705,3.482c-1.553,0-2.458-1.157-2.718-3.482l0.391-7.361
			c-1.039,1.937-2.324,3.478-3.879,4.639c-1.548,1.175-2.581,0.399-3.094-2.322c0-1.416,0.39-2.511,1.154-3.295
			c0.652-0.643,1.041-0.961,1.168-0.961c0.903-1.292,1.679-2.449,2.328-3.483c0.643-1.038,1.035-1.548,1.163-1.548
			c-1.811-0.525-3.687-1.426-5.618-2.72c-2.064-1.417-2.263-2.711-0.586-3.867c1.034-1.555,2.456-3.105,4.268-4.654
			c1.809-1.557,2.839-2.32,3.098-2.32c-0.13-0.643-0.19-1.297-0.19-1.938L83.094,55c-0.126-2.333,1.102-3.109,3.684-2.333
			c2.455,0.782,4.065,1.945,4.847,3.489c0,0.913-0.199,1.683-0.587,2.319c-0.391,0.653-0.584,1.039-0.584,1.17
			c0.778,1.161,0.909,2.194,0.39,3.09c-0.518,0.778-1.161,1.951-1.936,3.493c-0.256,0.511-0.39,1.105-0.39,1.748
			c-0.124,0.514-0.124,0.836,0,0.967c1.546-1.157,3.366-2.394,5.428-3.677c2.067-1.424,3.234-2.135,3.486-2.135
			c0-4.266,0.128-7.428,0.39-9.495c0.13-2.061,0.253-3.042,0.384-2.903c-0.131-2.448,0.391-3.559,1.552-3.292
			c1.166,0.259,2.326,1.221,3.483,2.903c2.071,1.546,2.784,2.904,2.138,4.065c-0.519,1.167-0.968,2.004-1.355,2.518v1.17
			c3.222,0,4.775,0.906,4.645,2.708c-0.128,1.808-1.033,3.354-2.711,4.645l-1.934,2.336l-0.394,7.742
			c3.105-0.128,5.817,0.261,8.14,1.167C113.964,77.466,115.13,77.982,115.251,78.245L115.251,78.245z"/>
		<path fill="#283543" d="M286.097,159.614v-26.983h7.897c0,0,6.95,0.179,6.95,8.328v3.388v15.268h4.503v-20.603
			c0-3.934-1.701-6.814-5.029-8.578c-2.526-1.341-5.097-1.521-5.128-1.521l-13.054-0.119v30.82H286.097L286.097,159.614z"/>
		<path fill="#283543" d="M310.188,136.388L310.188,136.388v-0.022c-0.626-3.261-2.028-5.599-3.707-7.297
			c-4.28-4.441-10.326-4.592-10.326-4.592h-10.21v0.093h-3.709v3.303l13.085,0.106c0.146,0,11.051,0.767,11.051,11.032v20.587h4.181
			v-15.108v-4.235C310.554,138.842,310.411,137.559,310.188,136.388"/>
		<g>
			<defs>
				<rect id="SVGID_103_" width="353.512" height="234.558"/>
			</defs>
			<clipPath id="SVGID_4_">
				<use xlink:href="#SVGID_103_"  overflow="visible"/>
			</clipPath>
			<polygon clip-path="url(#SVGID_4_)" fill="#283543" points="277.436,159.599 281.291,159.599 281.291,124.57 277.436,124.57 
				277.436,159.599 			"/>
			<path clip-path="url(#SVGID_4_)" fill="#283543" d="M353.413,140.052c0,0,0.374,2.724-0.332,6.048h-27.305v-2.728h24.44
				l0.084-0.264c0.215-0.751,0.107-2.431,0.055-3.102h0.007c0,0-0.007-0.018-0.007-0.02c-0.012-0.109-0.029-0.209-0.029-0.239l0,0
				c-1.109-9.276-9.749-9.791-11.077-9.799h-0.152h-0.015h-1.034h-8.111c-0.115-0.008-10.251-0.219-11.279,10.095
				c-0.379,3.672,0.321,9.746,2.089,11.791c2.049,2.383,5.481,3.617,10.503,3.797h18.423v2.982c0,0-15.469,0.555-21.661,0
				c-10.598-0.98-13.85-8.511-12.15-20.579c1.719-12.247,15.321-11.437,15.321-11.437h6.864h0.481h0.016
				c2.691,0.06,12.318,1.077,14.605,11.437c0.135,0.636,0.221,1.323,0.26,1.972"/>
		</g>
		<path fill="#283543" d="M324.667,149.248c-1.93-1.311-1.708-7.851-1.708-7.851c0-6.19,5.056-7.605,7.093-7.605h7.998h0.929
			c1.864,0,6.288,1.202,6.984,6.215h-20.187v2.595h23.845c0.098-0.702,0.037-1.939-0.021-2.595
			c-1.032-9.476-10.104-9.305-10.501-9.292h-1.049h-8.128c-0.401-0.013-9.538-0.184-10.511,9.412
			c-0.359,3.458,0.293,9.327,1.92,11.211c1.897,2.207,5.156,3.359,9.931,3.521h18.415v-3.079l-18.423-0.115
			C326.705,151.315,324.667,149.248,324.667,149.248"/>
		<polygon fill="#283543" points="99.898,160.188 103.809,160.188 103.809,124.57 99.898,124.57 99.898,160.188 		"/>
		<polygon fill="#283543" points="108.65,124.57 104.738,124.57 104.738,160.173 108.65,160.173 108.65,124.57 		"/>
		<polygon fill="#283543" points="99.898,119.739 103.809,119.739 103.809,111.957 99.898,111.957 99.898,119.739 		"/>
		<polygon fill="#283543" points="108.65,111.957 104.738,111.957 104.738,119.739 108.65,119.739 108.65,111.957 		"/>
		<path fill="#283543" d="M120.953,140.998c-0.423,4.194,0.354,7.472,2.332,9.77c2.321,2.698,6.256,4.091,12.071,4.284h14.205
			v-3.727l-14.229-0.167c0,0-10.075,0.456-10.075-8.607c0-7.525,6.165-9.238,8.611-9.238h15.692v-3.738h-15.852
			C133.233,129.551,122.123,129.359,120.953,140.998"/>
		<path fill="#283543" d="M135.247,124.582c0,0-15.373-0.781-18.592,13.872c-3.034,13.71,5.146,21.141,14.767,21.141h18.139v-3.598
			h-14.229c-6.089-0.22-10.265-1.727-12.747-4.624c-2.133-2.475-2.991-6.011-2.546-10.477c1.248-12.524,13.573-12.266,13.683-12.266
			h15.839v-4.047H135.247L135.247,124.582z"/>
		<path fill="#283543" d="M166.306,160.188v-26.822h7.838c0,0,6.927,0.179,6.927,8.28v3.364v15.178h4.465v-20.492
			c0-3.899-1.693-6.76-5.004-8.519c-2.51-1.329-5.071-1.508-5.099-1.508l-12.981-0.096v30.615H166.306L166.306,160.188z"/>
		<path fill="#283543" d="M190.259,137.093L190.259,137.093c0-0.013,0-0.013,0-0.013c-0.641-3.24-2.029-5.579-3.697-7.25
			c-4.25-4.423-10.26-4.574-10.26-4.574h-10.139V99.475h-3.711v29.154l13.009,0.092c0.138,0.025,10.991,0.793,10.991,10.975v20.477
			h4.155v-15.008v-4.22C190.607,139.534,190.478,138.268,190.259,137.093"/>
		<polygon fill="#283543" points="157.7,160.188 161.545,160.188 161.545,99.475 157.7,99.475 157.7,160.188 		"/>
		<g>
			<defs>
				<rect id="SVGID_105_" width="353.512" height="234.558"/>
			</defs>
			<clipPath id="SVGID_6_">
				<use xlink:href="#SVGID_105_"  overflow="visible"/>
			</clipPath>
			<path clip-path="url(#SVGID_6_)" fill="#283543" d="M67.917,123.794H15.229v4.243h53.012c5.265,0,9.181-1.788,11.331-5.166
				c2.152-3.36,2.351-8.004,0.531-12.132c-3.061-6.942-12.973-6.272-13.077-6.272H9.502c-1.587,0-2.813,0.449-3.607,1.376
				c-1.369,1.501-1.17,3.775-1.17,3.792l0.018,50.538h4.546v-51.136h60.123c5.132,0,8.144,1.955,8.144,7.904
				C77.556,124.57,67.917,123.794,67.917,123.794"/>
			<path clip-path="url(#SVGID_6_)" fill="#283543" d="M71.39,132.519c2.474,0,14.257-0.2,14.257-15.893
				c0-15.698-15.898-16.112-15.898-16.112H9.289c-10.66,0-9.225,11.226-9.225,11.226v48.448h3.742v-50.509
				c-0.005-0.061-0.232-2.668,1.391-4.484c0.999-1.111,2.438-1.67,4.304-1.67h57.489c0.398-0.034,10.632-0.707,13.941,6.821
				c1.953,4.427,1.726,9.406-0.576,13.032c-1.641,2.557-5.058,5.605-12.115,5.605H15.229v3.536H71.39L71.39,132.519z"/>
		</g>
		<path fill="#283543" d="M85.026,151.445c0,0-4.2,0.119-10.137-3.846c-5.941-3.953-11.482-9.358-22.857-9.771
			c-11.384-0.407-37-0.06-37-0.06v3.851h37.867c5.586,0,11.167,2.925,15.41,5.481c0.776,0.458,1.629,1.078,2.495,1.719
			c3.904,2.869,9.29,6.781,19.943,6.168l0.008,0.468v-4.01H85.026L85.026,151.445z"/>
		<path fill="#283543" d="M88.5,155.996c-9.468,0-14.502-3.682-18.245-6.413c-0.864-0.633-1.689-1.242-2.432-1.688
			c-4.134-2.496-9.575-5.346-14.924-5.346H15.031v3.074H48.24c0,0,7.16-0.613,14.339,3.125c7.17,3.745,12.817,10.383,20.293,10.706
			c7.492,0.315,7.882,0,7.882,0v-3.539C89.99,155.979,89.235,155.996,88.5,155.996"/>
		<path fill="#283543" d="M260.661,142.23c0,5.874-4.705,10.631-10.447,10.631H221.7c-5.751,0-10.453-4.757-10.453-10.631v-15.852
			c0-5.854,4.702-10.627,10.453-10.627h28.514c5.742,0,10.447,4.772,10.447,10.627V142.23L260.661,142.23z M250.214,111.991H221.7
			c-7.815,0-14.179,6.45-14.179,14.388v15.852c0,7.949,6.364,14.413,14.179,14.413h28.514c7.813,0,14.169-6.464,14.169-14.413
			v-15.852C264.384,118.44,258.028,111.991,250.214,111.991"/>
		<path fill="#283543" d="M265.169,142.23c0,8.389-6.709,15.187-14.955,15.187H221.7c-8.244,0-14.949-6.798-14.949-15.187v-15.852
			c0-8.377,6.705-15.177,14.949-15.177h28.514c8.246,0,14.955,6.8,14.955,15.177V142.23L265.169,142.23z M250.214,107.417H221.7
			c-10.3,0-18.681,8.497-18.681,18.961v15.852c0,10.474,8.381,18.975,18.681,18.975h28.514c10.288,0,18.684-8.501,18.684-18.975
			v-15.852C268.898,115.915,260.502,107.417,250.214,107.417"/>
	</g>
</g>
<g id="圖層_2">
</g>
</svg>
